<svg xmlns="http://www.w3.org/2000/svg" xmlns:xlink="http://www.w3.org/1999/xlink" width="366" height="731" viewBox="0 0 366 731">
  <defs>
    <filter id="Rectangle_454" x="-4.5" y="-4.5" width="375" height="99" filterUnits="userSpaceOnUse">
      <feOffset input="SourceAlpha"/>
      <feGaussianBlur stdDeviation="1.5" result="blur"/>
      <feFlood flood-opacity="0.161"/>
      <feComposite operator="in" in2="blur"/>
      <feComposite in="SourceGraphic"/>
    </filter>
    <filter id="Rectangle_4" x="-9" y="672" width="384" height="63" filterUnits="userSpaceOnUse">
      <feOffset dy="-5" input="SourceAlpha"/>
      <feGaussianBlur stdDeviation="3" result="blur-2"/>
      <feFlood flood-opacity="0.051"/>
      <feComposite operator="in" in2="blur-2"/>
      <feComposite in="SourceGraphic"/>
    </filter>
    <clipPath id="clip-Feedback">
      <rect width="366" height="731"/>
    </clipPath>
  </defs>
  <g id="Feedback" clip-path="url(#clip-Feedback)">
    <rect width="366" height="731" fill="#fff"/>
    <g transform="matrix(1, 0, 0, 1, 0, 0)" filter="url(#Rectangle_454)">
      <rect id="Rectangle_454-2" data-name="Rectangle 454" width="366" height="90" fill="#0bce86"/>
    </g>
    <rect id="Rectangle_456" data-name="Rectangle 456" width="366" height="31" fill="#09a068"/>
    <g id="Group_4" data-name="Group 4" transform="translate(0 4)">
      <g id="Group_2" data-name="Group 2" transform="translate(387 23)">
        <text id="_11:09" data-name="11:09" transform="translate(-60 -8)" fill="#fff" font-size="12" font-family="Helvetica"><tspan x="0" y="0">11:09</tspan></text>
        <text id="_85_" data-name="85%" transform="translate(-101 -8)" fill="#fff" font-size="12" font-family="Helvetica"><tspan x="0" y="0">85%</tspan></text>
        <path id="Shape" d="M8.347,1.8V1H5.674v.8H3V13.477h8.021V1.8Z" transform="translate(-77.818 -20)" fill="#fff"/>
        <path id="Shape-2" data-name="Shape" d="M0,13.477H12.477V1Z" transform="translate(-120.121 -20)" fill="#fff"/>
        <path id="Shape-3" data-name="Shape" d="M17.042,3.674A13.155,13.155,0,0,0,9.021,1,13.155,13.155,0,0,0,1,3.674l8.021,9.8Z" transform="translate(-140.394 -20)" fill="#fff"/>
      </g>
      <text id="_" data-name=" " transform="translate(15 16)" fill="#fff" font-size="16" font-family="LastResort, '\.LastResort'"><tspan x="0" y="0"></tspan><tspan y="0" font-family="Helvetica"> </tspan><tspan y="0"></tspan></text>
    </g>
    <g transform="matrix(1, 0, 0, 1, 0, 0)" filter="url(#Rectangle_4)">
      <rect id="Rectangle_4-2" data-name="Rectangle 4" width="366" height="45" transform="translate(0 686)" fill="#fff"/>
    </g>
    <g id="Group_5" data-name="Group 5" transform="translate(376)">
      <path id="Recent" d="M43.3,16h7.787a1.3,1.3,0,0,1,1.3,1.3v7.787a1.3,1.3,0,0,1-1.3,1.3H43.3a1.3,1.3,0,0,1-1.3-1.3V17.3A1.3,1.3,0,0,1,43.3,16Z" transform="translate(-138.737 689.113)" fill="none" stroke="#a3a3a3" stroke-width="2"/>
      <path id="Home" d="M5.317,0A5.317,5.317,0,1,1,0,5.317,5.317,5.317,0,0,1,5.317,0Z" transform="translate(-198.679 705.113)" fill="none" stroke="#a3a3a3" stroke-width="2"/>
      <path id="Home-2" data-name="Home" d="M8,0A8,8,0,1,1,0,8,8,8,0,0,1,8,0Z" transform="translate(-201.357 702.435)" fill="none" stroke="#a3a3a3" stroke-width="0.5"/>
      <path id="Back" d="M51.776,15.112c.659-.4,1.12-.066,1.12.659V25.32c0,.724-.527,1.054-1.12.659l-8.232-4.808c-.659-.4-.659-.922,0-1.317Z" transform="translate(-342.735 689.557)" fill="none" stroke="#a3a3a3" stroke-width="2"/>
    </g>
    <text id="Feedback-2" data-name="Feedback" transform="translate(54 67)" fill="#fff" font-size="16" font-family="Helvetica"><tspan x="0" y="0">Feedback</tspan></text>
    <text id="Include_screenshot_and_logs" data-name="Include screenshot and logs" transform="translate(43 218)" font-size="10" font-family="Helvetica"><tspan x="0" y="0">Include screenshot and logs</tspan></text>
    <text id="From:_bryankngs_gmail.com" data-name="From: bryankngs@gmail.com" transform="translate(20 117)" fill="#626262" font-size="10" font-family="Helvetica"><tspan x="0" y="0">From: bryankngs@gmail.com</tspan></text>
    <text id="Write_your_feedback" data-name="Write your feedback" transform="translate(20 167)" fill="#626262" font-size="14" font-family="Helvetica"><tspan x="0" y="0">Write your feedback</tspan></text>
    <line id="Line_139" data-name="Line 139" y1="1" x2="322" transform="translate(20.5 174.5)" fill="none" stroke="#0bce86" stroke-width="1"/>
    <g id="back-2" data-name="back" transform="translate(15.776 14.14)">
      <g id="Group_1291" data-name="Group 1291" transform="translate(0 41.674)">
        <path id="Path_3410" data-name="Path 3410" d="M12.71,46.211l.021,0H3.719l2.833-2.839a.744.744,0,0,0,0-1.046l-.441-.441a.737.737,0,0,0-1.041,0L.215,46.744a.742.742,0,0,0,0,1.044l4.856,4.856a.738.738,0,0,0,1.041,0l.441-.441a.729.729,0,0,0,.215-.52.708.708,0,0,0-.215-.511L3.688,48.318H12.72a.763.763,0,0,0,.747-.755v-.624A.748.748,0,0,0,12.71,46.211Z" transform="translate(0 -41.674)" fill="#fff"/>
      </g>
    </g>
    <path id="Icon" d="M7,10l5,5,5-5Z" transform="translate(325 104)" opacity="0.54"/>
    <g id="send-button" transform="translate(327.283 10.564)">
      <g id="send" transform="translate(0 38.25)">
        <path id="Path_3414" data-name="Path 3414" d="M0,59.622,24.934,48.936,0,38.25v8.311l17.81,2.375L0,51.31Z" transform="translate(0 -38.25)" fill="#fff"/>
      </g>
    </g>
    <path id="Icon-2" data-name="Icon" d="M14.556,3H4.444A1.449,1.449,0,0,0,3,4.444V14.556A1.449,1.449,0,0,0,4.444,16H14.556A1.449,1.449,0,0,0,16,14.556V4.444A1.449,1.449,0,0,0,14.556,3Zm-6.5,10.111L4.444,9.644l1.011-.939,2.6,2.528,5.489-5.344,1.011.939-6.5,6.283Z" transform="translate(17 205)" fill="#0bce86"/>
  </g>
</svg>
