<svg xmlns="http://www.w3.org/2000/svg" xmlns:xlink="http://www.w3.org/1999/xlink" width="105.641" height="105.641" viewBox="0 0 105.641 105.641">
  <defs>
    <clipPath id="clip-path">
      <rect id="Rectangle_356" data-name="Rectangle 356" width="105.641" height="105.641" rx="8" transform="translate(14 132)" fill="#fff"/>
    </clipPath>
    <linearGradient id="linear-gradient" x1="0.5" y1="1" x2="0.5" gradientUnits="objectBoundingBox">
      <stop offset="0" stop-color="gray" stop-opacity="0.251"/>
      <stop offset="0.54" stop-color="gray" stop-opacity="0.122"/>
      <stop offset="1" stop-color="gray" stop-opacity="0.102"/>
    </linearGradient>
  </defs>
  <g id="Mask_Group_12" data-name="Mask Group 12" transform="translate(-14 -132)" clip-path="url(#clip-path)">
    <g id="undraw_business_deal_cpi9" transform="translate(14 144.734)">
      <path id="Path_2074" data-name="Path 2074" d="M111.49,27.258c-.018.086-.036.172-.056.257a27.68,27.68,0,0,1-3.214,8.338c-.051.086-.1.172-.155.258a23.96,23.96,0,0,1-3.624,4.574,10.986,10.986,0,0,1-2.6,2,14.737,14.737,0,0,1-4.633,1.268c-1.666.253-3.356.463-5.04.691q-.9.119-1.785.253c-1.628.241-3.243.52-4.821.889a28.262,28.262,0,0,0-5.625,1.893q-.214.1-.423.205c-.139.07-.28.14-.417.212s-.273.143-.407.217c-.07.038-.139.075-.208.115s-.136.075-.2.113c-.2.112-.4.227-.6.343l-.008,0c-.131.076-.259.155-.387.233-.73.443-1.444.906-2.158,1.371l-.449.29-.7.45c-.135.088-.274.176-.41.263-.1.064-.194.128-.3.194-.507.319-1.021.633-1.548.932-.125.072-.251.143-.377.213a21.446,21.446,0,0,1-3.33,1.5L68,54.342a15.193,15.193,0,0,1-1.769.5c-.345.075-.692.137-1.042.185a11.172,11.172,0,0,1-2.825.04c-1.845-.214-3.574-.922-5.419-1.161-3.8-.484-7.484,1.075-11.055,2.3q-1.317.45-2.653.843c-.592.175-1.186.341-1.785.5a67.175,67.175,0,0,1-11.2,1.963,31.53,31.53,0,0,1-4.756.105,17.464,17.464,0,0,1-1.784-.194,11.357,11.357,0,0,1-5.378-2.148,10.5,10.5,0,0,1-2.791-3.58,15.623,15.623,0,0,1-1.443-4.31c-.037-.2-.07-.409-.1-.614q-.073-.526-.108-1.059a15.152,15.152,0,0,1,.666-5.6c.639-2.024,1.7-3.967,2.171-6.007q.029-.13.055-.258a8.944,8.944,0,0,0,.142-.938c.239-2.506-.677-4.949-1.4-7.4-.025-.085-.05-.171-.075-.257q-.116-.408-.223-.816a17.007,17.007,0,0,1-.257-7.952c.018-.086.041-.172.062-.257a11.642,11.642,0,0,1,2.189-4.483,17.355,17.355,0,0,1,4.127-3.572q1.139-.745,2.355-1.392.871-.464,1.784-.88A35.139,35.139,0,0,1,41.459,4.825c.29.013.581.028.871.049s.608.046.911.075A65.449,65.449,0,0,1,53.668,7.034c1.149.3,2.3.617,3.441.924.51.135,1.019.271,1.529.4,2.5.645,5.032,1.23,7.6,1.666q.891.154,1.784.281a51.11,51.11,0,0,0,6.24.529q1.218.024,2.437-.021.615-.022,1.232-.067A82.229,82.229,0,0,0,90.38,8.514q.891-.2,1.785-.4c.782-.172,1.564-.339,2.349-.493A22.235,22.235,0,0,1,108.308,9.2a6.541,6.541,0,0,1,2.7,1.838,5.764,5.764,0,0,1,.91,2.883c.167,1.426.277,2.871.318,4.323,0,.085,0,.171.006.257A38.806,38.806,0,0,1,111.49,27.258Z" transform="translate(-7.193 -4.132)" fill="tomato" opacity="0.1"/>
      <path id="Path_2075" data-name="Path 2075" d="M79.242,35.861h-.319v.258h.362Zm-3.622,0a.016.016,0,0,0,0,.007c-.009.071-.018.141-.028.213v.039h2.767V36.1l.194-.243Zm-7.417,0V27.523h3.183c-.034-.022-.069-.045-.1-.067l-.046-.03-.06-.037c-.035-.02-.07-.041-.106-.06l-.09-.049-.021-.012H68.2v-.46l-.075.029-.078.037h-.006l-.016.009-.049.026-.049.026c-.048.026-.1.055-.145.085l-.046.031-.1.062c-.125.083-.248.17-.374.252-.032.02-.064.041-.1.059-.069.041-.139.079-.212.114a.808.808,0,0,1-.1.042l-.052.02-.048.016h0a2.266,2.266,0,0,1-.348.091v8.151H61.639c0,.01.007.017.01.027.026.077.052.154.077.231h4.693v8.937h.073l.084,0,.152.009.243.029.111.011.121.013h.018l.214.026.045.006.1.015.148.021h0l.355-.015h0l.048.009a.336.336,0,0,1,.06.01V36.119h7.387V36.08c.01-.072.019-.142.028-.213a.017.017,0,0,1,0-.007Zm11.038,0h-.319v.258h.362Zm-3.821,0c-.012.086-.022.172-.034.258h3.086l.21-.258Zm-7.217,0V27.523h3.183c-.034-.022-.069-.045-.1-.067l-.046-.03-.06-.037c-.035-.02-.07-.041-.106-.06l-.09-.049-.021-.012H68.2v-.46l-.075.029-.078.037h-.006l-.016.009-.049.026-.049.026c-.048.026-.1.055-.145.085l-.046.031-.1.062c-.125.083-.248.17-.374.252-.032.02-.064.041-.1.059-.069.041-.139.079-.212.114a.808.808,0,0,1-.1.042l-.052.02-.048.016h0a2.267,2.267,0,0,1-.348.091v8.151H61.639c0,.01.007.017.01.027.026.076.053.154.078.231h4.692v8.936h.073l.084,0,.152.009.243.03.111.011.121.013h.018l.214.026.045.006.1.015.148.021h0l.355-.015h0l.048.009a.336.336,0,0,1,.06.01V36.119h7.193c.012-.086.022-.172.034-.258ZM92.349,18.5h20.075c0-.086,0-.172-.006-.257H92.349V8.117q-.894.194-1.785.4V18.24H68.731l-.055-.049.083-.074h0l8.121-7.3q-1.219.046-2.437.021L68.2,16.447V10.314q-.894-.127-1.784-.281v6.132l-9.124-8.2C56.149,7.658,55,7.345,53.854,7.04L66.261,18.191l-.055.049H43.429V4.965q-.456-.043-.911-.075c-.29-.021-.581-.037-.871-.049v13.4H25.687V7.913q-.9.414-1.784.88V18.24H15.232c-.021.085-.044.171-.062.257H23.9v8.767H15.65c.024.086.049.172.075.257H23.9v8.338H16.978q-.026.129-.055.258H23.9V59.431c.581.09,1.181.153,1.784.194V36.119H41.643V57.554c.6-.16,1.193-.325,1.785-.5V36.119h22.99V54.847a15.192,15.192,0,0,0,1.769-.5l.015-.006V36.119h22.36V44.9q.89-.131,1.785-.251V36.119h15.9c.052-.086.1-.172.155-.258H92.349V27.523h19.269c.02-.085.038-.171.056-.257H92.349Zm-66.662,0H41.643v8.767H25.687Zm0,17.363V27.523H41.643v8.338ZM43.429,18.5h22.99v8.767H43.429Zm0,17.363V27.523h22.99v8.338Zm47.135,0H68.2V27.523h22.36Zm0-8.6H68.2V18.733l.314-.235H90.564Zm-14.944,8.6a.016.016,0,0,0,0,.007c-.009.071-.018.141-.028.213v.039h2.767V36.1l.194-.243Zm3.622,0h-.319v.258h.362Zm-11.038,0V27.523h3.183c-.034-.022-.069-.045-.1-.067l-.046-.03-.06-.037c-.035-.02-.07-.041-.106-.06l-.09-.049-.021-.012H68.2v-.46l-.075.029-.078.037h-.006l-.016.009-.049.026-.049.026c-.048.026-.1.055-.145.085l-.046.031-.1.062c-.125.083-.248.17-.374.252-.032.02-.064.041-.1.059-.069.041-.139.079-.212.114a.808.808,0,0,1-.1.042l-.052.02-.048.016h0a2.266,2.266,0,0,1-.348.091v8.151H61.639c0,.01.007.017.01.027.026.077.052.154.077.231h4.693v8.937h.073l.084,0,.152.009.243.029.111.011.121.013h.018l.214.026.045.006.1.015.148.021h0l.355-.015h0l.048.009a.336.336,0,0,1,.06.01V36.119h7.387V36.08c.01-.072.019-.142.028-.213a.017.017,0,0,1,0-.007Z" transform="translate(-7.377 -4.139)" fill="tomato" opacity="0.1"/>
      <path id="Path_2076" data-name="Path 2076" d="M36.251,13.624h.138a.281.281,0,0,1-.169-.225h0c0-.178.266-.323.591-.323h4.137c.325,0,.59.145.59.323h0c0,.177-.265.323-.59.323H40.81a.278.278,0,0,1,.169.224c0,.152-.194.28-.452.314h1.191c.324,0,.59.145.59.323s-.266.323-.59.323H37.58c-.324,0-.59-.146-.59-.323,0-.152.194-.279.452-.314H36.251c-.325,0-.59-.145-.59-.323S35.925,13.624,36.251,13.624Z" transform="translate(-10.268 -5.301)" fill="tomato" opacity="0.1"/>
      <path id="Path_2077" data-name="Path 2077" d="M88.462,17.2H88.6a.281.281,0,0,1-.168-.225h0c0-.178.265-.323.59-.323h4.137c.325,0,.591.145.591.323h0c0,.177-.266.322-.591.322h-.137a.281.281,0,0,1,.168.225c0,.152-.194.28-.452.314H93.93c.325,0,.59.145.59.323s-.265.323-.59.323H89.792c-.325,0-.591-.146-.591-.323,0-.152.194-.28.452-.314H88.462c-.324,0-.59-.145-.59-.323S88.138,17.2,88.462,17.2Z" transform="translate(-17.637 -5.806)" fill="tomato" opacity="0.1"/>
      <path id="Path_2078" data-name="Path 2078" d="M28.856,32.52h.137a.28.28,0,0,1-.168-.225h0c0-.177.266-.323.59-.323h4.138c.324,0,.59.146.59.323h0c0,.178-.266.323-.59.323h-.138a.277.277,0,0,1,.168.224c0,.152-.194.28-.452.313h1.191c.325,0,.591.146.591.323s-.266.323-.591.323H30.19c-.325,0-.59-.145-.59-.323,0-.151.194-.279.452-.314H28.856c-.325,0-.591-.145-.591-.323S28.535,32.52,28.856,32.52Z" transform="translate(-9.225 -7.967)" fill="tomato" opacity="0.1"/>
      <ellipse id="Ellipse_503" data-name="Ellipse 503" cx="6.286" cy="20.685" rx="6.286" ry="20.685" transform="matrix(0.2, -0.98, 0.98, 0.2, 55.749, 56.909)" fill="tomato" opacity="0.1"/>
      <path id="Path_2079" data-name="Path 2079" d="M93.346,46.573s1.1-5.4,5.3-4.9c0,0,2.9.2,3.5,2.1v4.2Z" transform="translate(-18.409 -9.332)" fill="#3a3768"/>
      <path id="Path_2080" data-name="Path 2080" d="M107.1,45.181l-37.4-3.1-4.8,1,.3,6.7.327.04.373,10.062,36.7,6.6,3.9-3.3V52.274l.5-.293Z" transform="translate(-9.158 -5.939)" fill="#d48a9b"/>
      <path id="Path_2081" data-name="Path 2081" d="M113.4,45.69l-.1,6.8-4.05,1.9-.05-7.1Z" transform="translate(-15.411 -6.448)" opacity="0.05"/>
      <path id="Path_2082" data-name="Path 2082" d="M112.7,53.957l.049,10.7-3.9,3.3.251-12.4Z" transform="translate(-15.362 -7.615)" opacity="0.05"/>
      <path id="Path_2083" data-name="Path 2083" d="M65.676,51.5l37.357,4.558.019-.865-37.4-4.034Z" transform="translate(-9.265 -7.22)" opacity="0.05"/>
      <path id="Path_2084" data-name="Path 2084" d="M112.726,54.35v-.393l-3.7,1.633v.867Z" transform="translate(-15.386 -7.615)" opacity="0.05"/>
      <path id="Path_2085" data-name="Path 2085" d="M64.834,43.08l4.8-1,37.4,3.1-4.2,1.6Z" transform="translate(-9.15 -5.939)" fill="#efc6cd"/>
      <path id="Path_2086" data-name="Path 2086" d="M108.882,45.915l1.836.12-3.042.911-1.549-.111Z" transform="translate(-14.977 -6.48)" opacity="0.1"/>
      <path id="Path_2087" data-name="Path 2087" d="M108.882,45.821l1.836.12-3.042.911-1.549-.112Z" transform="translate(-14.977 -6.467)" fill="#fff"/>
      <path id="Path_2088" data-name="Path 2088" d="M115.175,50.083c.073-.031.149.028.226.043.045.009.09,0,.134.009.09.012.179.072.265.042" transform="translate(-21.49 -10.522)" fill="#d3dae1"/>
      <path id="Path_2089" data-name="Path 2089" d="M115.064,50.147c.072-.031.149.027.226.043.045.008.09,0,.134.008.09.013.179.073.265.043" transform="translate(-21.474 -10.531)" fill="#d3dae1"/>
      <path id="Path_2090" data-name="Path 2090" d="M114.81,50.275c.073-.031.15.027.227.042.044.009.09,0,.134.009.091.013.18.073.265.042" transform="translate(-21.438 -10.549)" fill="#d3dae1"/>
      <path id="Path_2091" data-name="Path 2091" d="M99.643,44.862l1.836.121-3.042.911-1.549-.112Z" transform="translate(-13.673 -6.331)" opacity="0.1"/>
      <path id="Path_2092" data-name="Path 2092" d="M99.643,44.77l1.836.12-3.042.911-1.549-.111Z" transform="translate(-13.673 -6.318)" fill="#fff"/>
      <path id="Path_2093" data-name="Path 2093" d="M105.937,49.032c.073-.031.149.027.226.043.045.008.09,0,.134.008.09.013.179.073.265.043" transform="translate(-20.186 -10.374)" fill="#d3dae1"/>
      <path id="Path_2094" data-name="Path 2094" d="M105.826,49.1c.072-.031.149.027.226.042.045.009.09,0,.134.009.09.013.179.073.265.042" transform="translate(-20.171 -10.383)" fill="#d3dae1"/>
      <path id="Path_2095" data-name="Path 2095" d="M105.572,49.223c.073-.031.15.028.227.043.044.009.09,0,.134.009.091.012.18.073.265.042" transform="translate(-20.135 -10.401)" fill="#d3dae1"/>
      <path id="Path_2096" data-name="Path 2096" d="M104.074,45.388l1.837.12-3.042.911-1.55-.112Z" transform="translate(-14.299 -6.406)" opacity="0.1"/>
      <path id="Path_2097" data-name="Path 2097" d="M104.074,45.3l1.837.12-3.042.911-1.55-.112Z" transform="translate(-14.299 -6.393)" fill="#fff"/>
      <path id="Path_2098" data-name="Path 2098" d="M110.367,49.558c.073-.031.15.027.227.042.044.009.089,0,.134.009.09.012.18.073.265.042" transform="translate(-20.812 -10.448)" fill="#d3dae1"/>
      <path id="Path_2099" data-name="Path 2099" d="M110.257,49.621c.073-.031.15.028.227.043.044.009.089,0,.134.009.09.012.18.073.265.042" transform="translate(-20.796 -10.457)" fill="#d3dae1"/>
      <path id="Path_2100" data-name="Path 2100" d="M110,49.749c.072-.031.149.027.226.043.045.008.09,0,.134.008.09.013.179.073.265.043" transform="translate(-20.76 -10.475)" fill="#d3dae1"/>
      <ellipse id="Ellipse_504" data-name="Ellipse 504" cx="19.592" cy="4.033" rx="19.592" ry="4.033" transform="translate(28.626 68.508)" fill="tomato" opacity="0.1"/>
      <path id="Path_2101" data-name="Path 2101" d="M81.072,46.565a13.126,13.126,0,0,0-1.036-3.589l.063-.619s.014-.31-.007-.774a3.522,3.522,0,0,1,.113-.859,1.769,1.769,0,0,0-.254-1.258,4.714,4.714,0,0,0-.36-1.816C79.209,37.072,76.67,36,76.67,36s-.136-.285-.329-.619l.017-.034a3.638,3.638,0,0,0-.581-.783c-.156-.166-.306-.261-.427-.215a3.483,3.483,0,0,1-.112-.491c.025.007.051.014.076.018a.79.79,0,0,0,.319.008.949.949,0,0,0,.524-.464,7.4,7.4,0,0,0,1.336-3.27,2.078,2.078,0,0,0-.034-.722,2.436,2.436,0,0,0-.226-.527,4.238,4.238,0,0,0-.639-.941,3.638,3.638,0,0,0-1.716-.94,5.939,5.939,0,0,0-2.216-.165c-.194.022-.387.054-.581.067a6.03,6.03,0,0,1-.736-.013l-1.267-.074-.006-.019-.211-.013a.534.534,0,0,0,.1.517.882.882,0,0,1,.214.5,1.021,1.021,0,0,1-.245.484.465.465,0,0,0-.078.506.29.29,0,0,0,.051.056.638.638,0,0,0,.465.124h.029a3.152,3.152,0,0,0-.642,1.908,3.209,3.209,0,0,0,1.75,2.843c.018.063.037.128.054.194a5.928,5.928,0,0,1,.2,2.092l-.022.048-.014-.051S70.243,37.033,69.8,37.3a2.8,2.8,0,0,0-.91,1.424c-.021.248-.72,3.984-.72,3.984a9.155,9.155,0,0,0-.35,1.153l-.891.783a13.7,13.7,0,0,1-2.371.042l.015.1a8.04,8.04,0,0,0-1.428-.194,1.514,1.514,0,0,0-.774.1l-.018.009-.015.007a3.067,3.067,0,0,0-.813.228l-.086.038.006-.127-1.989-.1-1.016-.206s-.36-.29-.572-.248-.656-.248-.656-.248a1.774,1.774,0,0,0-.327-.2c-.034-.234-.055-.376-.055-.376s-.791-3.137-1.383-4.981a4.246,4.246,0,0,0-1.3-2.1c-.15-.261-.249-.43-.249-.43a1.922,1.922,0,0,0-.512-.749c-.015-.023-.025-.035-.031-.035a.113.113,0,0,0-.057.009,6.155,6.155,0,0,1-.009-2.771A3.059,3.059,0,0,0,54.4,30.054q0-.02,0-.041v-.042a3.045,3.045,0,0,0-.719-1.964l-.033-.037.025-.02a.519.519,0,0,0,.183-.5,3.421,3.421,0,0,0-.263-.508,3.29,3.29,0,0,1-.107-.414,1.277,1.277,0,0,0-.3-.531l.015.039a1.839,1.839,0,0,0-1.619-.544c-.436.07-.843.273-1.281.336-.314.045-.635.015-.951.047a2.468,2.468,0,0,0-.844.244.484.484,0,0,0-.179.132.708.708,0,0,0-.089.249,3.285,3.285,0,0,1-.695,1,2.337,2.337,0,0,0-.468,1.291,1.01,1.01,0,0,0,.034.353c.021.069.054.134.07.2a1.4,1.4,0,0,1-.117.636,1.238,1.238,0,0,0,.069.807c.382.855,1.637,1.141,1.9,2.039a2.5,2.5,0,0,0,.628.194c.017.089.033.179.045.27l-.016.01a1.924,1.924,0,0,0-.423.968l-.041.033c-.138.114-.612.5-1.039.792-.508.351-1.355,1.528-1.947,1.879s-1.08,2.516-.952,3.3.656,2.993.444,3.8a24.67,24.67,0,0,0,.317,4.479,5.41,5.41,0,0,1,1.037.308l-.011.161-.032.484a18.462,18.462,0,0,0-.592,6.138c.367,2.67-.169,2.944-.169,2.944a3.529,3.529,0,0,1-.169,1.6,3.435,3.435,0,0,0-.339,1.321s-.028,2.037.028,2.613a4.284,4.284,0,0,1-.113,1.872,7.169,7.169,0,0,0-.536,2.366c.028.5-.705,1.625-.311,3.083s-1.161,1.486-1.161,1.486a9.993,9.993,0,0,0,.621,2.862l.062.091c-.011.037-.021.075-.033.117-.16.581-.378,1.5-.226,1.718.225.331.339.275.339.275l.084,1.486s1.693,1.431,2.992,1.377,1.044-1.377,1.044-1.377L47.452,76.6l-.038-.1,1.229-2.322s.339-1.018.423-1.376.544-1.627.544-1.627,1.161-2.752,1.185-3.083a10.685,10.685,0,0,1,.339-2.477A22.92,22.92,0,0,0,51.98,63.2l.015.014a.816.816,0,0,1,.211.812,6.486,6.486,0,0,0-.057,1.6A10.855,10.855,0,0,1,51.98,67a29.43,29.43,0,0,0,.057,5.2,14.726,14.726,0,0,1,.145,2.6c-.133.547-.249,1.226-.033,1.306a13.652,13.652,0,0,0,2.23.11s.79-.276,1.863.688,4.374-.275,4.374-.275,1.016-.276-.988-1.073a17.04,17.04,0,0,1-2.891-1.324c.014-.026.028-.052.041-.08a1.8,1.8,0,0,1-.141-2.146,5.976,5.976,0,0,0,.649-2.532l.113-4.624-.339-6.139L56.8,52.274l.046-.015c.045,1.184.276,4,1.486,3.457,1.524-.688.225-2.477.225-2.477l-.684-1.333.2-.07-.765-2.473a5.578,5.578,0,0,1-.029-1.458,5.777,5.777,0,0,0-.017-.851,15.268,15.268,0,0,1,2.135-.318c.2.049,1.34.059,1.787.061-.146.114-.263.227-.263.227l1.82,1.225s.617-.338.746-.7a.8.8,0,0,0,.341-.182c.019.423.132.881.523.891a.677.677,0,0,0,.284-.056l2.976-.589-.255,1.6.178.316c-.09,1.346-.194,2.775-.284,4.032l-.042.275.021,0c-.141,1.935-.254,3.4-.254,3.4a1.783,1.783,0,0,1,.742-.746l.019,2.872s.149,4.541.149,5.16.02,2,.02,2,.318,1.692.508,2.25a24.821,24.821,0,0,1,.339,3.1s.445.7.254.968.741.846.741.846a3.633,3.633,0,0,0-.636,1.342c0,.062.056.128.166.194-.035.028-.071.056-.11.083a1.933,1.933,0,0,1-1.283.259c-1.652-.145-2.816,1.383-1.8,1.692a24.823,24.823,0,0,0,4.064.372,2.27,2.27,0,0,1,1.645-.316c-.011.606.019,1.161.024,1.235l-.009.007a6.712,6.712,0,0,1-2.065,1.325c-1.161.392-1.419,1.982.084,2.188a13.732,13.732,0,0,0,3.7-.248,6.828,6.828,0,0,1,2.011-1.031c.868-.186,1.609-.6,1.461-1.094-.1-.316-.345-1.146-.514-1.7q-.015-.05-.029-.1c.026-.058.052-.118.076-.18,0,0-.444-2.312-.084-2.889s.169-6.358.169-6.358a4.173,4.173,0,0,1-.3-2.352c.318-.887-.508-2.147-.508-2.147a39.224,39.224,0,0,1,.332-3.931l.032-.174a7.927,7.927,0,0,0,1.18-.456s.212-3.18.339-3.9c.013-.068.03-.177.051-.319l.1-.51h0l.114-.581h0l.387-1.979.7-.9,1.8-1.838A5.819,5.819,0,0,0,81.072,46.565ZM53.317,35.212l-.014.01a.167.167,0,0,1,0-.021.087.087,0,0,0,.018.012ZM71.1,37.466l-.07.152.254-.254-.345.387.116-.244ZM69.38,41.017c-.067.177-.138.369-.213.568l.136-.407Z" transform="translate(-11.399 -7.05)" fill="url(#linear-gradient)"/>
      <path id="Path_2102" data-name="Path 2102" d="M67.132,50.212s-.237,1.578.474,1.6,1.186-1.217,1.186-1.217l-.29-.99Z" transform="translate(-14.705 -10.456)" fill="#585b8a"/>
      <path id="Path_2103" data-name="Path 2103" d="M67.132,50.212s-.237,1.578.474,1.6,1.186-1.217,1.186-1.217l-.29-.99Z" transform="translate(-14.705 -10.456)" opacity="0.2"/>
      <path id="Path_2104" data-name="Path 2104" d="M48.036,89.208c-1.266.055-2.916-1.375-2.916-1.375l-.082-1.485s-.109.055-.33-.275a3.843,3.843,0,0,1,.221-1.718c.075-.283.137-.484.137-.484l2.777.743.133.351,1.078,2.866S49.3,89.153,48.036,89.208Z" transform="translate(-11.538 -15.292)" fill="#636992"/>
      <path id="Path_2105" data-name="Path 2105" d="M62.074,84.668s-3.217,1.238-4.257.275S56,84.255,56,84.255a12.965,12.965,0,0,1-2.173-.11c-.211-.08-.1-.768.035-1.316.089-.378.186-.691.186-.691s3.162-1.073,3.658-.413a2.372,2.372,0,0,0,.527.5,15.348,15.348,0,0,0,2.883,1.367C63.064,84.392,62.074,84.668,62.074,84.668Z" transform="translate(-12.816 -14.959)" fill="#636992"/>
      <path id="Path_2106" data-name="Path 2106" d="M59.955,55.919l.88,1.76s1.266,1.788-.22,2.475-1.457-3.959-1.457-3.959Z" transform="translate(-13.584 -11.347)" fill="#ffd6d6"/>
      <path id="Path_2107" data-name="Path 2107" d="M55.795,38.148a3.589,3.589,0,0,1,1.54,2.283c.578,1.842,1.348,4.978,1.348,4.978a38.08,38.08,0,0,1,.439,4.428,5.709,5.709,0,0,0,.028,1.457l.742,2.475-1.485.523-2.283-8.745Z" transform="translate(-13.11 -8.839)" fill="#dce6f2"/>
      <path id="Path_2108" data-name="Path 2108" d="M55.795,38.148a3.589,3.589,0,0,1,1.54,2.283c.578,1.842,1.348,4.978,1.348,4.978a38.08,38.08,0,0,1,.439,4.428,5.709,5.709,0,0,0,.028,1.457l.742,2.475-1.485.523-2.283-8.745Z" transform="translate(-13.11 -8.839)" opacity="0.05"/>
      <path id="Path_2109" data-name="Path 2109" d="M47.887,84.616l.133.351-.163.311a6,6,0,0,1-2.2.055s-.29-.369-.687-.975c.075-.283.137-.484.137-.484Z" transform="translate(-11.582 -15.292)" opacity="0.1"/>
      <path id="Path_2110" data-name="Path 2110" d="M58.357,82.357c-.8,1.817-3.529,1.143-4.286.915-.125-.038-.194-.063-.194-.063s0-.148.007-.381c.089-.378.186-.691.186-.691s3.162-1.073,3.658-.413a2.372,2.372,0,0,0,.527.5.933.933,0,0,0,.1.13Z" transform="translate(-12.839 -14.959)" opacity="0.1"/>
      <path id="Path_2111" data-name="Path 2111" d="M56.858,75.871A1.828,1.828,0,0,0,57,78.016c-.8,1.816-3.529,1.143-4.286.914-.125-.037-.194-.062-.194-.062a16.752,16.752,0,0,0-.137-2.806,30.13,30.13,0,0,1-.055-5.2,11.065,11.065,0,0,0,.164-1.376,6.7,6.7,0,0,1,.055-1.595.823.823,0,0,0-.205-.811l-.015-.015a22.9,22.9,0,0,1-.825,2.419,11.122,11.122,0,0,0-.33,2.475c-.028.33-1.155,3.081-1.155,3.081s-.439,1.265-.522,1.622-.413,1.376-.413,1.376L47.753,80.6a6,6,0,0,1-2.2.055s-.3-.387-.715-1.018a10.119,10.119,0,0,1-.6-2.859,1.118,1.118,0,0,0,1.127-1.485c-.385-1.457.33-2.585.3-3.081a7.322,7.322,0,0,1,.523-2.365,4.372,4.372,0,0,0,.109-1.87c-.055-.578-.027-2.613-.027-2.613a3.493,3.493,0,0,1,.33-1.32,3.607,3.607,0,0,0,.165-1.6s.522-.275.164-2.942a18.858,18.858,0,0,1,.581-6.133l.032-.484.05-.784s7.866-.5,8.5.109a2.086,2.086,0,0,1,.4.576,5.728,5.728,0,0,1,.455,1.464l.33,8.333.33,6.133-.11,4.62A6.142,6.142,0,0,1,56.858,75.871Z" transform="translate(-11.478 -10.782)" fill="#565988"/>
      <path id="Path_2112" data-name="Path 2112" d="M55.841,60.658l-.825,17.876-.991,1.629c-.125-.037-.194-.062-.194-.062a16.752,16.752,0,0,0-.137-2.806,30.13,30.13,0,0,1-.055-5.2,11.065,11.065,0,0,0,.164-1.376,6.7,6.7,0,0,1,.055-1.595.823.823,0,0,0-.205-.811l.014-.1Z" transform="translate(-12.793 -12.016)" opacity="0.1"/>
      <path id="Path_2113" data-name="Path 2113" d="M45.86,82.9s2.145-.852,2.475-.581-2.529.687-2.529.687Z" transform="translate(-11.7 -15.066)" opacity="0.1"/>
      <path id="Path_2114" data-name="Path 2114" d="M57.869,80.383c-.082.028-2.172.774-1.98,1.568S57.869,80.383,57.869,80.383Z" transform="translate(-13.122 -14.8)" opacity="0.1"/>
      <path id="Path_2115" data-name="Path 2115" d="M50.592,32.843a4.477,4.477,0,0,1,.33,2.558c-.371.867,4,2.351,4,2.351s-1.278-3.3-.041-5.157S50.592,32.843,50.592,32.843Z" transform="translate(-12.376 -7.947)" fill="#ffd6d6"/>
      <path id="Path_2116" data-name="Path 2116" d="M79.313,89.471A6.6,6.6,0,0,0,77.354,90.5a13.053,13.053,0,0,1-3.61.248c-1.465-.206-1.216-1.795-.082-2.187a6.585,6.585,0,0,0,2.014-1.323c.186-.171.3-.29.3-.29l4.106-.825s.067.229.16.546c.164.558.407,1.387.5,1.7C80.881,88.873,80.159,89.285,79.313,89.471Z" transform="translate(-15.499 -15.61)" fill="#505484"/>
      <path id="Path_2117" data-name="Path 2117" d="M77.768,85.81a5.646,5.646,0,0,1-2.455-.226c-.722-.412-1.753.248-1.753.248a23.588,23.588,0,0,1-3.96-.372c-.99-.31.144-1.838,1.753-1.691a1.848,1.848,0,0,0,1.251-.259,1.318,1.318,0,0,0,.545-.817l3.483.206.484,1.235Z" transform="translate(-15.006 -15.125)" fill="#505484"/>
      <path id="Path_2118" data-name="Path 2118" d="M77.723,84.7s-4.048-.662-4.565-1.187a1.318,1.318,0,0,0,.545-.817l3.483.206.484,1.235Z" transform="translate(-15.56 -15.125)" opacity="0.1"/>
      <path id="Path_2119" data-name="Path 2119" d="M71.485,58.013l.042,6.043s.144,4.538.144,5.157.02,2,.02,2,.31,1.691.5,2.249a25.25,25.25,0,0,1,.33,3.1s.433.7.248.968.722.846.722.846a3.614,3.614,0,0,0-.618,1.341c-.038.536,4.619,1.3,4.619,1.3l-1.814-18.6-1.445-4.661Z" transform="translate(-15.324 -11.605)" fill="#575988"/>
      <path id="Path_2120" data-name="Path 2120" d="M71.485,58.013l.042,6.043s.144,4.538.144,5.157.02,2,.02,2,.31,1.691.5,2.249a25.25,25.25,0,0,1,.33,3.1s.433.7.248.968.722.846.722.846a3.614,3.614,0,0,0-.618,1.341c-.038.536,4.619,1.3,4.619,1.3l-1.814-18.6-1.445-4.661Z" transform="translate(-15.324 -11.605)" opacity="0.1"/>
      <path id="Path_2121" data-name="Path 2121" d="M80.721,86.676c-1.348,3.213-4.554.733-4.554.733s0-.062-.008-.168c.186-.171.3-.29.3-.29l4.106-.825S80.628,86.359,80.721,86.676Z" transform="translate(-15.984 -15.61)" opacity="0.1"/>
      <path id="Path_2122" data-name="Path 2122" d="M80.246,82.282c-1.321,3.387-4.6.846-4.6.846a11.85,11.85,0,0,1,.1-2.557,12.793,12.793,0,0,0-.227-3.218,17.343,17.343,0,0,0-.474-2.64,4.7,4.7,0,0,1-.206-1.568,2.993,2.993,0,0,0-.1-1.2,8.056,8.056,0,0,1-.29-1.568,16.54,16.54,0,0,0-.186-2.5l-.64-3.193-1.155-6.539.361-.062,6.467-1.134s1.217,6.193.8,6.827a2.664,2.664,0,0,0-.232.837c-.236,1.4-.324,3.928-.324,3.928a3.1,3.1,0,0,1,.5,2.145,4.276,4.276,0,0,0,.29,2.351s.186,5.776-.165,6.353S80.246,82.282,80.246,82.282Z" transform="translate(-15.463 -11.493)" fill="#575988"/>
      <path id="Path_2123" data-name="Path 2123" d="M80.012,36.607s-5.858,4.125-4.538,2.062a4.593,4.593,0,0,0,.3-3.594,8.48,8.48,0,0,0-.581-1.576s4.977-2.117,4.317-.22a3.555,3.555,0,0,0-.194,1.378A3.677,3.677,0,0,0,80.012,36.607Z" transform="translate(-15.848 -8.04)" fill="#d28690"/>
      <path id="Path_2124" data-name="Path 2124" d="M68.025,48.23s-2.475-.715-2.887-.014a2.1,2.1,0,0,0,.871,2.489c.747.248,2.462-.839,2.462-.839Z" transform="translate(-14.408 -10.216)" fill="#d28690"/>
      <path id="Path_2125" data-name="Path 2125" d="M71.239,46.867l-1.031.949a13.049,13.049,0,0,1-2.311.041s.475,3.177-.206,3.569l4.167-.846Z" transform="translate(-14.789 -10.069)" fill="#585b8a"/>
      <path id="Path_2126" data-name="Path 2126" d="M71.239,46.867l-1.031.949a13.049,13.049,0,0,1-2.311.041s.475,3.177-.206,3.569l4.167-.846Z" transform="translate(-14.789 -10.069)" opacity="0.1"/>
      <path id="Path_2127" data-name="Path 2127" d="M55.385,30.463a3.1,3.1,0,0,1-3.1,3.1c-1.589-.763-3.1-1.385-3.1-3.1a3.1,3.1,0,1,1,6.188,0Z" transform="translate(-12.178 -7.3)" opacity="0.1"/>
      <path id="Path_2128" data-name="Path 2128" d="M55.388,30.387a3.091,3.091,0,1,1-.7-1.957A3.091,3.091,0,0,1,55.388,30.387Z" transform="translate(-12.18 -7.308)" fill="#ffd6d6"/>
      <path id="Path_2129" data-name="Path 2129" d="M57.034,52.8a7,7,0,0,1-.959.5s-1.568-.227-1.794.041a7.457,7.457,0,0,1-2.225.372S49,53.56,48.549,53.169a1.858,1.858,0,0,0-.463-.275l.05-.784s7.866-.5,8.5.109a2.086,2.086,0,0,1,.4.576Z" transform="translate(-12.022 -10.782)" opacity="0.1"/>
      <path id="Path_2130" data-name="Path 2130" d="M57.126,49.814c-.062.35-1.341.886-1.341.886s-1.568-.226-1.794.042a7.457,7.457,0,0,1-2.225.372s-3.053-.145-3.507-.537A3.937,3.937,0,0,0,46.794,50a25.217,25.217,0,0,1-.309-4.475,14.758,14.758,0,0,0-.433-3.8c-.124-.784.35-2.949.928-3.3s1.4-1.527,1.9-1.877c.417-.3.878-.677,1.012-.792l.04-.033a1.953,1.953,0,0,1,.413-.968c.33-.328,3.361,2.083,3.361,2.083s.021.186.227-.164c.046-.078.446.5.516.742A28.632,28.632,0,0,1,56.2,40.9c.1.6.536,2.537.618,3.011.021.122.056.55.1,1.122.008.112.015.231.023.355.061.95.127,2.164.166,3.081,0,.1.009.205.012.3a10.272,10.272,0,0,1,.01,1.043Z" transform="translate(-11.732 -8.356)" fill="#dce6f2"/>
      <path id="Path_2131" data-name="Path 2131" d="M46.754,43.623S47.888,45,48.26,45,46.754,43.623,46.754,43.623Z" transform="translate(-11.834 -9.612)" opacity="0.1"/>
      <path id="Path_2132" data-name="Path 2132" d="M49.267,47.082s-1.857,2.021-1.609,2.393S49.267,47.082,49.267,47.082Z" transform="translate(-11.958 -10.1)" opacity="0.1"/>
      <path id="Path_2133" data-name="Path 2133" d="M47.95,51.25s2.129-2.331,2.225-3.135Z" transform="translate(-12.003 -10.246)" opacity="0.1"/>
      <path id="Path_2134" data-name="Path 2134" d="M51.072,51.541s2.455-1.3,2.661-2.331S51.072,51.541,51.072,51.541Z" transform="translate(-12.443 -10.372)" opacity="0.1"/>
      <path id="Path_2135" data-name="Path 2135" d="M54.643,37.312l-.341.824.567.268.557,1.558s1.537,3.073,1.475,4.672a28.318,28.318,0,0,0,.279,4l.886-.164-.418-4.7a6.782,6.782,0,0,0-.54-2.11C56.4,40.036,55.082,37.043,55,37.043c-.113,0-.034.042-.034.042Z" transform="translate(-12.899 -8.683)" opacity="0.1"/>
      <path id="Path_2136" data-name="Path 2136" d="M54.739,37.215l-.341.825.568.268.556,1.558S57.059,42.939,57,44.538a28.317,28.317,0,0,0,.279,4l.887-.164-.419-4.7a6.756,6.756,0,0,0-.539-2.11c-.708-1.623-2.026-4.615-2.108-4.615-.114,0-.035.042-.035.042Z" transform="translate(-12.913 -8.67)" fill="#575989"/>
      <path id="Path_2137" data-name="Path 2137" d="M66.152,50.9a7.732,7.732,0,0,1-1.878-.774l-.174-.1.021-1.6a2.807,2.807,0,0,1,.315-.16,1.621,1.621,0,0,1,2.242.484C67.441,50.165,66.7,50.938,66.152,50.9Z" transform="translate(-14.282 -10.234)" fill="#ffd6d6"/>
      <path id="Path_2138" data-name="Path 2138" d="M54.684,28.428a.458.458,0,0,1-.144.059c-.359.078-.767-.23-1.075-.032a.779.779,0,0,0-.256.6q-.066.581-.132,1.153a1.423,1.423,0,0,1-.085.4,1,1,0,0,1-.949.505.566.566,0,0,1-.409-.135c-.067-.068-.1-.163-.176-.224-.484-.405-.631.588-.5.871.205.462.934.907.628,1.493a.559.559,0,0,1-.224.225,3.1,3.1,0,1,1,3.327-4.91Z" transform="translate(-12.177 -7.306)" opacity="0.1"/>
      <path id="Path_2139" data-name="Path 2139" d="M51.211,30.515c.073.061.109.156.176.224a.567.567,0,0,0,.409.135.993.993,0,0,0,.948-.506,1.378,1.378,0,0,0,.086-.4l.132-1.153a.776.776,0,0,1,.256-.6c.308-.194.716.11,1.075.032a.525.525,0,0,0,.387-.606,3.409,3.409,0,0,0-.255-.507,3.313,3.313,0,0,1-.105-.413,1.638,1.638,0,0,0-1.848-1.047c-.426.071-.821.274-1.248.336-.306.045-.618.015-.927.048a2.34,2.34,0,0,0-.822.243.478.478,0,0,0-.174.132.727.727,0,0,0-.087.248,3.308,3.308,0,0,1-.677,1,2.379,2.379,0,0,0-.459,1.288,1.033,1.033,0,0,0,.033.353c.02.068.052.134.068.2a1.416,1.416,0,0,1-.114.635,1.269,1.269,0,0,0,.068.807c.372.854,1.6,1.14,1.85,2.037a2.032,2.032,0,0,0,.72.194.694.694,0,0,0,.635-.324c.3-.581-.423-1.031-.628-1.492C50.58,31.1,50.724,30.108,51.211,30.515Z" transform="translate(-12.014 -7.076)" fill="#353045"/>
      <path id="Path_2140" data-name="Path 2140" d="M79.518,33.28a3.555,3.555,0,0,0-.194,1.378c-.149.127-.312-.253-.484-.155-.472.273-1.018.922-1.6.922a3.21,3.21,0,0,1-1.458-.349A8.481,8.481,0,0,0,75.2,33.5S80.178,31.382,79.518,33.28Z" transform="translate(-15.848 -8.04)" opacity="0.1"/>
      <path id="Path_2141" data-name="Path 2141" d="M80.258,31.44a3.218,3.218,0,1,1-3.218-3.218A3.218,3.218,0,0,1,80.258,31.44Z" transform="translate(-15.654 -7.438)" fill="#d28690"/>
      <path id="Path_2142" data-name="Path 2142" d="M79.85,37.818s-.606.66-.688.714-1.838,7.451-1.869,7.537S75.2,52.833,75.2,52.833l-3.3,1.623.276-8.169L74.6,39.551s.8-.908,1.045-1.238S78.968,36,78.968,36l.526,1.085Z" transform="translate(-15.383 -8.536)" fill="#f0f3f7"/>
      <path id="Path_2143" data-name="Path 2143" d="M80.014,37.28,76.219,40l-.061-1.492c.248-.33,3.328-2.31,3.328-2.31Z" transform="translate(-15.984 -8.563)" opacity="0.1"/>
      <path id="Path_2144" data-name="Path 2144" d="M80.11,37.087,76.315,39.8l-.059-1.491C76.5,37.982,79.584,36,79.584,36Z" transform="translate(-15.998 -8.536)" fill="#f0f3f7"/>
      <path id="Path_2145" data-name="Path 2145" d="M75.341,37.92l.127.664-.849.862L75.3,37.93s-1.451,1.011-1.887,1.279a2.755,2.755,0,0,0-.887,1.423c-.016.248-.7,3.981-.7,3.981a4.862,4.862,0,0,0-.371,1.774c.145.392-.784,12.747-.784,12.747a1.838,1.838,0,0,1,1.24-.951l-.331-7.3s.4-4.857.423-4.919l.939-2.878Z" transform="translate(-15.209 -8.807)" fill="#585b8a"/>
      <path id="Path_2146" data-name="Path 2146" d="M75.626,38.789l-.066,1.355a33.124,33.124,0,0,1-1.227,3.372,33.854,33.854,0,0,0-1.248,3.3l-.529,4.91-.908.413-.447-.823.743-4.741s1.4-4,1.609-4.414l1.034-2.179Z" transform="translate(-15.284 -8.929)" opacity="0.1"/>
      <path id="Path_2147" data-name="Path 2147" d="M75.529,38.693l-.065,1.355a32.931,32.931,0,0,1-1.228,3.372,33.555,33.555,0,0,0-1.247,3.3l-.526,4.909-.908.412-.454-.824.743-4.741s1.4-4,1.608-4.414l1.042-2.176Z" transform="translate(-15.27 -8.916)" fill="#663d5c"/>
      <path id="Path_2148" data-name="Path 2148" d="M63.8,50.658l1.774,1.228s1.251-.7.523-1.155a3.231,3.231,0,0,0-1.609-.523C64.253,50.208,63.8,50.658,63.8,50.658Z" transform="translate(-14.24 -10.541)" fill="#d28690"/>
      <path id="Path_2149" data-name="Path 2149" d="M65.322,48.062a.273.273,0,0,0-.129.233c0,.376.043,1.373.358.923.387-.551.316-1.045.908-.688a3.483,3.483,0,0,1,.948.871l-.165-1.182S66.027,47.619,65.322,48.062Z" transform="translate(-14.436 -10.215)" fill="#d28690"/>
      <path id="Path_2150" data-name="Path 2150" d="M80.152,63.779a2.663,2.663,0,0,0-.232.837,6.991,6.991,0,0,1-6.263-1.209,31.564,31.564,0,0,1-.784-3.3,10.752,10.752,0,0,1,.01-2.022l6.467-1.134S80.565,63.14,80.152,63.779Z" transform="translate(-15.514 -11.493)" opacity="0.1"/>
      <path id="Path_2151" data-name="Path 2151" d="M83.864,42.357a6.411,6.411,0,0,0-.1,1.629L82.276,51s-.722,5.4-.846,6.126-.33,3.9-.33,3.9a6.986,6.986,0,0,1-7.451-.742,31.622,31.622,0,0,1-.784-3.3c-.207-1.225.4-6.133.691-8.313.086-.645.144-1.052.144-1.052L74.784,43.6s1.33-3.393,1.826-4.383A24.757,24.757,0,0,1,79.095,36c.247-.157.642.4.935.9.222.381.387.735.387.735s2.475,1.072,2.846,1.645a4.826,4.826,0,0,1,.351,1.815A1.818,1.818,0,0,1,83.864,42.357Z" transform="translate(-15.513 -8.532)" fill="#585b8a"/>
      <path id="Path_2152" data-name="Path 2152" d="M78.162,39.876s.186,1.093-.29,1.423c-.46.319-3.881,7.047-4.094,7.467.086-.646.144-1.053.144-1.053L75,43.692s1.331-3.393,1.826-4.384a24.586,24.586,0,0,1,2.486-3.213c.247-.157.641.4.934.9C79.808,37.913,78.886,39.649,78.162,39.876Z" transform="translate(-15.648 -8.545)" opacity="0.1"/>
      <path id="Path_2153" data-name="Path 2153" d="M78.066,39.78s.185,1.093-.29,1.423-3.88,7.046-4.1,7.466c.086-.645.144-1.052.144-1.052L74.907,43.6s1.33-3.393,1.826-4.383A24.758,24.758,0,0,1,79.217,36c.247-.157.642.4.935.9C79.712,37.816,78.789,39.553,78.066,39.78Z" transform="translate(-15.634 -8.532)" fill="#585b8a"/>
      <path id="Path_2154" data-name="Path 2154" d="M76.491,47.578l-1.164,6.056h0l-.111.58h0l-.251,1.3L73.9,55.292l-.5-.105-6.9-1.461-.507-.107-1.157-.245.226-1.5.094-.625.835-5.544Z" transform="translate(-9.15 -6.45)" fill="tomato"/>
      <path id="Path_2155" data-name="Path 2155" d="M76.642,57.673s-2.743.99-2.145,2.166,4.435-.908,4.435-.908Z" transform="translate(-15.737 -11.595)" fill="#d28690"/>
      <path id="Path_2156" data-name="Path 2156" d="M79.29,67.495A2.8,2.8,0,0,0,79.806,69C80.218,69.371,79.29,67.495,79.29,67.495Z" transform="translate(-16.426 -12.981)" opacity="0.1"/>
      <path id="Path_2157" data-name="Path 2157" d="M76.073,71.841a3.558,3.558,0,0,0,2.454,1.919C80.486,74.317,76.073,71.841,76.073,71.841Z" transform="translate(-15.972 -13.594)" opacity="0.1"/>
      <path id="Path_2158" data-name="Path 2158" d="M80.361,31.441a3.217,3.217,0,0,1-1.613,2.79,1.713,1.713,0,0,1-.484-.4.625.625,0,0,1-.165-.606c.068-.164.247-.267.29-.436a.642.642,0,0,0-.015-.312c-.036-.16-.07-.319-.1-.478-.03-.135-.083-.3-.218-.328s-.247.079-.352.163a1.1,1.1,0,0,1-1.064.175c-.311-.167-.224-.728-.274-1.031a.18.18,0,0,0-.068-.136.283.283,0,0,0-.14-.01.4.4,0,0,1-.35-.311,2.673,2.673,0,0,1-.056-.5.556.556,0,0,0-.223-.431.688.688,0,0,0-.367-.06l-.607.007a3.218,3.218,0,0,1,5.806,1.908Z" transform="translate(-15.757 -7.439)" opacity="0.1"/>
      <path id="Path_2159" data-name="Path 2159" d="M77.693,31.687c.105-.083.222-.194.352-.162s.187.194.217.327l.1.477a.648.648,0,0,1,.016.313c-.049.17-.227.273-.3.436a.625.625,0,0,0,.165.6,1.742,1.742,0,0,0,1,.6.732.732,0,0,0,.311.007.919.919,0,0,0,.511-.463,7.506,7.506,0,0,0,1.3-3.268,2.1,2.1,0,0,0-.033-.721,2.42,2.42,0,0,0-.221-.527,4.258,4.258,0,0,0-.622-.941,3.534,3.534,0,0,0-1.672-.938,5.662,5.662,0,0,0-2.159-.169c-.194.022-.379.054-.57.067a5.736,5.736,0,0,1-.718-.012l-1.424-.085a.553.553,0,0,0,.1.517.927.927,0,0,1,.209.5,1.027,1.027,0,0,1-.239.484.476.476,0,0,0-.076.506.541.541,0,0,0,.484.159l.718-.008a.686.686,0,0,1,.365.063.558.558,0,0,1,.223.431,2.847,2.847,0,0,0,.056.5.4.4,0,0,0,.35.311.261.261,0,0,1,.14.011.178.178,0,0,1,.068.135c.05.3-.043.862.274,1.03A1.114,1.114,0,0,0,77.693,31.687Z" transform="translate(-15.664 -7.297)" fill="#663d5c"/>
      <path id="Path_2160" data-name="Path 2160" d="M82.077,39.82a1.577,1.577,0,0,0-1.659,1.06c-.387,1.1-1.032,3.091-.871,3.876.227,1.114.5,2.971.5,2.971s1.176.677.581,1.36a3.853,3.853,0,0,0-.763,1.651,1.716,1.716,0,0,0-.928,1.031,4.772,4.772,0,0,1-1.279,1.67l-1.67,1.671s2.763,2.806,3.321,2.949l1.712-2,2.021-2.681,1.753-1.838A6.036,6.036,0,0,0,85,48.733a13.429,13.429,0,0,0-1.011-3.589l.062-.619S84.236,40.089,82.077,39.82Z" transform="translate(-15.959 -9.074)" opacity="0.1"/>
      <path id="Path_2161" data-name="Path 2161" d="M82.269,39.821a1.577,1.577,0,0,0-1.658,1.06c-.387,1.1-1.032,3.091-.871,3.876.226,1.114.494,2.971.494,2.971s1.176.677.581,1.36a3.845,3.845,0,0,0-.762,1.651,1.719,1.719,0,0,0-.929,1.031,4.785,4.785,0,0,1-1.278,1.67l-1.671,1.671s2.763,2.806,3.321,2.949l1.712-2,2.016-2.681,1.753-1.838a6.02,6.02,0,0,0,.206-2.806,13.488,13.488,0,0,0-1.01-3.589l.062-.619S84.428,40.089,82.269,39.821Z" transform="translate(-15.986 -9.074)" fill="#585b8a"/>
      <path id="Path_2162" data-name="Path 2162" d="M81.259,47.13s1.753,2.144,2.5,1.67S81.259,47.13,81.259,47.13Z" transform="translate(-16.704 -10.107)" opacity="0.1"/>
      <path id="Path_2163" data-name="Path 2163" d="M82.028,45.208c.186.062,1.713,2.187,2.5,1.935S82.028,45.208,82.028,45.208Z" transform="translate(-16.812 -9.835)" opacity="0.1"/>
      <path id="Path_2164" data-name="Path 2164" d="M82.533,49.458a1.148,1.148,0,0,0,1.361,1.052C85.152,50.344,82.533,49.458,82.533,49.458Z" transform="translate(-16.883 -10.435)" opacity="0.1"/>
      <path id="Path_2165" data-name="Path 2165" d="M69.852,34l-.68,1.516.85-.862Z" transform="translate(-9.762 -4.799)" opacity="0.1"/>
      <path id="Path_2166" data-name="Path 2166" d="M69.852,33.908l-.68,1.516.85-.862Z" transform="translate(-9.762 -4.785)" fill="#f0f3f7"/>
      <path id="Path_2167" data-name="Path 2167" d="M66.538,54.637l-.507-.107L65.1,52.781l.094-.625Z" transform="translate(-9.187 -7.361)" opacity="0.3"/>
      <path id="Path_2168" data-name="Path 2168" d="M76.733,54.939l-.111.58h0L75.3,56.6l-.5-.105Z" transform="translate(-10.557 -7.753)" opacity="0.3"/>
      <path id="Path_2169" data-name="Path 2169" d="M57.3,49.345c-.255.043-.5.081-.73.11-1.258.165-4.25-1.32-4.25-1.32s-3.651-3.053-4.7-5.94,1.258-3.321,1.258-3.321c.871-.5,2.764.886,3.032,1.114a1.722,1.722,0,0,1,.474,1.176c-.021.372.619.846.619.846a18.368,18.368,0,0,0,1.361,2.1,1.076,1.076,0,0,1,.412.743c.082.351.8.64,1.114.618s.677.1.677.268c0,.133.3.2.552.22C57.19,47.02,57.263,48.406,57.3,49.345Z" transform="translate(-11.917 -8.927)" opacity="0.1"/>
      <path id="Path_2170" data-name="Path 2170" d="M57.314,48.989c-.194.031-.379.059-.553.082-1.258.165-4.249-1.32-4.249-1.32s-3.651-3.053-4.7-5.94,1.258-3.321,1.258-3.321c.871-.5,2.763.886,3.032,1.114a1.728,1.728,0,0,1,.475,1.176c-.02.372.618.846.618.846a18.368,18.368,0,0,0,1.361,2.1,1.081,1.081,0,0,1,.413.743c.083.351.8.639,1.114.618s.677.1.677.268c0,.1.172.162.364.194.008.112.015.231.023.355C57.209,46.859,57.275,48.072,57.314,48.989Z" transform="translate(-11.944 -8.872)" opacity="0.1"/>
      <path id="Path_2171" data-name="Path 2171" d="M64.437,48.313l-.078,1.854h-.084l-.174-.1.021-1.6A2.807,2.807,0,0,1,64.437,48.313Z" transform="translate(-14.282 -10.274)" opacity="0.1"/>
      <path id="Path_2172" data-name="Path 2172" d="M48.875,38.682s-2.31.433-1.258,3.321,4.7,5.941,4.7,5.941,2.991,1.484,4.25,1.32,3.176-.6,3.423-.536,1.919.062,1.919.062l.082-1.935-1.935-.1-.99-.206s-.351-.29-.557-.248-.639-.248-.639-.248a1.233,1.233,0,0,0-.581-.268c-.25,0-.722-.062-.722-.226s-.372-.29-.677-.268-1.036-.268-1.121-.623a1.077,1.077,0,0,0-.412-.742A18.37,18.37,0,0,1,53,41.817s-.64-.474-.619-.845A1.731,1.731,0,0,0,51.9,39.8C51.636,39.569,49.74,38.188,48.875,38.682Z" transform="translate(-11.917 -8.899)" fill="#dce6f2"/>
      <path id="Path_2173" data-name="Path 2173" d="M55.929,46.433s-.887.887-.661,1.052Z" transform="translate(-13.03 -10.008)" opacity="0.1"/>
      <path id="Path_2174" data-name="Path 2174" d="M57,47.25s-1.155.887-.846.949S57,47.25,57,47.25Z" transform="translate(-13.153 -10.124)" opacity="0.1"/>
      <path id="Path_2175" data-name="Path 2175" d="M54.865,48.782c.165.083,2.619,1.548,3.548,1.527Z" transform="translate(-12.979 -10.34)" opacity="0.1"/>
      <path id="Path_2176" data-name="Path 2176" d="M54.432,37.032s-.433,1.423-.6,1.423c-.13,0-2.307-1.763-3.215-2.5l.04-.033a1.947,1.947,0,0,1,.412-.968C51.4,34.623,54.432,37.032,54.432,37.032Z" transform="translate(-12.379 -8.384)" opacity="0.1"/>
      <path id="Path_2177" data-name="Path 2177" d="M54.336,36.84s-.433,1.423-.6,1.423c-.131,0-2.308-1.763-3.216-2.5l.04-.033a1.953,1.953,0,0,1,.413-.968C51.3,34.43,54.336,36.84,54.336,36.84Z" transform="translate(-12.366 -8.356)" fill="#dce6f2"/>
      <g id="Group_1263" data-name="Group 1263" transform="translate(36.129 19.108)" opacity="0.15">
        <path id="Path_2178" data-name="Path 2178" d="M48.161,31.831h0c.29.663,1.09.984,1.553,1.512C49.438,32.694,48.632,32.376,48.161,31.831Z" transform="translate(-48.161 -27.056)"/>
        <path id="Path_2179" data-name="Path 2179" d="M51.4,33.517a.7.7,0,0,1-.635.324,1.852,1.852,0,0,1-.637-.163,1.238,1.238,0,0,1,.164.35,2.022,2.022,0,0,0,.72.194.689.689,0,0,0,.635-.324c.185-.353-.008-.655-.233-.941A.614.614,0,0,1,51.4,33.517Z" transform="translate(-48.438 -27.215)"/>
        <path id="Path_2180" data-name="Path 2180" d="M55.086,27.724a3.318,3.318,0,0,0-.255-.507,3.166,3.166,0,0,1-.105-.414,1.283,1.283,0,0,0-.3-.531,1.234,1.234,0,0,1,.049.146,3.329,3.329,0,0,0,.108.416,3.318,3.318,0,0,1,.255.507.525.525,0,0,1-.387.606c-.358.078-.766-.231-1.074-.032a.773.773,0,0,0-.257.6q-.065.581-.132,1.154a1.384,1.384,0,0,1-.085.4,1,1,0,0,1-.949.506.57.57,0,0,1-.408-.135,2.7,2.7,0,0,0-.177-.224c-.484-.406-.631.587-.5.871a1.753,1.753,0,0,0,.236.355c-.106-.319.043-1.239.515-.845a2.5,2.5,0,0,1,.176.224.574.574,0,0,0,.409.135,1,1,0,0,0,.949-.506,1.384,1.384,0,0,0,.085-.4q.066-.581.132-1.153a.775.775,0,0,1,.256-.6c.309-.2.717.11,1.075.031a.524.524,0,0,0,.384-.6Z" transform="translate(-48.537 -26.271)"/>
      </g>
      <path id="Path_2181" data-name="Path 2181" d="M79.761,34.036a.748.748,0,0,1-.311-.008,1.742,1.742,0,0,1-.995-.594.623.623,0,0,1-.165-.606c.068-.164.246-.266.29-.436a.648.648,0,0,0-.016-.313l-.1-.477c-.03-.135-.082-.3-.217-.327s-.247.078-.352.162a1.1,1.1,0,0,1-1.064.175c-.31-.168-.224-.728-.274-1.031a.181.181,0,0,0-.068-.135.276.276,0,0,0-.141-.011.405.405,0,0,1-.35-.311,2.748,2.748,0,0,1-.055-.5.558.558,0,0,0-.224-.431.7.7,0,0,0-.365-.063l-.718.008c-.177,0-.387-.012-.484-.159a.482.482,0,0,1,.076-.506,1,1,0,0,0,.239-.484.91.91,0,0,0-.209-.5.9.9,0,0,1-.122-.277l-.206-.013a.557.557,0,0,0,.1.517.923.923,0,0,1,.209.5,1.027,1.027,0,0,1-.239.484.474.474,0,0,0-.075.506.541.541,0,0,0,.484.16l.718-.009a.7.7,0,0,1,.365.064.555.555,0,0,1,.224.431,2.673,2.673,0,0,0,.056.5.4.4,0,0,0,.35.31.283.283,0,0,1,.14.011.182.182,0,0,1,.068.136c.05.3-.043.862.274,1.031a1.1,1.1,0,0,0,1.064-.175c.105-.083.223-.194.353-.163s.187.194.216.327l.105.478a.647.647,0,0,1,.015.313c-.048.169-.227.273-.3.435a.625.625,0,0,0,.165.606,1.742,1.742,0,0,0,1,.594.748.748,0,0,0,.311.008.73.73,0,0,0,.4-.306A.538.538,0,0,1,79.761,34.036Z" transform="translate(-15.661 -7.295)" opacity="0.1"/>
      <ellipse id="Ellipse_505" data-name="Ellipse 505" cx="2.339" cy="0.359" rx="2.339" ry="0.359" transform="translate(17.37 68.757)" fill="tomato" opacity="0.1"/>
      <ellipse id="Ellipse_506" data-name="Ellipse 506" cx="2.339" cy="0.359" rx="2.339" ry="0.359" transform="translate(99.029 59.424)" fill="tomato" opacity="0.1"/>
      <ellipse id="Ellipse_507" data-name="Ellipse 507" cx="6.773" cy="1.039" rx="6.773" ry="1.039" transform="translate(70.751 73.209)" fill="tomato" opacity="0.1"/>
      <ellipse id="Ellipse_508" data-name="Ellipse 508" cx="5.283" cy="0.811" rx="5.283" ry="0.811" transform="translate(91.496 69.035)" fill="tomato" opacity="0.1"/>
      <ellipse id="Ellipse_509" data-name="Ellipse 509" cx="8.959" cy="1.375" rx="8.959" ry="1.375" transform="translate(86.95 76.55)" fill="tomato" opacity="0.1"/>
      <ellipse id="Ellipse_510" data-name="Ellipse 510" cx="6.773" cy="1.039" rx="6.773" ry="1.039" transform="translate(2.926 78.096)" fill="tomato" opacity="0.1"/>
      <path id="Path_2182" data-name="Path 2182" d="M29.048,71.184s.265.346-.122.871-.706.968-.581,1.291c0,0,.581-.968,1.064-.985S29.571,71.769,29.048,71.184Z" transform="translate(-9.232 -13.501)" fill="tomato"/>
      <path id="Path_2183" data-name="Path 2183" d="M29.051,71.184a.387.387,0,0,1,.054.108c.464.546.711,1.054.265,1.064-.415.012-.913.755-1.032.942a.361.361,0,0,0,.014.043s.581-.968,1.064-.985S29.574,71.769,29.051,71.184Z" transform="translate(-9.235 -13.501)" opacity="0.1"/>
      <path id="Path_2184" data-name="Path 2184" d="M29.732,71.685c0,.122-.015.221-.031.221s-.031-.1-.031-.221.017-.064.034-.064S29.732,71.563,29.732,71.685Z" transform="translate(-9.423 -13.561)" fill="#ffd037"/>
      <path id="Path_2185" data-name="Path 2185" d="M29.9,71.854c-.106.058-.2.1-.208.078s.072-.074.179-.133.065-.015.073,0S30.011,71.8,29.9,71.854Z" transform="translate(-9.427 -13.584)" fill="#ffd037"/>
      <path id="Path_2186" data-name="Path 2186" d="M27.441,71.184s-.265.346.122.871.707.968.581,1.291c0,0-.581-.968-1.06-.985S26.915,71.769,27.441,71.184Z" transform="translate(-9.024 -13.501)" fill="tomato"/>
      <path id="Path_2187" data-name="Path 2187" d="M27.441,71.184a.427.427,0,0,0-.054.108c-.464.546-.711,1.054-.265,1.064.415.012.913.755,1.033.942a.369.369,0,0,1-.015.043s-.581-.968-1.06-.985S26.914,71.769,27.441,71.184Z" transform="translate(-9.024 -13.501)" opacity="0.1"/>
      <path id="Path_2188" data-name="Path 2188" d="M26.965,71.685c0,.122.014.221.03.221s.031-.1.031-.221-.017-.064-.034-.064S26.965,71.563,26.965,71.685Z" transform="translate(-9.041 -13.561)" fill="#ffd037"/>
      <path id="Path_2189" data-name="Path 2189" d="M26.757,71.854c.107.058.2.1.209.078s-.073-.074-.18-.133-.065-.015-.073,0S26.65,71.8,26.757,71.854Z" transform="translate(-9.003 -13.584)" fill="#ffd037"/>
      <ellipse id="Ellipse_511" data-name="Ellipse 511" cx="2.77" cy="0.425" rx="2.77" ry="0.425" transform="translate(16.346 61.644)" fill="tomato" opacity="0.1"/>
      <path id="Path_2190" data-name="Path 2190" d="M29.545,73.129l-.014.108-.018.153-.008.064-.018.153-.009.064-.018.153-.212,1.742c-.018.155-.272.276-.581.276h-1.1c-.306,0-.559-.121-.581-.276l-.212-1.742-.018-.153-.008-.064-.019-.153-.008-.064-.018-.153-.014-.108c-.011-.088.127-.162.3-.162h2.254C29.418,72.968,29.556,73.041,29.545,73.129Z" transform="translate(-9.003 -13.753)" fill="#65617d"/>
      <path id="Path_2191" data-name="Path 2191" d="M23.438,69.259l-.018.153H20.631l-.018-.153Z" transform="translate(-2.909 -9.774)" fill="#9d9cb5"/>
      <path id="Path_2192" data-name="Path 2192" d="M23.416,69.511l-.018.153H20.662l-.019-.153Z" transform="translate(-2.913 -9.81)" fill="#9d9cb5"/>
      <path id="Path_2193" data-name="Path 2193" d="M23.394,69.764l-.019.153H20.693l-.018-.153Z" transform="translate(-2.918 -9.846)" fill="#9d9cb5"/>
      <path id="Path_2194" data-name="Path 2194" d="M121.968,69.624s-.331,1.54,1.141,1.722l.091-.171S122.059,70.1,121.968,69.624Z" transform="translate(-22.444 -13.281)" fill="tomato"/>
      <path id="Path_2195" data-name="Path 2195" d="M123.743,71.035l-.343.073-.034.008a3.092,3.092,0,0,1-.9-2.4,4.084,4.084,0,0,0,.436.69A4.125,4.125,0,0,1,123.743,71.035Z" transform="translate(-22.519 -13.153)" fill="tomato"/>
      <path id="Path_2196" data-name="Path 2196" d="M123.954,71.1a.215.215,0,0,1-.184.024c-.879-.205-.581-3.068-.581-3.068.048.022.1.387.3.857C123.846,69.738,124.236,70.893,123.954,71.1Z" transform="translate(-22.614 -13.06)" fill="tomato"/>
      <path id="Path_2197" data-name="Path 2197" d="M126.109,69.624a1.65,1.65,0,0,1-1.415,1.722l-.092-.174S126.018,70.1,126.109,69.624Z" transform="translate(-22.82 -13.281)" fill="tomato"/>
      <path id="Path_2198" data-name="Path 2198" d="M125.61,68.723a2.849,2.849,0,0,1-1.175,2.4l-.035-.008-.342-.073a4.173,4.173,0,0,1,.841-1.626A3.723,3.723,0,0,1,125.61,68.723Z" transform="translate(-22.744 -13.154)" fill="tomato"/>
      <path id="Path_2199" data-name="Path 2199" d="M124.361,70.951a.534.534,0,0,1-.194.15h0a.376.376,0,0,1-.073.024c-.216.05-.29-.105-.279-.371a6.858,6.858,0,0,1,.581-1.9,2.376,2.376,0,0,1,.552-.8S124.935,70.285,124.361,70.951Z" transform="translate(-22.709 -13.06)" fill="tomato"/>
      <path id="Path_2200" data-name="Path 2200" d="M124.086,66.886s-.981,3.483-.136,4S124.3,67.194,124.086,66.886Z" transform="translate(-22.68 -12.895)" fill="tomato"/>
      <path id="Path_2201" data-name="Path 2201" d="M121.968,69.624s-.331,1.54,1.141,1.722l.091-.171S122.059,70.1,121.968,69.624Z" transform="translate(-22.444 -13.281)" opacity="0.1"/>
      <path id="Path_2202" data-name="Path 2202" d="M123.743,71.035l-.343.073-.034.008a3.092,3.092,0,0,1-.9-2.4,4.084,4.084,0,0,0,.436.69A4.125,4.125,0,0,1,123.743,71.035Z" transform="translate(-22.519 -13.153)" opacity="0.1"/>
      <path id="Path_2203" data-name="Path 2203" d="M123.954,71.1a.215.215,0,0,1-.184.024c-.879-.205-.581-3.068-.581-3.068.048.022.1.387.3.857C123.846,69.738,124.236,70.893,123.954,71.1Z" transform="translate(-22.614 -13.06)" opacity="0.1"/>
      <path id="Path_2204" data-name="Path 2204" d="M126.109,69.624a1.65,1.65,0,0,1-1.415,1.722l-.092-.174S126.018,70.1,126.109,69.624Z" transform="translate(-22.82 -13.281)" opacity="0.1"/>
      <path id="Path_2205" data-name="Path 2205" d="M125.61,68.723a2.849,2.849,0,0,1-1.175,2.4l-.035-.008-.342-.073a4.173,4.173,0,0,1,.841-1.626A3.723,3.723,0,0,1,125.61,68.723Z" transform="translate(-22.744 -13.154)" opacity="0.1"/>
      <path id="Path_2206" data-name="Path 2206" d="M124.361,70.951a.534.534,0,0,1-.194.15h0a.376.376,0,0,1-.073.024c-.216.05-.29-.105-.279-.371a6.858,6.858,0,0,1,.581-1.9,2.376,2.376,0,0,1,.552-.8S124.935,70.285,124.361,70.951Z" transform="translate(-22.709 -13.06)" opacity="0.1"/>
      <path id="Path_2207" data-name="Path 2207" d="M124.086,66.886s-.981,3.483-.136,4S124.3,67.194,124.086,66.886Z" transform="translate(-22.68 -12.895)" opacity="0.1"/>
      <path id="Path_2208" data-name="Path 2208" d="M121.972,69.624a1.5,1.5,0,0,0,1.277,1.722l.091-.171S122.063,70.1,121.972,69.624Z" transform="translate(-22.448 -13.281)" fill="tomato"/>
      <path id="Path_2209" data-name="Path 2209" d="M123.879,71.035l-.343.073-.034.008a2.942,2.942,0,0,1-1.041-2.393s.269.29.573.69A4.066,4.066,0,0,1,123.879,71.035Z" transform="translate(-22.518 -13.154)" fill="tomato"/>
      <path id="Path_2210" data-name="Path 2210" d="M123.974,71.148l-.343.073a2.812,2.812,0,0,1-.5-1.7A4.125,4.125,0,0,1,123.974,71.148Z" transform="translate(-22.613 -13.267)" opacity="0.1"/>
      <path id="Path_2211" data-name="Path 2211" d="M124.1,71.1a.217.217,0,0,1-.185.024c-.879-.205-.718-3.068-.718-3.068a3.975,3.975,0,0,1,.44.857C123.99,69.738,124.379,70.893,124.1,71.1Z" transform="translate(-22.62 -13.06)" fill="tomato"/>
      <path id="Path_2212" data-name="Path 2212" d="M126.131,69.624a1.5,1.5,0,0,1-1.277,1.722l-.091-.171S126.04,70.1,126.131,69.624Z" transform="translate(-22.843 -13.281)" fill="tomato"/>
      <path id="Path_2213" data-name="Path 2213" d="M125.633,68.723a2.937,2.937,0,0,1-1.038,2.4l-.034-.008-.343-.073a4.163,4.163,0,0,1,.842-1.626C125.364,69.013,125.633,68.723,125.633,68.723Z" transform="translate(-22.766 -13.154)" fill="tomato"/>
      <path id="Path_2214" data-name="Path 2214" d="M125.06,69.523a3.165,3.165,0,0,1-.436,1.634.492.492,0,0,1-.063.064l-.343-.073A4.112,4.112,0,0,1,125.06,69.523Z" transform="translate(-22.766 -13.267)" opacity="0.1"/>
      <path id="Path_2215" data-name="Path 2215" d="M124.52,70.951a.523.523,0,0,1-.194.15h0a.386.386,0,0,1-.072.024c-.217.05-.29-.105-.28-.371a6.924,6.924,0,0,1,.581-1.9,3.722,3.722,0,0,1,.415-.8S125.094,70.285,124.52,70.951Z" transform="translate(-22.732 -13.06)" fill="tomato"/>
      <path id="Path_2216" data-name="Path 2216" d="M124.163,71.241a.232.232,0,0,1-.139-.045c-.413-.257-.422-1.223-.323-2.142C124.055,69.879,124.444,71.034,124.163,71.241Z" transform="translate(-22.686 -13.201)" opacity="0.1"/>
      <path id="Path_2217" data-name="Path 2217" d="M124.52,71.082c-.047.1-.111.158-.194.15h0a.26.26,0,0,1-.117-.045.625.625,0,0,1-.234-.3,6.924,6.924,0,0,1,.581-1.9A5.4,5.4,0,0,1,124.52,71.082Z" transform="translate(-22.732 -13.191)" opacity="0.1"/>
      <path id="Path_2218" data-name="Path 2218" d="M124.1,66.886s-.844,3.483,0,4S124.32,67.194,124.1,66.886Z" transform="translate(-22.697 -12.895)" fill="tomato"/>
      <path id="Path_2219" data-name="Path 2219" d="M119.378,67.327h-3.513v.582h.536l.014.069.215,1.129h2.043l.215-1.129.013-.069h.479Z" transform="translate(-16.352 -9.502)" fill="#4b4770"/>
      <path id="Path_2220" data-name="Path 2220" d="M119.378,67.327h-3.513v.582h.536l.014.069.215,1.129h2.043l.215-1.129.013-.069h.479Z" transform="translate(-16.352 -9.502)" opacity="0.1"/>
      <path id="Path_2221" data-name="Path 2221" d="M119.184,67.724l-.059.309-.215,1.129h-2.043l-.215-1.129-.059-.309Z" transform="translate(-16.455 -9.558)" fill="#4b4770"/>
      <path id="Path_2222" data-name="Path 2222" d="M119.184,67.724l-.059.309h-2.472l-.059-.309Z" transform="translate(-16.455 -9.558)" opacity="0.1"/>
      <rect id="Rectangle_348" data-name="Rectangle 348" width="3.513" height="0.582" transform="translate(99.649 57.825)" fill="#4b4770"/>
      <path id="Path_2223" data-name="Path 2223" d="M20.808,82.818a1.688,1.688,0,0,0-.221.416c-.014.036-.027.077-.041.117a.422.422,0,0,0-.076-.027,1.064,1.064,0,0,0-.345-.029c0-.045.006-.1.007-.142.015-.51-.045-1.22-.532-.919-.466.29-.134.774.167,1.084.026.027.052.052.077.076-.275.194-.327.651-.373,1.126a2.626,2.626,0,0,1-.717,1.29c-.027.03-.051.057-.075.082a.982.982,0,0,0-.779-.2c-.011-.042-.023-.085-.036-.131-.217-.783-.667-2.138-1.24-2.435l.075-.1c.244-.318.519-.792.113-.913s-.442.41-.42.809q.006.075.012.142a.593.593,0,0,0-.424.207l-.063-.075c-.329-.387-.932-1-1.115-.538-.17.433.361,1,.734,1.323l.023.02c-.251,1.017.844,1.846,1.433,2.209l.076.046a8.889,8.889,0,0,0-1.315,2.754l2.276.406s1.509-1.3,1.316-2.525h.015a2.3,2.3,0,0,0,1.616-2.865l.027-.011a1.708,1.708,0,0,0,.7-.528A.56.56,0,0,0,20.808,82.818Z" transform="translate(-7.32 -15.042)" fill="tomato"/>
      <path id="Path_2224" data-name="Path 2224" d="M20.808,82.818a1.688,1.688,0,0,0-.221.416c-.014.036-.027.077-.041.117a.422.422,0,0,0-.076-.027,1.064,1.064,0,0,0-.345-.029c0-.045.006-.1.007-.142.015-.51-.045-1.22-.532-.919-.466.29-.134.774.167,1.084.026.027.052.052.077.076-.275.194-.327.651-.373,1.126a2.626,2.626,0,0,1-.717,1.29c-.027.03-.051.057-.075.082a.982.982,0,0,0-.779-.2c-.011-.042-.023-.085-.036-.131-.217-.783-.667-2.138-1.24-2.435l.075-.1c.244-.318.519-.792.113-.913s-.442.41-.42.809q.006.075.012.142a.593.593,0,0,0-.424.207l-.063-.075c-.329-.387-.932-1-1.115-.538-.17.433.361,1,.734,1.323l.023.02c-.251,1.017.844,1.846,1.433,2.209l.076.046a8.889,8.889,0,0,0-1.315,2.754l2.276.406s1.509-1.3,1.316-2.525h.015a2.3,2.3,0,0,0,1.616-2.865l.027-.011a1.708,1.708,0,0,0,.7-.528A.56.56,0,0,0,20.808,82.818Z" transform="translate(-7.32 -15.042)" opacity="0.1"/>
      <path id="Path_2225" data-name="Path 2225" d="M16.3,83.545l-.266.774s-.148-.1-.335-.269c-.373-.326-.9-.889-.734-1.323.183-.465.786.149,1.115.538C16.212,83.42,16.3,83.545,16.3,83.545Z" transform="translate(-7.343 -15.107)" fill="tomato"/>
      <path id="Path_2226" data-name="Path 2226" d="M17.127,83.03a3.688,3.688,0,0,1-.259.306,4.084,4.084,0,0,1-.047-.41c-.022-.4.02-.928.42-.809S17.371,82.711,17.127,83.03Z" transform="translate(-7.609 -15.042)" fill="tomato"/>
      <path id="Path_2227" data-name="Path 2227" d="M21.055,83.163c-.008.256-.033.462-.033.462a3.375,3.375,0,0,1-.332-.3c-.3-.313-.634-.794-.167-1.084C21,81.942,21.064,82.653,21.055,83.163Z" transform="translate(-8.099 -15.052)" fill="tomato"/>
      <path id="Path_2228" data-name="Path 2228" d="M22.8,83.57a1.708,1.708,0,0,1-.7.528,2.092,2.092,0,0,1-.234.085l-.314-.44a3.114,3.114,0,0,1,.13-.428A1.687,1.687,0,0,1,21.9,82.9.56.56,0,0,1,22.8,83.57Z" transform="translate(-8.278 -15.124)" fill="tomato"/>
      <path id="Path_2229" data-name="Path 2229" d="M16.206,83.381c.133.155.221.275.221.275l-.266.774s-.148-.1-.335-.269a1.519,1.519,0,0,1,.3-.684Z" transform="translate(-7.469 -15.223)" opacity="0.1"/>
      <path id="Path_2230" data-name="Path 2230" d="M17.128,83.165a3.687,3.687,0,0,1-.259.306,4.084,4.084,0,0,1-.047-.41A.535.535,0,0,1,17.128,83.165Z" transform="translate(-7.61 -15.177)" opacity="0.1"/>
      <path id="Path_2231" data-name="Path 2231" d="M18.293,86.281l-.662.29s-.144-.07-.352-.2c-.7-.428-2.094-1.5-1.161-2.774s1.719,1.007,2.032,2.121C18.244,86.057,18.293,86.281,18.293,86.281Z" transform="translate(-7.467 -15.2)" fill="tomato"/>
      <path id="Path_2232" data-name="Path 2232" d="M20.75,83.49a.544.544,0,0,1,.365-.164c-.008.256-.033.462-.033.462A3.377,3.377,0,0,1,20.75,83.49Z" transform="translate(-8.164 -15.215)" opacity="0.1"/>
      <path id="Path_2233" data-name="Path 2233" d="M22.1,84.2a2.09,2.09,0,0,1-.234.085l-.314-.44a3.112,3.112,0,0,1,.13-.428A1.142,1.142,0,0,1,22.1,84.2Z" transform="translate(-8.278 -15.228)" opacity="0.1"/>
      <path id="Path_2234" data-name="Path 2234" d="M20.06,87.088c-.036.008-.074.015-.111.02-2.219.337-.732-.86-.732-.86s.1-.1.235-.243a2.621,2.621,0,0,0,.717-1.29c.07-.719.15-1.393,1-1.2C22,83.715,22.161,86.667,20.06,87.088Z" transform="translate(-7.879 -15.237)" fill="tomato"/>
      <rect id="Rectangle_349" data-name="Rectangle 349" width="4.239" height="1.115" transform="translate(7.901 77.375)" fill="#d4dfec"/>
      <rect id="Rectangle_350" data-name="Rectangle 350" width="5.539" height="3.89" transform="translate(7.227 73.752)" fill="#d4dfec"/>
      <rect id="Rectangle_351" data-name="Rectangle 351" width="4.239" height="1.115" transform="translate(7.901 77.375)" opacity="0.1"/>
      <rect id="Rectangle_352" data-name="Rectangle 352" width="5.539" height="3.89" transform="translate(7.227 73.752)" opacity="0.1"/>
      <rect id="Rectangle_353" data-name="Rectangle 353" width="4.239" height="1.115" transform="translate(8.179 77.375)" fill="#d4dfec"/>
      <path id="Path_2235" data-name="Path 2235" d="M18.392,86.13c.1.333.143.561.143.561l-.662.29s-.144-.07-.352-.2A1.7,1.7,0,0,1,18.392,86.13Z" transform="translate(-7.708 -15.611)" opacity="0.1"/>
      <path id="Path_2236" data-name="Path 2236" d="M20.06,87.5c-.036.008-.074.015-.111.02-2.219.337-.732-.86-.732-.86s.1-.1.235-.243A1.469,1.469,0,0,1,20.06,87.5Z" transform="translate(-7.879 -15.651)" opacity="0.1"/>
      <path id="Path_2237" data-name="Path 2237" d="M16.079,89.6s1.242-4.451,2.985-3.078-.709,3.483-.709,3.483Z" transform="translate(-7.505 -15.629)" fill="tomato"/>
      <circle id="Ellipse_512" data-name="Ellipse 512" cx="0.139" cy="0.139" r="0.139" transform="translate(9.062 68.956)" opacity="0.1"/>
      <circle id="Ellipse_513" data-name="Ellipse 513" cx="0.139" cy="0.139" r="0.139" transform="translate(9.05 69.606)" opacity="0.1"/>
      <circle id="Ellipse_514" data-name="Ellipse 514" cx="0.139" cy="0.139" r="0.139" transform="translate(13.092 69.083)" opacity="0.1"/>
      <circle id="Ellipse_515" data-name="Ellipse 515" cx="0.139" cy="0.139" r="0.139" transform="translate(9.841 72.417)" opacity="0.1"/>
      <circle id="Ellipse_516" data-name="Ellipse 516" cx="0.139" cy="0.139" r="0.139" transform="translate(12.801 70.163)" opacity="0.1"/>
      <circle id="Ellipse_517" data-name="Ellipse 517" cx="0.139" cy="0.139" r="0.139" transform="translate(11.362 71.604)" opacity="0.1"/>
      <circle id="Ellipse_518" data-name="Ellipse 518" cx="0.139" cy="0.139" r="0.139" transform="translate(9.538 69.234)" opacity="0.1"/>
      <circle id="Ellipse_519" data-name="Ellipse 519" cx="0.139" cy="0.139" r="0.139" transform="translate(12.709 69.501)" opacity="0.1"/>
      <circle id="Ellipse_520" data-name="Ellipse 520" cx="0.139" cy="0.139" r="0.139" transform="translate(12.232 70.581)" opacity="0.1"/>
      <circle id="Ellipse_521" data-name="Ellipse 521" cx="0.139" cy="0.139" r="0.139" transform="translate(10.769 72.312)" opacity="0.1"/>
      <circle id="Ellipse_522" data-name="Ellipse 522" cx="0.139" cy="0.139" r="0.139" transform="translate(10.468 71.627)" opacity="0.1"/>
      <circle id="Ellipse_523" data-name="Ellipse 523" cx="0.139" cy="0.139" r="0.139" transform="translate(9.747 70.082)" opacity="0.1"/>
      <rect id="Rectangle_354" data-name="Rectangle 354" width="4.239" height="0.407" transform="translate(8.179 77.375)" opacity="0.1"/>
      <rect id="Rectangle_355" data-name="Rectangle 355" width="5.539" height="3.89" transform="translate(7.506 73.752)" fill="#d4dfec"/>
      <circle id="Ellipse_524" data-name="Ellipse 524" cx="0.139" cy="0.139" r="0.139" transform="translate(10.955 72.939)" opacity="0.1"/>
      <circle id="Ellipse_525" data-name="Ellipse 525" cx="0.139" cy="0.139" r="0.139" transform="translate(10.119 73.113)" opacity="0.1"/>
      <circle id="Ellipse_526" data-name="Ellipse 526" cx="1.012" cy="1.012" r="1.012" transform="translate(3.826 4.019)" fill="tomato" opacity="0.1"/>
      <circle id="Ellipse_527" data-name="Ellipse 527" cx="1.355" cy="1.355" r="1.355" transform="translate(100.686 35.52)" fill="tomato" opacity="0.1"/>
      <circle id="Ellipse_528" data-name="Ellipse 528" cx="0.989" cy="0.989" r="0.989" transform="translate(103.664 32.983)" fill="tomato" opacity="0.1"/>
      <circle id="Ellipse_529" data-name="Ellipse 529" cx="1.355" cy="1.355" r="1.355" transform="translate(5.225)" fill="tomato" opacity="0.1"/>
      <circle id="Ellipse_530" data-name="Ellipse 530" cx="1.355" cy="1.355" r="1.355" transform="translate(0 6.193)" fill="tomato" opacity="0.1"/>
    </g>
  </g>
</svg>
