<svg xmlns="http://www.w3.org/2000/svg" xmlns:xlink="http://www.w3.org/1999/xlink" width="366" height="731" viewBox="0 0 366 731">
  <defs>
    <filter id="Rectangle_454" x="-4.5" y="-4.5" width="375" height="99" filterUnits="userSpaceOnUse">
      <feOffset input="SourceAlpha"/>
      <feGaussianBlur stdDeviation="1.5" result="blur"/>
      <feFlood flood-opacity="0.161"/>
      <feComposite operator="in" in2="blur"/>
      <feComposite in="SourceGraphic"/>
    </filter>
    <filter id="Rectangle_4" x="-9" y="672" width="384" height="63" filterUnits="userSpaceOnUse">
      <feOffset dy="-5" input="SourceAlpha"/>
      <feGaussianBlur stdDeviation="3" result="blur-2"/>
      <feFlood flood-opacity="0.051"/>
      <feComposite operator="in" in2="blur-2"/>
      <feComposite in="SourceGraphic"/>
    </filter>
    <clipPath id="clip-Request_Call_back">
      <rect width="366" height="731"/>
    </clipPath>
  </defs>
  <g id="Request_Call_back" data-name="Request Call back" clip-path="url(#clip-Request_Call_back)">
    <rect width="366" height="731" fill="#fff"/>
    <g transform="matrix(1, 0, 0, 1, 0, 0)" filter="url(#Rectangle_454)">
      <rect id="Rectangle_454-2" data-name="Rectangle 454" width="366" height="90" fill="#0bce86"/>
    </g>
    <rect id="Rectangle_456" data-name="Rectangle 456" width="366" height="31" fill="#09a068"/>
    <g id="Group_4" data-name="Group 4" transform="translate(0 4)">
      <g id="Group_2" data-name="Group 2" transform="translate(387 23)">
        <text id="_11:09" data-name="11:09" transform="translate(-60 -8)" fill="#fff" font-size="12" font-family="Helvetica"><tspan x="0" y="0">11:09</tspan></text>
        <text id="_85_" data-name="85%" transform="translate(-101 -8)" fill="#fff" font-size="12" font-family="Helvetica"><tspan x="0" y="0">85%</tspan></text>
        <path id="Shape" d="M8.347,1.8V1H5.674v.8H3V13.477h8.021V1.8Z" transform="translate(-77.818 -20)" fill="#fff"/>
        <path id="Shape-2" data-name="Shape" d="M0,13.477H12.477V1Z" transform="translate(-120.121 -20)" fill="#fff"/>
        <path id="Shape-3" data-name="Shape" d="M17.042,3.674A13.155,13.155,0,0,0,9.021,1,13.155,13.155,0,0,0,1,3.674l8.021,9.8Z" transform="translate(-140.394 -20)" fill="#fff"/>
      </g>
      <text id="_" data-name=" " transform="translate(15 16)" fill="#fff" font-size="16" font-family="LastResort, '\.LastResort'"><tspan x="0" y="0"></tspan><tspan y="0" font-family="Helvetica"> </tspan><tspan y="0"></tspan></text>
    </g>
    <g transform="matrix(1, 0, 0, 1, 0, 0)" filter="url(#Rectangle_4)">
      <rect id="Rectangle_4-2" data-name="Rectangle 4" width="366" height="45" transform="translate(0 686)" fill="#fff"/>
    </g>
    <g id="Group_5" data-name="Group 5" transform="translate(376)">
      <path id="Recent" d="M43.3,16h7.787a1.3,1.3,0,0,1,1.3,1.3v7.787a1.3,1.3,0,0,1-1.3,1.3H43.3a1.3,1.3,0,0,1-1.3-1.3V17.3A1.3,1.3,0,0,1,43.3,16Z" transform="translate(-138.737 689.113)" fill="none" stroke="#a3a3a3" stroke-width="2"/>
      <path id="Home" d="M5.317,0A5.317,5.317,0,1,1,0,5.317,5.317,5.317,0,0,1,5.317,0Z" transform="translate(-198.679 705.113)" fill="none" stroke="#a3a3a3" stroke-width="2"/>
      <path id="Home-2" data-name="Home" d="M8,0A8,8,0,1,1,0,8,8,8,0,0,1,8,0Z" transform="translate(-201.357 702.435)" fill="none" stroke="#a3a3a3" stroke-width="0.5"/>
      <path id="Back" d="M51.776,15.112c.659-.4,1.12-.066,1.12.659V25.32c0,.724-.527,1.054-1.12.659l-8.232-4.808c-.659-.4-.659-.922,0-1.317Z" transform="translate(-342.735 689.557)" fill="none" stroke="#a3a3a3" stroke-width="2"/>
    </g>
    <text id="Request_callback" data-name="Request callback" transform="translate(54 67)" fill="#fff" font-size="16" font-family="Helvetica"><tspan x="0" y="0">Request callback</tspan></text>
    <text id="bryankngs_gmail.com" data-name="bryankngs@gmail.com" transform="translate(20 337)" fill="#626262" font-size="10" font-family="Helvetica"><tspan x="0" y="0">bryankngs@gmail.com</tspan></text>
    <text id="Requesting_as" data-name="Requesting as" transform="translate(20 320)" fill="#626262" font-size="6" font-family="Helvetica"><tspan x="0" y="0">Requesting as</tspan></text>
    <text id="Etinosa_Justice" data-name="Etinosa Justice" transform="translate(20 155)" font-size="14" font-family="Helvetica"><tspan x="0" y="0">Etinosa Justice</tspan></text>
    <text id="Describe_your_issue_optional_" data-name="Describe your issue (optional)" transform="translate(20 267)" fill="#b7b7b7" font-size="14" font-family="Helvetica"><tspan x="0" y="0">Describe your issue (optional)</tspan></text>
    <text id="Nigeria" transform="translate(20 211)" font-size="14" font-family="Helvetica"><tspan x="0" y="0">Nigeria</tspan></text>
    <text id="Phone" transform="translate(191 211)" fill="#b7b7b7" font-size="14" font-family="Helvetica"><tspan x="0" y="0">Phone</tspan></text>
    <line id="Line_139" data-name="Line 139" y1="1" x2="322" transform="translate(20.5 162.5)" fill="none" stroke="#0bce86" stroke-width="1"/>
    <line id="Line_144" data-name="Line 144" y1="1" x2="322" transform="translate(20.5 274.5)" fill="none" stroke="#0bce86" stroke-width="1"/>
    <line id="Line_142" data-name="Line 142" x2="161" transform="translate(20.5 219.5)" fill="none" stroke="#0bce86" stroke-width="1"/>
    <line id="Line_143" data-name="Line 143" x2="154" transform="translate(188.5 219.5)" fill="none" stroke="#0bce86" stroke-width="1"/>
    <g id="send-button" transform="translate(327.283 10.564)">
      <g id="send" transform="translate(0 38.25)">
        <path id="Path_3414" data-name="Path 3414" d="M0,59.622,24.934,48.936,0,38.25v8.311l17.81,2.375L0,51.31Z" transform="translate(0 -38.25)" fill="rgba(255,255,255,0.56)"/>
      </g>
    </g>
    <path id="Icon" d="M17,6.2,15.8,5,11,9.8,6.2,5,5,6.2,9.8,11,5,15.8,6.2,17,11,12.2,15.8,17,17,15.8,12.2,11Z" transform="translate(10 50)" fill="#fff"/>
    <path id="Icon-2" data-name="Icon" d="M7,10l5,5,5-5Z" transform="translate(156 196)" opacity="0.54"/>
    <rect id="Rectangle_458" data-name="Rectangle 458" width="366" height="67" transform="translate(0 619)" fill="#fafafa"/>
    <text id="Some_account_and_system_info_will_be_sent_to_TSLNIGERIA._We_ll_use_the_Info_you_give_us_to_address_technical_issues_and_improve_our_services_subject_to_our_Privacy_Policy_and_Terms_of_Service" data-name="Some account and system info will be sent to TSLNIGERIA. We’ll use the
Info you give us to address technical issues and improve our services,
subject to our Privacy Policy and Terms of Service" transform="translate(20 643)" fill="#626262" font-size="9" font-family="Helvetica"><tspan x="0" y="0">Some </tspan><tspan y="0" fill="#0bce86">account and system</tspan><tspan y="0" xml:space="preserve"> info will be sent to TSLNIGERIA. We’ll use the</tspan><tspan x="0" y="11">Info you give us to address technical issues and improve our services,</tspan><tspan x="0" y="22">subject to our </tspan><tspan y="22" fill="#0bce86">Privacy Policy</tspan><tspan y="22" xml:space="preserve"> and </tspan><tspan y="22" fill="#0bce86">Terms of Service</tspan></text>
  </g>
</svg>
