<svg xmlns="http://www.w3.org/2000/svg" xmlns:xlink="http://www.w3.org/1999/xlink" width="366" height="731" viewBox="0 0 366 731">
  <defs>
    <filter id="Rectangle_454" x="-4.5" y="-4.5" width="375" height="99" filterUnits="userSpaceOnUse">
      <feOffset input="SourceAlpha"/>
      <feGaussianBlur stdDeviation="1.5" result="blur"/>
      <feFlood flood-opacity="0.161"/>
      <feComposite operator="in" in2="blur"/>
      <feComposite in="SourceGraphic"/>
    </filter>
    <filter id="Rectangle_4" x="-9" y="672" width="384" height="63" filterUnits="userSpaceOnUse">
      <feOffset dy="-5" input="SourceAlpha"/>
      <feGaussianBlur stdDeviation="3" result="blur-2"/>
      <feFlood flood-opacity="0.051"/>
      <feComposite operator="in" in2="blur-2"/>
      <feComposite in="SourceGraphic"/>
    </filter>
    <filter id="Knob" x="303.25" y="287.843" width="21.143" height="21.143" filterUnits="userSpaceOnUse">
      <feOffset input="SourceAlpha"/>
      <feGaussianBlur stdDeviation="0.5" result="blur-3"/>
      <feFlood flood-opacity="0.122"/>
      <feComposite operator="in" in2="blur-3"/>
      <feComposite in="SourceGraphic"/>
    </filter>
    <filter id="Knob-2" x="303.25" y="288.843" width="21.143" height="21.143" filterUnits="userSpaceOnUse">
      <feOffset dy="1" input="SourceAlpha"/>
      <feGaussianBlur stdDeviation="0.5" result="blur-4"/>
      <feFlood flood-opacity="0.239"/>
      <feComposite operator="in" in2="blur-4"/>
      <feComposite in="SourceGraphic"/>
    </filter>
    <filter id="Knob-3" x="320.982" y="132.25" width="21.143" height="21.143" filterUnits="userSpaceOnUse">
      <feOffset input="SourceAlpha"/>
      <feGaussianBlur stdDeviation="0.5" result="blur-5"/>
      <feFlood flood-opacity="0.122"/>
      <feComposite operator="in" in2="blur-5"/>
      <feComposite in="SourceGraphic"/>
    </filter>
    <filter id="Knob-4" x="320.982" y="133.25" width="21.143" height="21.143" filterUnits="userSpaceOnUse">
      <feOffset dy="1" input="SourceAlpha"/>
      <feGaussianBlur stdDeviation="0.5" result="blur-6"/>
      <feFlood flood-opacity="0.239"/>
      <feComposite operator="in" in2="blur-6"/>
      <feComposite in="SourceGraphic"/>
    </filter>
    <clipPath id="clip-Settings">
      <rect width="366" height="731"/>
    </clipPath>
  </defs>
  <g id="Settings" clip-path="url(#clip-Settings)">
    <rect width="366" height="731" fill="#fff"/>
    <g transform="matrix(1, 0, 0, 1, 0, 0)" filter="url(#Rectangle_454)">
      <rect id="Rectangle_454-2" data-name="Rectangle 454" width="366" height="90" fill="#fff"/>
    </g>
    <g id="Group_4" data-name="Group 4" transform="translate(0 4)">
      <g id="Group_2" data-name="Group 2" transform="translate(387 23)">
        <text id="_11:09" data-name="11:09" transform="translate(-60 -8)" fill="#5f5f5f" font-size="12" font-family="Helvetica"><tspan x="0" y="0">11:09</tspan></text>
        <text id="_85_" data-name="85%" transform="translate(-101 -8)" fill="#5f5f5f" font-size="12" font-family="Helvetica"><tspan x="0" y="0">85%</tspan></text>
        <path id="Shape" d="M8.347,1.8V1H5.674v.8H3V13.477h8.021V1.8Z" transform="translate(-77.818 -20)" fill="#5f5f5f"/>
        <path id="Shape-2" data-name="Shape" d="M0,13.477H12.477V1Z" transform="translate(-120.121 -20)" fill="#5f5f5f"/>
        <path id="Shape-3" data-name="Shape" d="M17.042,3.674A13.155,13.155,0,0,0,9.021,1,13.155,13.155,0,0,0,1,3.674l8.021,9.8Z" transform="translate(-140.394 -20)" fill="#5f5f5f"/>
      </g>
      <text id="_" data-name=" " transform="translate(15 16)" fill="#5f5f5f" font-size="16" font-family="LastResort, '\.LastResort'"><tspan x="0" y="0"></tspan><tspan y="0" font-family="Helvetica"> </tspan><tspan y="0"></tspan></text>
    </g>
    <g transform="matrix(1, 0, 0, 1, 0, 0)" filter="url(#Rectangle_4)">
      <rect id="Rectangle_4-2" data-name="Rectangle 4" width="366" height="45" transform="translate(0 686)" fill="#fff"/>
    </g>
    <g id="Group_5" data-name="Group 5" transform="translate(376)">
      <path id="Recent" d="M43.3,16h7.787a1.3,1.3,0,0,1,1.3,1.3v7.787a1.3,1.3,0,0,1-1.3,1.3H43.3a1.3,1.3,0,0,1-1.3-1.3V17.3A1.3,1.3,0,0,1,43.3,16Z" transform="translate(-138.737 689.113)" fill="none" stroke="#a3a3a3" stroke-width="2"/>
      <path id="Home" d="M5.317,0A5.317,5.317,0,1,1,0,5.317,5.317,5.317,0,0,1,5.317,0Z" transform="translate(-198.679 705.113)" fill="none" stroke="#a3a3a3" stroke-width="2"/>
      <path id="Home-2" data-name="Home" d="M8,0A8,8,0,1,1,0,8,8,8,0,0,1,8,0Z" transform="translate(-201.357 702.435)" fill="none" stroke="#a3a3a3" stroke-width="0.5"/>
      <path id="Back" d="M51.776,15.112c.659-.4,1.12-.066,1.12.659V25.32c0,.724-.527,1.054-1.12.659l-8.232-4.808c-.659-.4-.659-.922,0-1.317Z" transform="translate(-342.735 689.557)" fill="none" stroke="#a3a3a3" stroke-width="2"/>
    </g>
    <text id="Settings-2" data-name="Settings" transform="translate(54 67)" font-size="16" font-family="Helvetica"><tspan x="0" y="0">Settings</tspan></text>
    <text id="Notifications" transform="translate(15 147)" font-size="12" font-family="Helvetica"><tspan x="0" y="0">Notifications</tspan></text>
    <text id="Share_Usage_Statistics" data-name="Share Usage Statistics" transform="translate(15 303)" font-size="12" font-family="Helvetica"><tspan x="0" y="0">Share Usage Statistics</tspan></text>
    <text id="TSLNIGERIA_TV" data-name="TSLNIGERIA TV" transform="translate(15 380)" font-size="12" font-family="Helvetica"><tspan x="0" y="0">TSLNIGERIA TV</tspan></text>
    <g id="Group_1314" data-name="Group 1314">
      <text id="Preferred_language_region" data-name="Preferred language &amp; region" transform="translate(15 206)" font-size="12" font-family="Helvetica"><tspan x="0" y="0">Preferred language &amp; region</tspan></text>
      <text id="English_Nigeria_" data-name="English (Nigeria)" transform="translate(15 223)" fill="#5f5f5f" font-size="11" font-family="Helvetica"><tspan x="0" y="0">English (Nigeria)</tspan></text>
    </g>
    <text id="To_improve_on_the_services_offered" data-name="To improve on the services offered" transform="translate(15 320)" fill="#5f5f5f" font-size="11" font-family="Helvetica"><tspan x="0" y="0">To improve on the services offered</tspan></text>
    <text id="Best_of_News_Experience_where_ever_you_are_" data-name="Best of News Experience where ever you are!" transform="translate(15 397)" fill="#5f5f5f" font-size="11" font-family="Helvetica"><tspan x="0" y="0">Best of News Experience where ever you are!</tspan></text>
    <text id="_2.0.1" data-name="2.0.1" transform="translate(15 476)" fill="#5f5f5f" font-size="11" font-family="Helvetica"><tspan x="0" y="0">2.0.1</tspan></text>
    <text id="Alerts" transform="translate(15 121)" fill="#0bce86" font-size="10" font-family="Helvetica"><tspan x="0" y="0">Alerts</tspan></text>
    <text id="Privacy" transform="translate(15 277)" fill="#0bce86" font-size="10" font-family="Helvetica"><tspan x="0" y="0">Privacy</tspan></text>
    <text id="About" transform="translate(15 354)" fill="#0bce86" font-size="10" font-family="Helvetica"><tspan x="0" y="0">About</tspan></text>
    <text id="Version" transform="translate(15 451)" fill="#0bce86" font-size="10" font-family="Helvetica"><tspan x="0" y="0">Version</tspan></text>
    <text id="General" transform="translate(15 180)" fill="#0bce86" font-size="10" font-family="Helvetica"><tspan x="0" y="0">General</tspan></text>
    <g id="back-2" data-name="back" transform="translate(15 14.326)">
      <g id="Group_1291" data-name="Group 1291" transform="translate(0 41.674)">
        <path id="Path_3410" data-name="Path 3410" d="M12.288,46.06l.02,0H3.6L6.335,43.32a.719.719,0,0,0,0-1.011l-.426-.426a.713.713,0,0,0-1.006,0L.207,46.576a.718.718,0,0,0,0,1.01L4.9,52.281a.714.714,0,0,0,1.006,0l.426-.426a.705.705,0,0,0,.208-.5.684.684,0,0,0-.208-.494L3.565,48.1H12.3a.738.738,0,0,0,.722-.73v-.6A.724.724,0,0,0,12.288,46.06Z" transform="translate(0 -41.674)" fill="#a3a3a3"/>
      </g>
    </g>
    <line id="Line_136" data-name="Line 136" x2="325" transform="translate(15.5 246.5)" fill="none" stroke="rgba(112,112,112,0.25)" stroke-width="1"/>
    <line id="Line_137" data-name="Line 137" x2="325" transform="translate(15.5 420.5)" fill="none" stroke="rgba(112,112,112,0.25)" stroke-width="1"/>
    <g id="Switches_Tumbler_Off" data-name="Switches Tumbler Off" transform="translate(305 287.829)">
      <rect id="Bounds" width="35.286" height="21.171" fill="none"/>
      <path id="Track" d="M26.818,17.35H9.175A6.175,6.175,0,1,1,9.175,5H26.818a6.175,6.175,0,1,1,0,12.35Z" transform="translate(-0.354 -0.589)" fill="rgba(34,31,31,0.26)"/>
      <g id="Knob-5" data-name="Knob" transform="translate(0 1.764)">
        <g transform="matrix(1, 0, 0, 1, -305, -289.59)" filter="url(#Knob)">
          <circle id="Knob-6" data-name="Knob" cx="8.821" cy="8.821" r="8.821" transform="translate(305 289.59)" fill="#f1f1f1" stroke="rgba(255,255,255,0.8)" stroke-width="0.5"/>
        </g>
        <g transform="matrix(1, 0, 0, 1, -305, -289.59)" filter="url(#Knob-2)">
          <circle id="Knob-7" data-name="Knob" cx="8.821" cy="8.821" r="8.821" transform="translate(305 289.59)" fill="#f1f1f1" stroke="rgba(255,255,255,0.12)" stroke-width="0.5"/>
        </g>
      </g>
    </g>
    <rect id="Bounds-2" data-name="Bounds" width="35.286" height="21.171" transform="translate(300.089 131.5)" fill="none"/>
    <g id="Group_1292" data-name="Group 1292" transform="translate(5 1)">
      <path id="Track-2" data-name="Track" d="M32.993,11.175a6.137,6.137,0,0,1-6.175,6.175H9.175A6.137,6.137,0,0,1,3,11.175H3A6.137,6.137,0,0,1,9.175,5H26.818a6.137,6.137,0,0,1,6.175,6.175Z" transform="translate(299.736 131)" fill="#0bce86" opacity="0.5"/>
      <g id="Knob-8" data-name="Knob" transform="translate(317.732 133)">
        <g transform="matrix(1, 0, 0, 1, -322.73, -134)" filter="url(#Knob-3)">
          <circle id="Knob-9" data-name="Knob" cx="8.821" cy="8.821" r="8.821" transform="translate(322.73 134)" fill="#0bce86" stroke="rgba(255,255,255,0.12)" stroke-width="0.5"/>
        </g>
        <g transform="matrix(1, 0, 0, 1, -322.73, -134)" filter="url(#Knob-4)">
          <circle id="Knob-10" data-name="Knob" cx="8.821" cy="8.821" r="8.821" transform="translate(322.73 134)" fill="#0bce86" stroke="rgba(255,255,255,0.12)" stroke-width="0.5"/>
        </g>
      </g>
    </g>
  </g>
</svg>
