<svg xmlns="http://www.w3.org/2000/svg" width="151" height="85.471" viewBox="0 0 151 85.471">
  <g id="Group_1241" data-name="Group 1241" transform="translate(-108 -90.529)">
    <path id="Path_1866" data-name="Path 1866" d="M100.5,53.963h19.893l11.7-4.681V34.461L118.052,29,104.01,34.461l-.78,4.681Z" transform="translate(86.12 84.372)" fill="#fff"/>
    <path id="Path_1867" data-name="Path 1867" d="M133,14h2.34v2.34L133,17.51" transform="translate(78.974 87.67)" fill="#fff"/>
    <path id="Path_1868" data-name="Path 1868" d="M69.461,70,64,99.644,74.921,70" transform="translate(94.147 75.356)" fill="#fff"/>
    <path id="Path_1869" data-name="Path 1869" d="M127.963,70l3.12,29.644L117.042,74.681,103,99.644,106.9,70" transform="translate(85.571 75.356)" fill="#fff"/>
    <path id="Path_1870" data-name="Path 1870" d="M136.01,68.021H64.241L58,61h84.251Z" transform="translate(95.466 77.335)" fill="#fff"/>
    <path id="Path_1871" data-name="Path 1871" d="M152.461,70l5.461,29.644L147,70" transform="translate(75.895 75.356)" fill="#fff"/>
    <path id="Path_1872" data-name="Path 1872" d="M156.021,58.141H150.56L149,48h8.581Z" transform="translate(75.455 80.194)" fill="#fff"/>
    <path id="Path_1873" data-name="Path 1873" d="M128.6,18.162l-7.8,3.12-7.8-3.12V5.291L120.8,1l7.8,4.291Z" transform="translate(83.372 90.529)" fill="#fff"/>
    <path id="Path_1874" data-name="Path 1874" d="M33.921,103.822H26.9L23,89H37.822Z" transform="translate(103.162 71.178)" fill="#fff"/>
    <path id="Path_1875" data-name="Path 1875" d="M118.471,74.681l14.042,24.963L129.393,70H112.23L109.5,90.595Z" transform="translate(84.141 75.356)" fill="#effff9"/>
    <path id="Path_1876" data-name="Path 1876" d="M153.319,74.681,152.461,70H147l1.716,4.681Z" transform="translate(75.895 75.356)" fill="#effff9"/>
    <path id="Path_1877" data-name="Path 1877" d="M69.9,74.681,70.758,70h5.461L74.5,74.681Z" transform="translate(92.849 75.356)" fill="#effff9"/>
    <path id="Path_1878" data-name="Path 1878" d="M32.5,89h7.411l-3.9,14.822H32.5Z" transform="translate(101.073 71.178)" fill="#effff9"/>
    <path id="Path_1879" data-name="Path 1879" d="M154,58.141h3.12L158.681,48H154Z" transform="translate(74.356 80.194)" fill="#effff9"/>
    <path id="Path_1880" data-name="Path 1880" d="M113,10.461V9.291L120.8,5l7.8,4.291v1.17Z" transform="translate(83.372 89.649)" fill="#effff9"/>
    <path id="Path_1881" data-name="Path 1881" d="M128.6,18.162l-7.8,3.12-7.8-3.12V5.291L120.8,1l7.8,4.291Z" transform="translate(83.372 90.529)" fill="none" stroke="#0bce86" stroke-linejoin="round" stroke-miterlimit="10" stroke-width="2"/>
    <line id="Line_30" data-name="Line 30" y1="1.17" transform="translate(200.272 102.45)" fill="none" stroke="#0bce86" stroke-linecap="round" stroke-linejoin="round" stroke-miterlimit="10" stroke-width="2"/>
    <line id="Line_31" data-name="Line 31" y1="1.17" transform="translate(206.513 102.45)" fill="none" stroke="#0bce86" stroke-linecap="round" stroke-linejoin="round" stroke-miterlimit="10" stroke-width="2"/>
    <path id="Path_1882" data-name="Path 1882" d="M70.695,55.283,65,35H90.743l5.695,20.283Z" transform="translate(93.927 83.052)" fill="#fff" stroke="#0bce86" stroke-linecap="round" stroke-linejoin="round" stroke-miterlimit="10" stroke-width="2"/>
    <path id="Path_1883" data-name="Path 1883" d="M86.181,46.4l-2.34,1.56L81.5,46.4V44.06l2.34-1.56,2.34,1.56Z" transform="translate(90.298 81.403)" fill="#effff9" stroke="#0bce86" stroke-linejoin="round" stroke-miterlimit="10" stroke-width="2"/>
    <g id="Group_1238" data-name="Group 1238" transform="translate(199.258 115.244)">
      <path id="Path_1884" data-name="Path 1884" d="M126.529,31.4l-4.915,9.829L116.7,31.4" transform="translate(-116.7 -31.4)" fill="none" stroke="#0bce86" stroke-linecap="round" stroke-linejoin="round" stroke-miterlimit="10" stroke-width="2"/>
    </g>
    <line id="Line_32" data-name="Line 32" x1="22.623" transform="translate(189.351 100.11)" fill="none" stroke="#0bce86" stroke-linecap="round" stroke-linejoin="round" stroke-miterlimit="10" stroke-width="2"/>
    <path id="Path_1885" data-name="Path 1885" d="M123.4,21l-1.95.78L119.5,21" transform="translate(81.942 86.131)" fill="none" stroke="#0bce86" stroke-linecap="round" stroke-linejoin="round" stroke-miterlimit="10" stroke-width="2"/>
    <path id="Path_1886" data-name="Path 1886" d="M133,14h2.34v2.34L133,17.51" transform="translate(78.974 87.67)" fill="none" stroke="#0bce86" stroke-linecap="round" stroke-linejoin="round" stroke-miterlimit="10" stroke-width="2"/>
    <line id="Line_33" data-name="Line 33" x1="25.743" transform="translate(163.763 135.215)" fill="none" stroke="#0bce86" stroke-linecap="round" stroke-linejoin="round" stroke-miterlimit="10" stroke-width="2"/>
    <path id="Path_1887" data-name="Path 1887" d="M105.058,60.12h12.248L115.746,57H104.2Z" transform="translate(85.307 78.215)" fill="#fff" stroke="#0bce86" stroke-linecap="round" stroke-linejoin="round" stroke-miterlimit="10" stroke-width="2"/>
    <path id="Path_1888" data-name="Path 1888" d="M128.183,39.921v5.461l-11.7,8.581h4.681l11.7-4.681V34.461L118.822,29,104.78,34.461,104,39.141" transform="translate(85.351 84.372)" fill="none" stroke="#0bce86" stroke-linecap="round" stroke-linejoin="round" stroke-miterlimit="10" stroke-width="2"/>
    <line id="Line_34" data-name="Line 34" y2="3.901" transform="translate(213.534 124.293)" fill="none" stroke="#0bce86" stroke-linecap="round" stroke-linejoin="round" stroke-miterlimit="10" stroke-width="2"/>
    <path id="Path_1889" data-name="Path 1889" d="M136.01,68.021H64.241L58,61h84.251Z" transform="translate(95.466 77.335)" fill="none" stroke="#0bce86" stroke-linecap="round" stroke-linejoin="round" stroke-miterlimit="10" stroke-width="2"/>
    <path id="Path_1890" data-name="Path 1890" d="M69.461,70,64,99.644,74.921,70" transform="translate(94.147 75.356)" fill="none" stroke="#0bce86" stroke-linecap="round" stroke-linejoin="round" stroke-miterlimit="10" stroke-width="2"/>
    <path id="Path_1891" data-name="Path 1891" d="M152.461,70l5.461,29.644L147,70" transform="translate(75.895 75.356)" fill="none" stroke="#0bce86" stroke-linecap="round" stroke-linejoin="round" stroke-miterlimit="10" stroke-width="2"/>
    <g id="Group_1239" data-name="Group 1239" transform="translate(109 175)">
      <line id="Line_35" data-name="Line 35" x2="135.738" transform="translate(7.021)" fill="none" stroke="#0bce86" stroke-linecap="round" stroke-linejoin="round" stroke-miterlimit="10" stroke-width="2"/>
      <line id="Line_36" data-name="Line 36" x2="2.34" transform="translate(146.66)" fill="none" stroke="#0bce86" stroke-linecap="round" stroke-linejoin="round" stroke-miterlimit="10" stroke-width="2"/>
      <line id="Line_37" data-name="Line 37" x2="2.34" fill="none" stroke="#0bce86" stroke-linecap="round" stroke-linejoin="round" stroke-miterlimit="10" stroke-width="2"/>
    </g>
    <path id="Path_1892" data-name="Path 1892" d="M127.963,70l3.12,29.644L117.042,74.681,103,99.644,106.9,70" transform="translate(85.571 75.356)" fill="none" stroke="#0bce86" stroke-linecap="round" stroke-linejoin="round" stroke-miterlimit="10" stroke-width="2"/>
    <g id="Group_1240" data-name="Group 1240" transform="translate(224.456 117.272)">
      <path id="Path_1893" data-name="Path 1893" d="M150.56,40.241l1.56-1.56L149,35.56,150.56,34" transform="translate(-149 -34)" fill="none" stroke="#0bce86" stroke-linecap="round" stroke-linejoin="round" stroke-miterlimit="10" stroke-width="2"/>
      <path id="Path_1894" data-name="Path 1894" d="M157.56,40.241l1.56-1.56L156,35.56,157.56,34" transform="translate(-150.539 -34)" fill="none" stroke="#0bce86" stroke-linecap="round" stroke-linejoin="round" stroke-miterlimit="10" stroke-width="2"/>
    </g>
    <path id="Path_1895" data-name="Path 1895" d="M156.021,58.141H150.56L149,48h8.581Z" transform="translate(75.455 80.194)" fill="none" stroke="#0bce86" stroke-linecap="round" stroke-linejoin="round" stroke-miterlimit="10" stroke-width="2"/>
    <path id="Path_1896" data-name="Path 1896" d="M33.921,103.822H26.9L23,89H37.822Z" transform="translate(103.162 71.178)" fill="none" stroke="#0bce86" stroke-linecap="round" stroke-linejoin="round" stroke-miterlimit="10" stroke-width="2"/>
    <path id="Path_1897" data-name="Path 1897" d="M37,70.241h3.12L43.241,64,37,67.12Z" transform="translate(100.084 76.675)" fill="#fff" stroke="#0bce86" stroke-linecap="round" stroke-linejoin="round" stroke-miterlimit="10" stroke-width="2"/>
    <path id="Path_1898" data-name="Path 1898" d="M25.581,76.8h-3.12L17,69l8.581,4.681Z" transform="translate(104.482 75.576)" fill="#fff" stroke="#0bce86" stroke-linecap="round" stroke-linejoin="round" stroke-miterlimit="10" stroke-width="2"/>
    <path id="Path_1899" data-name="Path 1899" d="M38,50.8h3.12L46.581,43,38,47.681Z" transform="translate(99.864 81.293)" fill="#fff" stroke="#0bce86" stroke-linecap="round" stroke-linejoin="round" stroke-miterlimit="10" stroke-width="2"/>
    <path id="Path_1900" data-name="Path 1900" d="M21.581,60.361,13,51l12.482,5.461v3.9Z" transform="translate(105.361 79.534)" fill="#fff" stroke="#0bce86" stroke-linecap="round" stroke-linejoin="round" stroke-miterlimit="10" stroke-width="2"/>
    <line id="Line_38" data-name="Line 38" y1="41.346" transform="translate(133.963 118.832)" fill="none" stroke="#0bce86" stroke-linecap="round" stroke-linejoin="round" stroke-miterlimit="10" stroke-width="2"/>
    <path id="Path_1901" data-name="Path 1901" d="M26.8,39.241,19,33l3.9,8.581,3.9,1.56Z" transform="translate(104.042 83.492)" fill="#fff" stroke="#0bce86" stroke-linecap="round" stroke-linejoin="round" stroke-miterlimit="10" stroke-width="2"/>
    <path id="Path_1902" data-name="Path 1902" d="M25.5,97.12,28.62,94l2.34,2.34L33.3,94l3.12,3.12" transform="translate(102.613 70.079)" fill="none" stroke="#0bce86" stroke-linecap="round" stroke-linejoin="round" stroke-miterlimit="10" stroke-width="2"/>
  </g>
</svg>
