<svg xmlns="http://www.w3.org/2000/svg" xmlns:xlink="http://www.w3.org/1999/xlink" width="366" height="731" viewBox="0 0 366 731">
  <defs>
    <clipPath id="clip-Sign_in">
      <rect width="366" height="731"/>
    </clipPath>
  </defs>
  <g id="Sign_in" data-name="Sign in" clip-path="url(#clip-Sign_in)">
    <rect width="366" height="731" fill="#fff"/>
    <rect id="Rectangle_216" data-name="Rectangle 216" width="366" height="731" fill="#fff"/>
    <path id="Recent" d="M43.3,16h7.787a1.3,1.3,0,0,1,1.3,1.3v7.787a1.3,1.3,0,0,1-1.3,1.3H43.3a1.3,1.3,0,0,1-1.3-1.3V17.3A1.3,1.3,0,0,1,43.3,16Z" transform="translate(237.263 689.113)" fill="none" stroke="#a3a3a3" stroke-width="2"/>
    <path id="Home" d="M5.317,0A5.317,5.317,0,1,1,0,5.317,5.317,5.317,0,0,1,5.317,0Z" transform="translate(177.321 705.113)" fill="none" stroke="#a3a3a3" stroke-width="2"/>
    <path id="Home-2" data-name="Home" d="M8,0A8,8,0,1,1,0,8,8,8,0,0,1,8,0Z" transform="translate(174.643 702.435)" fill="none" stroke="#a3a3a3" stroke-width="0.5"/>
    <path id="Back" d="M51.776,15.112c.659-.4,1.12-.066,1.12.659V25.32c0,.724-.527,1.054-1.12.659l-8.232-4.808c-.659-.4-.659-.922,0-1.317Z" transform="translate(33.265 689.557)" fill="none" stroke="#a3a3a3" stroke-width="2"/>
    <g id="Group_1184" data-name="Group 1184" transform="translate(0 4)">
      <g id="Group_2" data-name="Group 2" transform="translate(387 23)">
        <text id="_11:09" data-name="11:09" transform="translate(-60 -8)" fill="#5f5f5f" font-size="12" font-family="Helvetica"><tspan x="0" y="0">11:09</tspan></text>
        <text id="_85_" data-name="85%" transform="translate(-101 -8)" fill="#5f5f5f" font-size="12" font-family="Helvetica"><tspan x="0" y="0">85%</tspan></text>
        <path id="Shape" d="M8.347,1.8V1H5.674v.8H3V13.477h8.021V1.8Z" transform="translate(-77.818 -20)" fill="#5f5f5f"/>
        <path id="Shape-2" data-name="Shape" d="M0,13.477H12.477V1Z" transform="translate(-120.121 -20)" fill="#5f5f5f"/>
        <path id="Shape-3" data-name="Shape" d="M17.042,3.674A13.155,13.155,0,0,0,9.021,1,13.155,13.155,0,0,0,1,3.674l8.021,9.8Z" transform="translate(-140.394 -20)" fill="#5f5f5f"/>
      </g>
      <text id="_" data-name=" " transform="translate(15 16)" fill="#5f5f5f" font-size="16" font-family="LastResort, '\.LastResort'"><tspan x="0" y="0"></tspan><tspan y="0" font-family="Helvetica"> </tspan><tspan y="0"></tspan></text>
    </g>
    <g id="Rectangle_325" data-name="Rectangle 325" transform="translate(36 479)" fill="#fff" stroke="#0bce86" stroke-width="1">
      <rect width="294" height="43" rx="7" stroke="none"/>
      <rect x="0.5" y="0.5" width="293" height="42" rx="6.5" fill="none"/>
    </g>
    <g id="Group_1237" data-name="Group 1237" transform="translate(-21.034 102.104)">
      <g id="Group_1235" data-name="Group 1235" transform="translate(97.698 90.344)">
        <path id="Path_1808" data-name="Path 1808" d="M60.45,134.947l62.728-.2-16-3.286s.653-17.959-7.185-14.364a13.97,13.97,0,0,0-8.164,11.427s-2.937-7.19-7.185-4.552a17.554,17.554,0,0,0-6.189,7.179s-1.525-5.165-4.248-5.458c-2.324-.253-6.752,4.664-9.07,7.427Z" transform="translate(-57.384 -65.727)" fill="#ddcaca" opacity="0.33"/>
        <path id="Path_1809" data-name="Path 1809" d="M367.06,190.419l51.762-.146-13.2-2.425s.563-13.346-5.924-10.69a10.306,10.306,0,0,0-6.752,8.49s-2.425-5.339-5.93-3.376a13.368,13.368,0,0,0-5.114,5.339s-1.26-3.843-3.505-4.062c-1.919-.186-5.57,3.471-7.483,5.525Z" transform="translate(-191.486 -92.05)" fill="#ddcaca" opacity="0.33"/>
        <path id="Path_1810" data-name="Path 1810" d="M217.45,57.442l51.762-.163L256.018,54.59s.563-14.82-5.93-11.855a11.534,11.534,0,0,0-6.752,9.43s-2.425-5.93-5.924-3.775a14.477,14.477,0,0,0-5.12,5.93s-1.255-4.265-3.5-4.5c-1.919-.208-5.57,3.848-7.483,6.127Z" transform="translate(-126.051 -33.239)" fill="#ddcaca" opacity="0.33"/>
        <path id="Path_1811" data-name="Path 1811" d="M344.459,41.408l-3.938,1.367-1.688-4.917a17.4,17.4,0,0,0-32.869,11.41l1.688,4.917-3.938,1.373a5.947,5.947,0,0,0-3.663,7.534l11.084,31.985a5.964,5.964,0,0,0,7.556,3.708l40.751-14.15a5.969,5.969,0,0,0,3.685-7.607L352.049,45.043a5.958,5.958,0,0,0-7.59-3.635Zm-31.074,5.283a9.53,9.53,0,1,1,18.006-6.251l1.686,4.912-18,6.256Zm23.63,29.155,2.813,8.175a.653.653,0,0,1-.439.821L335.452,86.2a.636.636,0,0,1-.8-.388l-2.813-8.169a7.6,7.6,0,1,1,5.148-1.789Z" transform="translate(-162.038 -26.162)" fill="#b3adec"/>
        <path id="Path_1812" data-name="Path 1812" d="M323.759,318.643c-.968-1.885,1.3-3.9,3.376-4.282s4.45-.084,6.116-1.4c2.217-1.761,2.1-5.593,4.563-7,1.975-1.125,4.591-.051,6.678-.94,2.6-1.125,3.331-4.726,5.879-5.941A4.557,4.557,0,0,1,356.1,301.2a5.907,5.907,0,0,1-.878,6.313c-1.125,1.356-2.813,2.307-3.488,3.938-1.1,2.532.63,5.6-.377,8.164-1.857,4.737-10.645,3.314-12.17,8.169a15.323,15.323,0,0,0-.287,3.376c-.259,3.376-2.633,6.3-5.559,7.972a22.737,22.737,0,0,1-9.711,2.492,7.669,7.669,0,0,1-4.051-.506A6.594,6.594,0,0,1,317,338.307c-4.04-7.314-5.705-16.879,6.752-19.63" transform="translate(-168.293 -145.37)" fill="#78ba9a"/>
        <path id="Path_1813" data-name="Path 1813" d="M192.715,296.87c2.177-1.435.968-4.962-1.041-6.622s-4.709-2.774-5.7-5.182c-1.311-3.218,1.125-7.252-.67-10.234-1.429-2.391-4.872-2.813-6.577-5.03-2.11-2.746-.715-7.061-2.706-9.9a5.6,5.6,0,0,0-7.4-1.176,7.171,7.171,0,0,0-2.864,7.28c.388,2.127,1.6,4.147,1.367,6.3-.349,3.376-4.045,5.626-4.5,8.957-.866,6.189,9.39,9.953,8.1,16.069a17.75,17.75,0,0,1-1.727,3.787c-1.744,3.753-.979,8.321,1.125,11.871s5.446,6.268,8.9,8.518a9.374,9.374,0,0,0,4.636,1.9,8.129,8.129,0,0,0,4.467-1.474c8.732-5.407,16.266-14.628,4.6-25.06" transform="translate(-102.047 -127.491)" fill="#ffa938"/>
        <path id="Path_1814" data-name="Path 1814" d="M316.818,299.7a26.546,26.546,0,0,0,8.04-6.071c6.121-6.318,9.914-14.561,11.905-23.068a84.874,84.874,0,0,0,1.834-23.49c-.034-.664-1.075-.67-1.041,0,.844,17.667-2.661,39.339-18.466,50.074a17.325,17.325,0,0,1-2.813,1.626c-.613.264-.084,1.159.523.895Z" transform="translate(-169.156 -122.562)" fill="#e1806d"/>
        <path id="Path_1815" data-name="Path 1815" d="M353.16,278.848s1-5.722,8.58-6.628C361.74,272.2,358.972,278.966,353.16,278.848Z" transform="translate(-185.406 -133.78)" fill="#e1806d"/>
        <path id="Path_1816" data-name="Path 1816" d="M348.74,295.467s2.307-5.334,9.891-4.445C358.631,291.017,354.361,296.958,348.74,295.467Z" transform="translate(-183.473 -141.96)" fill="#e1806d"/>
        <path id="Path_1817" data-name="Path 1817" d="M343,310s3.443-4.681,10.634-2.115C353.645,307.883,348.154,312.716,343,310Z" transform="translate(-180.963 -149.042)" fill="#e1806d"/>
        <path id="Path_1818" data-name="Path 1818" d="M355.23,263.1s.979-5.626,8.439-6.515C363.664,256.58,360.946,263.242,355.23,263.1Z" transform="translate(-186.312 -126.94)" fill="#e1806d"/>
        <path id="Path_1819" data-name="Path 1819" d="M353.67,242.546s-4.248-3.82-1.041-10.606C352.629,231.94,356.815,237.774,353.67,242.546Z" transform="translate(-184.65 -116.163)" fill="#e1806d"/>
        <path id="Path_1820" data-name="Path 1820" d="M350.447,254.491s-5.626-1.041-6.436-8.5C344,246,350.643,248.775,350.447,254.491Z" transform="translate(-181.404 -122.308)" fill="#e1806d"/>
        <path id="Path_1821" data-name="Path 1821" d="M349.456,269.726s-5.626-1.041-6.437-8.5C343.009,261.23,349.648,264.009,349.456,269.726Z" transform="translate(-180.971 -128.973)" fill="#e1806d"/>
        <path id="Path_1822" data-name="Path 1822" d="M347.333,283.653s-5.525-1.429-5.823-8.923C341.51,274.73,347.93,277.965,347.333,283.653Z" transform="translate(-180.311 -134.878)" fill="#e1806d"/>
        <path id="Path_1823" data-name="Path 1823" d="M342.818,297.912S337.287,296.489,337,289C337,289,343.408,292.224,342.818,297.912Z" transform="translate(-178.338 -141.119)" fill="#e1806d"/>
        <rect id="Rectangle_329" data-name="Rectangle 329" width="80.692" height="158.223" rx="10" transform="translate(79.832 39.046)" fill="#6756ad"/>
        <rect id="Rectangle_330" data-name="Rectangle 330" width="73.243" height="147.977" rx="6" transform="translate(83.556 43.699)" fill="#efebeb"/>
        <path id="Path_1824" data-name="Path 1824" d="M268.617,102.776h-4.765a2.644,2.644,0,0,0-2.644,2.644v1.89a2.65,2.65,0,0,1-2.65,2.65H237.317a2.644,2.644,0,0,1-2.644-2.65v-1.89a2.65,2.65,0,0,0-2.65-2.644h-13.5V101.42h50.119Z" transform="translate(-126.519 -59.077)" fill="#6756ad"/>
        <path id="Path_1825" data-name="Path 1825" d="M270.667,142.918a.985.985,0,1,0-.923,0,1.542,1.542,0,0,0-1.075,1.468v.776h3.072v-.76A1.542,1.542,0,0,0,270.667,142.918Z" transform="translate(-148.453 -76.416)" fill="#37366a"/>
        <text id="Create_Account" data-name="Create Account" transform="translate(108.627 72.823)" fill="#37366a" font-size="2" font-family="Montserrat-Regular, Montserrat"><tspan x="0" y="0">Crea</tspan><tspan y="0" letter-spacing="-0.01em">t</tspan><tspan y="0">e </tspan><tspan y="0" letter-spacing="-0.03em">A</tspan><tspan y="0" letter-spacing="-0.02em">cc</tspan><tspan y="0">ount</tspan></text>
        <rect id="Rectangle_331" data-name="Rectangle 331" width="30.478" height="6.842" rx="0.98" transform="translate(104.559 163.134)" fill="#a43f60"/>
        <text id="Register" transform="translate(114.54 166.047)" fill="#f3f4e9" font-size="1" font-family="Montserrat-Regular, Montserrat"><tspan x="0" y="0">Regis</tspan><tspan y="0" letter-spacing="-0.01em">t</tspan><tspan y="0">er</tspan></text>
        <g id="Group_1229" data-name="Group 1229" transform="translate(93.88 81.147)" opacity="0.57">
          <text id="Email_Address" data-name="Email Address" transform="translate(0 1)" fill="#37366a" font-size="1" font-family="Montserrat-Regular, Montserrat"><tspan x="0" y="0">Email </tspan><tspan y="0" letter-spacing="-0.03em">A</tspan><tspan y="0">ddress</tspan></text>
        </g>
        <rect id="Rectangle_332" data-name="Rectangle 332" width="55.745" height="8.4" rx="2.76" transform="translate(93.88 85.901)" fill="none" stroke="#37366a" stroke-miterlimit="10" stroke-width="0.5"/>
        <g id="Group_1230" data-name="Group 1230" transform="translate(93.88 99.843)" opacity="0.52">
          <text id="Country" transform="translate(0 1)" fill="#37366a" font-size="1" font-family="Montserrat-Regular, Montserrat"><tspan x="0" y="0" letter-spacing="-0.02em">C</tspan><tspan y="0">ount</tspan><tspan y="0" letter-spacing="0.03em">r</tspan><tspan y="0">y</tspan></text>
        </g>
        <rect id="Rectangle_333" data-name="Rectangle 333" width="55.745" height="8.4" rx="2.76" transform="translate(93.88 104.676)" fill="none" stroke="#37366a" stroke-miterlimit="10" stroke-width="0.5"/>
        <g id="Group_1231" data-name="Group 1231" transform="translate(93.88 119.586)" opacity="0.52">
          <text id="City" transform="translate(0 1)" fill="#37366a" font-size="1" font-family="Montserrat-Regular, Montserrat"><tspan x="0" y="0">City</tspan></text>
        </g>
        <rect id="Rectangle_334" data-name="Rectangle 334" width="55.745" height="8.4" rx="2.76" transform="translate(93.88 124.413)" fill="none" stroke="#37366a" stroke-miterlimit="10" stroke-width="0.5"/>
        <g id="Group_1232" data-name="Group 1232" transform="translate(93.88 139.424)" opacity="0.52">
          <text id="Password" transform="translate(0 1)" fill="#37366a" font-size="1" font-family="Montserrat-Regular, Montserrat"><tspan x="0" y="0">Pas</tspan><tspan y="0" letter-spacing="-0.01em">s</tspan><tspan y="0" letter-spacing="-0.02em">w</tspan><tspan y="0">ord</tspan></text>
        </g>
        <rect id="Rectangle_335" data-name="Rectangle 335" width="55.745" height="8.4" rx="2.76" transform="translate(93.88 144.252)" fill="none" stroke="#37366a" stroke-miterlimit="10" stroke-width="0.5"/>
        <path id="Path_1826" data-name="Path 1826" d="M262.478,418.441c0-.653-16.052-1.182-35.856-1.182s-35.862.529-35.862,1.182,16.057,1.187,35.862,1.187S262.478,419.1,262.478,418.441Z" transform="translate(-114.377 -197.216)" fill="#6756ad" opacity="0.25"/>
        <path id="Path_1827" data-name="Path 1827" d="M261.23,282.724s3.561,5.5,4.372,3.123L266.9,282s-1.013-1.66-1.547-1.125-1.288-.433-1.288-.433Z" transform="translate(-145.199 -137.375)" fill="#f5ba9a"/>
        <path id="Path_1828" data-name="Path 1828" d="M283.083,218.555l1.474-8.546c.968-.315,1.964-1.063,1.62-2.217a1.688,1.688,0,0,0-1.125-1.08c-.2-.079-1.232-.377-1.3,0l.563-3.083-10.026-4.839s-.917,6.138-.923,6.189a3.033,3.033,0,0,0-1.125-.3,1.688,1.688,0,0,0-1.193.962,1.986,1.986,0,0,0,1.744,2.656,11.29,11.29,0,0,0,.81,3.73c.636.979,3.59,1.654,3.59,1.654l-.326,3.719Z" transform="translate(-149.442 -101.664)" fill="#f5ba9a"/>
        <path id="Path_1829" data-name="Path 1829" d="M286.8,233.311c-4.529-1.272-10.893-2.391-10.893-2.391l-4.225,30.067,17.79-.563Z" transform="translate(-149.769 -115.717)" fill="#ffa938"/>
        <path id="Path_1830" data-name="Path 1830" d="M298.55,223.96a118.1,118.1,0,0,0,17.841,3.376c-1.35-6.189-2.093-10.87-3.865-16.108l6.678-1.688s5.626,19.518,3.9,22.117c-2.892,4.434-17.307,1.513-17.307,1.513l-6.813-1.215Z" transform="translate(-161.521 -106.366)" fill="#ffa938"/>
        <path id="Path_1831" data-name="Path 1831" d="M241.285,239.925s19.1-9.34,19.968-9,1.626,4.67,1.626,4.67a167.729,167.729,0,0,1-17.622,9.379l9.733,13.25-4.85,3.477s-13.368-15.022-12.862-18.128C237.679,241.191,241.285,239.925,241.285,239.925Z" transform="translate(-134.717 -115.714)" fill="#ffa938"/>
        <path id="Path_1832" data-name="Path 1832" d="M326.067,199.039s-.788-5.519-.883-5.677-.1-1.125-1.513-.9c0,0-.1-1.75-.911-1.784a7.557,7.557,0,0,0-1.733.191s-.923-4.5-1.525-5.266-1.564,1.39-.146,6.858c0,0,.782,3.719.563,3.854-.636.371-1.508.3-2.717-1.761-1.283-2.189-2.881-1.446-2.093.253s1.907,3.9,2.633,4.5a3.977,3.977,0,0,0,2.25.506l.225.709Z" transform="translate(-168.672 -95.831)" fill="#f5ba9a"/>
        <path id="Path_1833" data-name="Path 1833" d="M263.464,282c-2.144,32.537-9.418,72.692-9.418,72.692l7.123,3.044H245.978l10-71.038h-3.41l-25.2,71.038H212.22l8.62-3.145L246,280.22Z" transform="translate(-123.763 -137.279)" fill="#594656"/>
        <path id="Path_1834" data-name="Path 1834" d="M286.182,205.3c.85-1.688,1.84-5.812-.731-6.954a27.011,27.011,0,0,1-3.747-2.132,6.51,6.51,0,0,0-5.339-.962,4.622,4.622,0,0,0-.844.315c-1.795.878-3.01,5.654-3.01,5.654l1.767.444s1.969,8.755,5.21,10.555l3.235.686,1.919.433Z" transform="translate(-150.132 -100.026)" fill="#b96944"/>
        <path id="Path_1835" data-name="Path 1835" d="M292.333,198.485a11.256,11.256,0,0,0-.062-1.57c0-.214-.354-.214-.332,0a13.313,13.313,0,0,1,.062,1.57.169.169,0,0,0,.332,0Z" transform="translate(-158.63 -100.774)" fill="#b96944"/>
        <path id="Path_1836" data-name="Path 1836" d="M292.449,198.708a1.424,1.424,0,0,0,.416-.619,6.4,6.4,0,0,1,.529-.8c.129-.169-.158-.338-.287-.169a5.91,5.91,0,0,0-.428.63c-.113.18-.214.563-.4.67s0,.405.169.293Z" transform="translate(-158.745 -100.901)" fill="#b96944"/>
        <path id="Path_1837" data-name="Path 1837" d="M126.707,403.077c0-.653-16.057-1.187-35.862-1.187S55,402.436,55,403.077s16.057,1.187,35.862,1.187S126.707,403.747,126.707,403.077Z" transform="translate(-55 -190.494)" fill="#6756ad" opacity="0.25"/>
        <path id="Path_1838" data-name="Path 1838" d="M131.037,182.514a16.812,16.812,0,0,0-2.16-.253,4.825,4.825,0,0,0-3.426,1.558,11.213,11.213,0,0,0-2.3,3.083,4.97,4.97,0,0,0-.861,3.742,3.269,3.269,0,0,1,.248.968c0,1.041-1.452,1.435-1.9,2.38-.563,1.159.563,2.729-.186,3.764-.388.512-1.125.675-1.491,1.21a2.391,2.391,0,0,0-.248,1.463.405.405,0,0,0,.09.293.445.445,0,0,0,.242.079c4.107.394,8.175-.5,12.282-.1a5.2,5.2,0,0,0,3.516-.641c3.55-1.615,7.1-2.037,10.572-3.82a.8.8,0,0,0,.371-.3.7.7,0,0,0,.045-.371,2.436,2.436,0,0,0-1.648-2.02c-.9-.281-1.986-.034-2.74-.608a2.543,2.543,0,0,1-.816-1.817c-.146-1.378,0-2.976-.985-3.938-.788-.754-2.042-.833-2.813-1.587a10.292,10.292,0,0,1-1.046-1.525,3.891,3.891,0,0,0-4.726-1.547" transform="translate(-82.853 -94.419)" fill="#594656"/>
        <path id="Path_1839" data-name="Path 1839" d="M103.641,266.243,80.742,338.7l-9,3.471H85.108l25.847-68.264a1.125,1.125,0,0,1,1.058-.726h0a1.125,1.125,0,0,1,1.125,1.249l-6.819,67.741h13.537l-9.036-2.988s8.439-39.384,10.3-51.717-.844-21.037-.844-21.037S111.5,263.655,103.641,266.243Z" transform="translate(-62.322 -130.684)" fill="#53648c"/>
        <path id="Path_1840" data-name="Path 1840" d="M128.91,219.238c2.1-2.189,10.442-2.442,13.458-1.2s8.569,17.262,8.569,17.262l-5.519,2.166-3.426-13.4-10.735-1.48Z" transform="translate(-87.326 -109.756)" fill="#e1806d"/>
        <path id="Path_1841" data-name="Path 1841" d="M142.576,227.144a17.621,17.621,0,0,0,1.125-3.938c.2-1.688-2.127-3.376-2.127-3.376L128.949,223.1l.788,7.522-1.857,15.191,16.046.6L142.317,227.2" transform="translate(-86.876 -110.866)" fill="#e1806d"/>
        <path id="Path_1842" data-name="Path 1842" d="M131.29,232.25a.248.248,0,0,1-.152-.051.259.259,0,0,1-.056-.36l.9-1.2a.259.259,0,1,1,.411.309l-.895,1.2A.276.276,0,0,1,131.29,232.25Z" transform="translate(-88.254 -115.539)" fill="#5d95ba"/>
        <path id="Path_1843" data-name="Path 1843" d="M117.24,269.318l2.9-1.688" transform="translate(-82.222 -131.773)" fill="#8fcaec"/>
        <path id="Path_1844" data-name="Path 1844" d="M135.679,202.888c-.174-1.688.681-3.376-2.025-4.462-3.73-1.5-4.529-14.358,2.211-14.386s6.4,8.439,6.38,10.983-2.251,3.162-2.813,4.073-.079,3.792-.079,3.792Z" transform="translate(-88.159 -95.213)" fill="#f5ba9a"/>
        <path id="Path_1845" data-name="Path 1845" d="M130.651,199.061a1.305,1.305,0,1,1-1.294-1.491,1.407,1.407,0,0,1,1.294,1.491Z" transform="translate(-86.951 -101.131)" fill="#f5ba9a"/>
        <ellipse id="Ellipse_471" data-name="Ellipse 471" cx="1.294" cy="1.497" rx="1.294" ry="1.497" transform="translate(53.197 95.28)" fill="#f5ba9a"/>
        <path id="Path_1846" data-name="Path 1846" d="M139.191,242.634l-2-5.064L80.706,259.755a11.961,11.961,0,1,0,2.346,7.112,11.3,11.3,0,0,0-.1-1.452l43.019-17.442,2.363,5.193,5.249-2.4-1.845-4.135,1.688-.9,2,3.978,3.753-2-2.076-4.242ZM71.079,274.659a7.8,7.8,0,1,1,7.8-7.8A7.8,7.8,0,0,1,71.079,274.659Z" transform="translate(-56.805 -118.625)" fill="#b3adec"/>
        <path id="Path_1847" data-name="Path 1847" d="M117.779,220.75s-14.24,12.682-14.319,15.039,8.394,14.73,8.394,14.73l4.231-2.673-5.93-11.1,9.649-9.2s.315,2.138,1.086,2.717l.428-8.439Z" transform="translate(-76.195 -111.269)" fill="#e1806d"/>
        <path id="Path_1848" data-name="Path 1848" d="M140.9,186.033c-1.851.1-10.054.928-10.054.928s1.2-4.923,5.03-5.12C140.9,181.589,140.9,186.033,140.9,186.033Z" transform="translate(-88.175 -94.247)" fill="#594656"/>
        <path id="Path_1849" data-name="Path 1849" d="M130.618,194.32s6.65-.619,7.815-3.758c0,0,2.206,2.813,3.5,2.678,0,0,.208-3.713-.563-4.214s-11.005.563-11.005.563A16.153,16.153,0,0,0,130.618,194.32Z" transform="translate(-87.931 -97.335)" fill="#594656"/>
        <path id="Path_1850" data-name="Path 1850" d="M118.69,271.546s1.817,3.826,1.924,3.938.321.8,1.3.309c0,0,.461,1.249,1.063,1.086a5.514,5.514,0,0,0,1.215-.523s.726.968,1.272.456c.63-.6.034-1.266-.416-1.992a15.215,15.215,0,0,1-1.272-2.672c.377-.411,1.024-.563,2.369.67s2.414.4,1.457-.658a13.293,13.293,0,0,0-2.92-2.672,3.027,3.027,0,0,0-1.75.141l-.326-.467Z" transform="translate(-82.856 -132.442)" fill="#f5ba9a"/>
        <path id="Path_1851" data-name="Path 1851" d="M159.113,259.12s-1.024,2.9-2.813,3.376-11.77,2.515-11.77,2.515v-3.938Z" transform="translate(-94.158 -128.051)" fill="#e1806d"/>
        <path id="Path_1852" data-name="Path 1852" d="M138.146,262.317h-.765a5.1,5.1,0,0,0-.276-.709c-.315-.506-4.5-1.041-4.417-.489s.76.681,2.251.956c0,0-5.514,1.333-5,1.772s3.938-.563,3.938-.563-3.73,1.215-3.466,2.042c.152.473,3.938-.641,3.938-.641s-3.854,1.378-3.168,1.845,4.94-.563,5.351-.731.563-.934.563-.934l1.041-.18Z" transform="translate(-87.763 -128.823)" fill="#f5ba9a"/>
        <path id="Path_1853" data-name="Path 1853" d="M138.995,178.978a5.992,5.992,0,0,0,.563,1.9c.141.219.5,0,.354-.208a5.845,5.845,0,0,1-.518-1.806C139.333,178.607,138.933,178.72,138.995,178.978Z" transform="translate(-91.734 -92.886)" fill="#594656"/>
        <path id="Path_1854" data-name="Path 1854" d="M140.259,181.537c.208-.371.433-.737.675-1.092.146-.219-.208-.428-.354-.208-.242.354-.467.72-.681,1.092C139.769,181.565,140.129,181.773,140.259,181.537Z" transform="translate(-92.12 -93.509)" fill="#594656"/>
        <path id="Path_1855" data-name="Path 1855" d="M142,197.925a9.931,9.931,0,0,0,.056,1.418c.028.242,0,.675.169.855s.3.1.422.118c.45.073.906.124,1.362.186,0-.062-.051-.118-.073-.18a4.327,4.327,0,0,1-1.288.844c-.124.051,0,.231.1.18a4.394,4.394,0,0,0,1.333-.878.107.107,0,0,0-.073-.174c-.473-.062-1.435,0-1.688-.506a4.71,4.71,0,0,1-.118-1.862.1.1,0,0,0-.208,0Z" transform="translate(-93.047 -101.243)" fill="#f49e78"/>
        <path id="Path_1856" data-name="Path 1856" d="M145.563,198.949c.056-.467-.242-1.57.349-1.795s.861.236.945.681l.152.833c0,.135.219.079.2-.051-.124-.686-.152-1.857-1.17-1.716s-.6,1.446-.681,2.048A.1.1,0,0,0,145.563,198.949Z" transform="translate(-94.51 -100.833)" fill="#514540"/>
        <path id="Path_1857" data-name="Path 1857" d="M136.1,199.449c.062-.467-.242-1.57.354-1.795s.861.236.94.681l.152.833c0,.135.225.079.2-.051-.124-.686-.158-1.857-1.176-1.716s-.6,1.446-.681,2.048A.1.1,0,0,0,136.1,199.449Z" transform="translate(-90.372 -101.052)" fill="#514540"/>
        <path id="Path_1858" data-name="Path 1858" d="M138.779,203.1c.219,1.688,3.123,2.059,4.192,1.018.1-.1-.051-.236-.146-.146-.889.872-3.64.664-3.843-.872C138.982,202.975,138.762,202.975,138.779,203.1Z" transform="translate(-91.642 -103.509)" fill="#f49e78"/>
        <path id="Path_1859" data-name="Path 1859" d="M138.549,203.319a.388.388,0,0,1,.433-.264c.129,0,.186-.18.051-.2a.608.608,0,0,0-.686.411C138.307,203.393,138.5,203.449,138.549,203.319Z" transform="translate(-91.451 -103.437)" fill="#f49e78"/>
        <g id="Group_1233" data-name="Group 1233" transform="translate(44.732 98.71)" opacity="0.28">
          <path id="Path_1860" data-name="Path 1860" d="M136.612,201.827c.09.231-.315.608-.934.743a1.688,1.688,0,0,1-.793,0,.619.619,0,0,1-.354-.225.208.208,0,0,1,0-.2.7.7,0,0,1,.231-.208,2.621,2.621,0,0,1,.709-.253C136.027,201.551,136.517,201.574,136.612,201.827Z" transform="translate(-134.506 -201.605)" fill="#f28279"/>
        </g>
        <g id="Group_1234" data-name="Group 1234" transform="translate(51.499 98.231)" opacity="0.28">
          <path id="Path_1861" data-name="Path 1861" d="M148.636,200.965c.09.231-.315.6-.934.737a1.688,1.688,0,0,1-.788,0,.562.562,0,0,1-.354-.225.2.2,0,0,1,0-.2.625.625,0,0,1,.225-.208,2.622,2.622,0,0,1,.709-.253C148.05,200.707,148.546,200.729,148.636,200.965Z" transform="translate(-146.533 -200.754)" fill="#f28279"/>
        </g>
        <path id="Path_1862" data-name="Path 1862" d="M129.764,198.85a.653.653,0,0,0-.563.771.748.748,0,0,0,.7.7c.129,0,.129-.2,0-.208-.563-.039-.72-1.041-.113-1.063a.1.1,0,1,0,0-.2Z" transform="translate(-87.448 -101.69)" fill="#f49e78"/>
        <path id="Path_1863" data-name="Path 1863" d="M129.212,199.707a.968.968,0,0,0,.81.354c.129,0,.129-.214,0-.208a.765.765,0,0,1-.664-.293c-.079-.107-.225.039-.146.146Z" transform="translate(-87.448 -101.985)" fill="#f49e78"/>
        <path id="Path_1864" data-name="Path 1864" d="M151.613,198.26c.444.107.692-.3.748-.686a.748.748,0,0,0-.653-.883c-.135,0-.129.2,0,.208a.563.563,0,0,1,.456.563c0,.259-.152.658-.5.563-.129-.028-.186.169-.056.2Z" transform="translate(-97.224 -100.746)" fill="#f49e78"/>
        <path id="Path_1865" data-name="Path 1865" d="M151.752,197.783a1.074,1.074,0,0,0,.354-.664c0-.129-.18-.186-.2-.056a.917.917,0,0,1-.3.563c-.1.084.051.231.146.146Z" transform="translate(-97.239 -100.877)" fill="#f49e78"/>
      </g>
      <g id="Group_1236" data-name="Group 1236" transform="translate(97.698 90.344)">
        <path id="Path_1808-2" data-name="Path 1808" d="M60.45,134.947l62.728-.2-16-3.286s.653-17.959-7.185-14.364a13.97,13.97,0,0,0-8.164,11.427s-2.937-7.19-7.185-4.552a17.554,17.554,0,0,0-6.189,7.179s-1.525-5.165-4.248-5.458c-2.324-.253-6.752,4.664-9.07,7.427Z" transform="translate(-57.384 -65.727)" fill="#ddcaca" opacity="0.33"/>
        <path id="Path_1809-2" data-name="Path 1809" d="M367.06,190.419l51.762-.146-13.2-2.425s.563-13.346-5.924-10.69a10.306,10.306,0,0,0-6.752,8.49s-2.425-5.339-5.93-3.376a13.368,13.368,0,0,0-5.114,5.339s-1.26-3.843-3.505-4.062c-1.919-.186-5.57,3.471-7.483,5.525Z" transform="translate(-191.486 -92.05)" fill="#ddcaca" opacity="0.33"/>
        <path id="Path_1810-2" data-name="Path 1810" d="M217.45,57.442l51.762-.163L256.018,54.59s.563-14.82-5.93-11.855a11.534,11.534,0,0,0-6.752,9.43s-2.425-5.93-5.924-3.775a14.477,14.477,0,0,0-5.12,5.93s-1.255-4.265-3.5-4.5c-1.919-.208-5.57,3.848-7.483,6.127Z" transform="translate(-126.051 -33.239)" fill="#ddcaca" opacity="0.33"/>
        <path id="Path_1811-2" data-name="Path 1811" d="M344.459,41.408l-3.938,1.367-1.688-4.917a17.4,17.4,0,0,0-32.869,11.41l1.688,4.917-3.938,1.373a5.947,5.947,0,0,0-3.663,7.534l11.084,31.985a5.964,5.964,0,0,0,7.556,3.708l40.751-14.15a5.969,5.969,0,0,0,3.685-7.607L352.049,45.043a5.958,5.958,0,0,0-7.59-3.635Zm-31.074,5.283a9.53,9.53,0,1,1,18.006-6.251l1.686,4.912-18,6.256Zm23.63,29.155,2.813,8.175a.653.653,0,0,1-.439.821L335.452,86.2a.636.636,0,0,1-.8-.388l-2.813-8.169a7.6,7.6,0,1,1,5.148-1.789Z" transform="translate(-162.038 -26.162)" fill="#b3adec"/>
        <path id="Path_1812-2" data-name="Path 1812" d="M323.759,318.643c-.968-1.885,1.3-3.9,3.376-4.282s4.45-.084,6.116-1.4c2.217-1.761,2.1-5.593,4.563-7,1.975-1.125,4.591-.051,6.678-.94,2.6-1.125,3.331-4.726,5.879-5.941A4.557,4.557,0,0,1,356.1,301.2a5.907,5.907,0,0,1-.878,6.313c-1.125,1.356-2.813,2.307-3.488,3.938-1.1,2.532.63,5.6-.377,8.164-1.857,4.737-10.645,3.314-12.17,8.169a15.323,15.323,0,0,0-.287,3.376c-.259,3.376-2.633,6.3-5.559,7.972a22.737,22.737,0,0,1-9.711,2.492,7.669,7.669,0,0,1-4.051-.506A6.594,6.594,0,0,1,317,338.307c-4.04-7.314-5.705-16.879,6.752-19.63" transform="translate(-168.293 -145.37)" fill="#78ba9a"/>
        <path id="Path_1813-2" data-name="Path 1813" d="M192.715,296.87c2.177-1.435.968-4.962-1.041-6.622s-4.709-2.774-5.7-5.182c-1.311-3.218,1.125-7.252-.67-10.234-1.429-2.391-4.872-2.813-6.577-5.03-2.11-2.746-.715-7.061-2.706-9.9a5.6,5.6,0,0,0-7.4-1.176,7.171,7.171,0,0,0-2.864,7.28c.388,2.127,1.6,4.147,1.367,6.3-.349,3.376-4.045,5.626-4.5,8.957-.866,6.189,9.39,9.953,8.1,16.069a17.75,17.75,0,0,1-1.727,3.787c-1.744,3.753-.979,8.321,1.125,11.871s5.446,6.268,8.9,8.518a9.374,9.374,0,0,0,4.636,1.9,8.129,8.129,0,0,0,4.467-1.474c8.732-5.407,16.266-14.628,4.6-25.06" transform="translate(-102.047 -127.491)" fill="#ffa938"/>
        <path id="Path_1814-2" data-name="Path 1814" d="M316.818,299.7a26.546,26.546,0,0,0,8.04-6.071c6.121-6.318,9.914-14.561,11.905-23.068a84.874,84.874,0,0,0,1.834-23.49c-.034-.664-1.075-.67-1.041,0,.844,17.667-2.661,39.339-18.466,50.074a17.325,17.325,0,0,1-2.813,1.626c-.613.264-.084,1.159.523.895Z" transform="translate(-169.156 -122.562)" fill="#e1806d"/>
        <path id="Path_1815-2" data-name="Path 1815" d="M353.16,278.848s1-5.722,8.58-6.628C361.74,272.2,358.972,278.966,353.16,278.848Z" transform="translate(-185.406 -133.78)" fill="#e1806d"/>
        <path id="Path_1816-2" data-name="Path 1816" d="M348.74,295.467s2.307-5.334,9.891-4.445C358.631,291.017,354.361,296.958,348.74,295.467Z" transform="translate(-183.473 -141.96)" fill="#e1806d"/>
        <path id="Path_1817-2" data-name="Path 1817" d="M343,310s3.443-4.681,10.634-2.115C353.645,307.883,348.154,312.716,343,310Z" transform="translate(-180.963 -149.042)" fill="#e1806d"/>
        <path id="Path_1818-2" data-name="Path 1818" d="M355.23,263.1s.979-5.626,8.439-6.515C363.664,256.58,360.946,263.242,355.23,263.1Z" transform="translate(-186.312 -126.94)" fill="#e1806d"/>
        <path id="Path_1819-2" data-name="Path 1819" d="M353.67,242.546s-4.248-3.82-1.041-10.606C352.629,231.94,356.815,237.774,353.67,242.546Z" transform="translate(-184.65 -116.163)" fill="#e1806d"/>
        <path id="Path_1820-2" data-name="Path 1820" d="M350.447,254.491s-5.626-1.041-6.436-8.5C344,246,350.643,248.775,350.447,254.491Z" transform="translate(-181.404 -122.308)" fill="#e1806d"/>
        <path id="Path_1821-2" data-name="Path 1821" d="M349.456,269.726s-5.626-1.041-6.437-8.5C343.009,261.23,349.648,264.009,349.456,269.726Z" transform="translate(-180.971 -128.973)" fill="#e1806d"/>
        <path id="Path_1822-2" data-name="Path 1822" d="M347.333,283.653s-5.525-1.429-5.823-8.923C341.51,274.73,347.93,277.965,347.333,283.653Z" transform="translate(-180.311 -134.878)" fill="#e1806d"/>
        <path id="Path_1823-2" data-name="Path 1823" d="M342.818,297.912S337.287,296.489,337,289C337,289,343.408,292.224,342.818,297.912Z" transform="translate(-178.338 -141.119)" fill="#e1806d"/>
        <rect id="Rectangle_329-2" data-name="Rectangle 329" width="80.692" height="158.223" rx="10" transform="translate(79.832 39.046)" fill="#6756ad"/>
        <rect id="Rectangle_330-2" data-name="Rectangle 330" width="73.243" height="147.977" rx="6" transform="translate(83.556 43.699)" fill="#efebeb"/>
        <path id="Path_1824-2" data-name="Path 1824" d="M268.617,102.776h-4.765a2.644,2.644,0,0,0-2.644,2.644v1.89a2.65,2.65,0,0,1-2.65,2.65H237.317a2.644,2.644,0,0,1-2.644-2.65v-1.89a2.65,2.65,0,0,0-2.65-2.644h-13.5V101.42h50.119Z" transform="translate(-126.519 -59.077)" fill="#6756ad"/>
        <path id="Path_1825-2" data-name="Path 1825" d="M270.667,142.918a.985.985,0,1,0-.923,0,1.542,1.542,0,0,0-1.075,1.468v.776h3.072v-.76A1.542,1.542,0,0,0,270.667,142.918Z" transform="translate(-148.453 -76.416)" fill="#37366a"/>
        <text id="Create_Account-2" data-name="Create Account" transform="translate(108.627 72.823)" fill="#37366a" font-size="2" font-family="Montserrat-Regular, Montserrat"><tspan x="0" y="0">Crea</tspan><tspan y="0" letter-spacing="-0.01em">t</tspan><tspan y="0">e </tspan><tspan y="0" letter-spacing="-0.03em">A</tspan><tspan y="0" letter-spacing="-0.02em">cc</tspan><tspan y="0">ount</tspan></text>
        <rect id="Rectangle_331-2" data-name="Rectangle 331" width="30.478" height="6.842" rx="0.98" transform="translate(104.559 163.134)" fill="#a43f60"/>
        <text id="Register-2" data-name="Register" transform="translate(114.54 166.047)" fill="#f3f4e9" font-size="1" font-family="Montserrat-Regular, Montserrat"><tspan x="0" y="0">Regis</tspan><tspan y="0" letter-spacing="-0.01em">t</tspan><tspan y="0">er</tspan></text>
        <g id="Group_1229-2" data-name="Group 1229" transform="translate(93.88 81.147)" opacity="0.57">
          <text id="Email_Address-2" data-name="Email Address" transform="translate(0 1)" fill="#37366a" font-size="1" font-family="Montserrat-Regular, Montserrat"><tspan x="0" y="0">Email </tspan><tspan y="0" letter-spacing="-0.03em">A</tspan><tspan y="0">ddress</tspan></text>
        </g>
        <rect id="Rectangle_332-2" data-name="Rectangle 332" width="55.745" height="8.4" rx="2.76" transform="translate(93.88 85.901)" fill="none" stroke="#37366a" stroke-miterlimit="10" stroke-width="0.5"/>
        <g id="Group_1230-2" data-name="Group 1230" transform="translate(93.88 99.843)" opacity="0.52">
          <text id="Country-2" data-name="Country" transform="translate(0 1)" fill="#37366a" font-size="1" font-family="Montserrat-Regular, Montserrat"><tspan x="0" y="0" letter-spacing="-0.02em">C</tspan><tspan y="0">ount</tspan><tspan y="0" letter-spacing="0.03em">r</tspan><tspan y="0">y</tspan></text>
        </g>
        <rect id="Rectangle_333-2" data-name="Rectangle 333" width="55.745" height="8.4" rx="2.76" transform="translate(93.88 104.676)" fill="none" stroke="#37366a" stroke-miterlimit="10" stroke-width="0.5"/>
        <g id="Group_1231-2" data-name="Group 1231" transform="translate(93.88 119.586)" opacity="0.52">
          <text id="City-2" data-name="City" transform="translate(0 1)" fill="#37366a" font-size="1" font-family="Montserrat-Regular, Montserrat"><tspan x="0" y="0">City</tspan></text>
        </g>
        <rect id="Rectangle_334-2" data-name="Rectangle 334" width="55.745" height="8.4" rx="2.76" transform="translate(93.88 124.413)" fill="none" stroke="#37366a" stroke-miterlimit="10" stroke-width="0.5"/>
        <g id="Group_1232-2" data-name="Group 1232" transform="translate(93.88 139.424)" opacity="0.52">
          <text id="Password-2" data-name="Password" transform="translate(0 1)" fill="#37366a" font-size="1" font-family="Montserrat-Regular, Montserrat"><tspan x="0" y="0">Pas</tspan><tspan y="0" letter-spacing="-0.01em">s</tspan><tspan y="0" letter-spacing="-0.02em">w</tspan><tspan y="0">ord</tspan></text>
        </g>
        <rect id="Rectangle_335-2" data-name="Rectangle 335" width="55.745" height="8.4" rx="2.76" transform="translate(93.88 144.252)" fill="none" stroke="#37366a" stroke-miterlimit="10" stroke-width="0.5"/>
        <path id="Path_1826-2" data-name="Path 1826" d="M262.478,418.441c0-.653-16.052-1.182-35.856-1.182s-35.862.529-35.862,1.182,16.057,1.187,35.862,1.187S262.478,419.1,262.478,418.441Z" transform="translate(-114.377 -197.216)" fill="#6756ad" opacity="0.25"/>
        <path id="Path_1827-2" data-name="Path 1827" d="M261.23,282.724s3.561,5.5,4.372,3.123L266.9,282s-1.013-1.66-1.547-1.125-1.288-.433-1.288-.433Z" transform="translate(-145.199 -137.375)" fill="#f5ba9a"/>
        <path id="Path_1828-2" data-name="Path 1828" d="M283.083,218.555l1.474-8.546c.968-.315,1.964-1.063,1.62-2.217a1.688,1.688,0,0,0-1.125-1.08c-.2-.079-1.232-.377-1.3,0l.563-3.083-10.026-4.839s-.917,6.138-.923,6.189a3.033,3.033,0,0,0-1.125-.3,1.688,1.688,0,0,0-1.193.962,1.986,1.986,0,0,0,1.744,2.656,11.29,11.29,0,0,0,.81,3.73c.636.979,3.59,1.654,3.59,1.654l-.326,3.719Z" transform="translate(-149.442 -101.664)" fill="#f5ba9a"/>
        <path id="Path_1829-2" data-name="Path 1829" d="M286.8,233.311c-4.529-1.272-10.893-2.391-10.893-2.391l-4.225,30.067,17.79-.563Z" transform="translate(-149.769 -115.717)" fill="#ffa938"/>
        <path id="Path_1830-2" data-name="Path 1830" d="M298.55,223.96a118.1,118.1,0,0,0,17.841,3.376c-1.35-6.189-2.093-10.87-3.865-16.108l6.678-1.688s5.626,19.518,3.9,22.117c-2.892,4.434-17.307,1.513-17.307,1.513l-6.813-1.215Z" transform="translate(-161.521 -106.366)" fill="#ffa938"/>
        <path id="Path_1831-2" data-name="Path 1831" d="M241.285,239.925s19.1-9.34,19.968-9,1.626,4.67,1.626,4.67a167.729,167.729,0,0,1-17.622,9.379l9.733,13.25-4.85,3.477s-13.368-15.022-12.862-18.128C237.679,241.191,241.285,239.925,241.285,239.925Z" transform="translate(-134.717 -115.714)" fill="#ffa938"/>
        <path id="Path_1832-2" data-name="Path 1832" d="M326.067,199.039s-.788-5.519-.883-5.677-.1-1.125-1.513-.9c0,0-.1-1.75-.911-1.784a7.557,7.557,0,0,0-1.733.191s-.923-4.5-1.525-5.266-1.564,1.39-.146,6.858c0,0,.782,3.719.563,3.854-.636.371-1.508.3-2.717-1.761-1.283-2.189-2.881-1.446-2.093.253s1.907,3.9,2.633,4.5a3.977,3.977,0,0,0,2.25.506l.225.709Z" transform="translate(-168.672 -95.831)" fill="#f5ba9a"/>
        <path id="Path_1833-2" data-name="Path 1833" d="M263.464,282c-2.144,32.537-9.418,72.692-9.418,72.692l7.123,3.044H245.978l10-71.038h-3.41l-25.2,71.038H212.22l8.62-3.145L246,280.22Z" transform="translate(-123.763 -137.279)" fill="#594656"/>
        <path id="Path_1834-2" data-name="Path 1834" d="M286.182,205.3c.85-1.688,1.84-5.812-.731-6.954a27.011,27.011,0,0,1-3.747-2.132,6.51,6.51,0,0,0-5.339-.962,4.622,4.622,0,0,0-.844.315c-1.795.878-3.01,5.654-3.01,5.654l1.767.444s1.969,8.755,5.21,10.555l3.235.686,1.919.433Z" transform="translate(-150.132 -100.026)" fill="#b96944"/>
        <path id="Path_1835-2" data-name="Path 1835" d="M292.333,198.485a11.256,11.256,0,0,0-.062-1.57c0-.214-.354-.214-.332,0a13.313,13.313,0,0,1,.062,1.57.169.169,0,0,0,.332,0Z" transform="translate(-158.63 -100.774)" fill="#b96944"/>
        <path id="Path_1836-2" data-name="Path 1836" d="M292.449,198.708a1.424,1.424,0,0,0,.416-.619,6.4,6.4,0,0,1,.529-.8c.129-.169-.158-.338-.287-.169a5.91,5.91,0,0,0-.428.63c-.113.18-.214.563-.4.67s0,.405.169.293Z" transform="translate(-158.745 -100.901)" fill="#b96944"/>
        <path id="Path_1837-2" data-name="Path 1837" d="M126.707,403.077c0-.653-16.057-1.187-35.862-1.187S55,402.436,55,403.077s16.057,1.187,35.862,1.187S126.707,403.747,126.707,403.077Z" transform="translate(-55 -190.494)" fill="#6756ad" opacity="0.25"/>
        <path id="Path_1838-2" data-name="Path 1838" d="M131.037,182.514a16.812,16.812,0,0,0-2.16-.253,4.825,4.825,0,0,0-3.426,1.558,11.213,11.213,0,0,0-2.3,3.083,4.97,4.97,0,0,0-.861,3.742,3.269,3.269,0,0,1,.248.968c0,1.041-1.452,1.435-1.9,2.38-.563,1.159.563,2.729-.186,3.764-.388.512-1.125.675-1.491,1.21a2.391,2.391,0,0,0-.248,1.463.405.405,0,0,0,.09.293.445.445,0,0,0,.242.079c4.107.394,8.175-.5,12.282-.1a5.2,5.2,0,0,0,3.516-.641c3.55-1.615,7.1-2.037,10.572-3.82a.8.8,0,0,0,.371-.3.7.7,0,0,0,.045-.371,2.436,2.436,0,0,0-1.648-2.02c-.9-.281-1.986-.034-2.74-.608a2.543,2.543,0,0,1-.816-1.817c-.146-1.378,0-2.976-.985-3.938-.788-.754-2.042-.833-2.813-1.587a10.292,10.292,0,0,1-1.046-1.525,3.891,3.891,0,0,0-4.726-1.547" transform="translate(-82.853 -94.419)" fill="#594656"/>
        <path id="Path_1839-2" data-name="Path 1839" d="M103.641,266.243,80.742,338.7l-9,3.471H85.108l25.847-68.264a1.125,1.125,0,0,1,1.058-.726h0a1.125,1.125,0,0,1,1.125,1.249l-6.819,67.741h13.537l-9.036-2.988s8.439-39.384,10.3-51.717-.844-21.037-.844-21.037S111.5,263.655,103.641,266.243Z" transform="translate(-62.322 -130.684)" fill="#53648c"/>
        <path id="Path_1840-2" data-name="Path 1840" d="M128.91,219.238c2.1-2.189,10.442-2.442,13.458-1.2s8.569,17.262,8.569,17.262l-5.519,2.166-3.426-13.4-10.735-1.48Z" transform="translate(-87.326 -109.756)" fill="#e1806d"/>
        <path id="Path_1841-2" data-name="Path 1841" d="M142.576,227.144a17.621,17.621,0,0,0,1.125-3.938c.2-1.688-2.127-3.376-2.127-3.376L128.949,223.1l.788,7.522-1.857,15.191,16.046.6L142.317,227.2" transform="translate(-86.876 -110.866)" fill="#e1806d"/>
        <path id="Path_1842-2" data-name="Path 1842" d="M131.29,232.25a.248.248,0,0,1-.152-.051.259.259,0,0,1-.056-.36l.9-1.2a.259.259,0,1,1,.411.309l-.895,1.2A.276.276,0,0,1,131.29,232.25Z" transform="translate(-88.254 -115.539)" fill="#5d95ba"/>
        <path id="Path_1843-2" data-name="Path 1843" d="M117.24,269.318l2.9-1.688" transform="translate(-82.222 -131.773)" fill="#8fcaec"/>
        <path id="Path_1844-2" data-name="Path 1844" d="M135.679,202.888c-.174-1.688.681-3.376-2.025-4.462-3.73-1.5-4.529-14.358,2.211-14.386s6.4,8.439,6.38,10.983-2.251,3.162-2.813,4.073-.079,3.792-.079,3.792Z" transform="translate(-88.159 -95.213)" fill="#f5ba9a"/>
        <path id="Path_1845-2" data-name="Path 1845" d="M130.651,199.061a1.305,1.305,0,1,1-1.294-1.491,1.407,1.407,0,0,1,1.294,1.491Z" transform="translate(-86.951 -101.131)" fill="#f5ba9a"/>
        <ellipse id="Ellipse_471-2" data-name="Ellipse 471" cx="1.294" cy="1.497" rx="1.294" ry="1.497" transform="translate(53.197 95.28)" fill="#f5ba9a"/>
        <path id="Path_1846-2" data-name="Path 1846" d="M139.191,242.634l-2-5.064L80.706,259.755a11.961,11.961,0,1,0,2.346,7.112,11.3,11.3,0,0,0-.1-1.452l43.019-17.442,2.363,5.193,5.249-2.4-1.845-4.135,1.688-.9,2,3.978,3.753-2-2.076-4.242ZM71.079,274.659a7.8,7.8,0,1,1,7.8-7.8A7.8,7.8,0,0,1,71.079,274.659Z" transform="translate(-56.805 -118.625)" fill="#b3adec"/>
        <path id="Path_1847-2" data-name="Path 1847" d="M117.779,220.75s-14.24,12.682-14.319,15.039,8.394,14.73,8.394,14.73l4.231-2.673-5.93-11.1,9.649-9.2s.315,2.138,1.086,2.717l.428-8.439Z" transform="translate(-76.195 -111.269)" fill="#e1806d"/>
        <path id="Path_1848-2" data-name="Path 1848" d="M140.9,186.033c-1.851.1-10.054.928-10.054.928s1.2-4.923,5.03-5.12C140.9,181.589,140.9,186.033,140.9,186.033Z" transform="translate(-88.175 -94.247)" fill="#594656"/>
        <path id="Path_1849-2" data-name="Path 1849" d="M130.618,194.32s6.65-.619,7.815-3.758c0,0,2.206,2.813,3.5,2.678,0,0,.208-3.713-.563-4.214s-11.005.563-11.005.563A16.153,16.153,0,0,0,130.618,194.32Z" transform="translate(-87.931 -97.335)" fill="#594656"/>
        <path id="Path_1850-2" data-name="Path 1850" d="M118.69,271.546s1.817,3.826,1.924,3.938.321.8,1.3.309c0,0,.461,1.249,1.063,1.086a5.514,5.514,0,0,0,1.215-.523s.726.968,1.272.456c.63-.6.034-1.266-.416-1.992a15.215,15.215,0,0,1-1.272-2.672c.377-.411,1.024-.563,2.369.67s2.414.4,1.457-.658a13.293,13.293,0,0,0-2.92-2.672,3.027,3.027,0,0,0-1.75.141l-.326-.467Z" transform="translate(-82.856 -132.442)" fill="#f5ba9a"/>
        <path id="Path_1851-2" data-name="Path 1851" d="M159.113,259.12s-1.024,2.9-2.813,3.376-11.77,2.515-11.77,2.515v-3.938Z" transform="translate(-94.158 -128.051)" fill="#e1806d"/>
        <path id="Path_1852-2" data-name="Path 1852" d="M138.146,262.317h-.765a5.1,5.1,0,0,0-.276-.709c-.315-.506-4.5-1.041-4.417-.489s.76.681,2.251.956c0,0-5.514,1.333-5,1.772s3.938-.563,3.938-.563-3.73,1.215-3.466,2.042c.152.473,3.938-.641,3.938-.641s-3.854,1.378-3.168,1.845,4.94-.563,5.351-.731.563-.934.563-.934l1.041-.18Z" transform="translate(-87.763 -128.823)" fill="#f5ba9a"/>
        <path id="Path_1853-2" data-name="Path 1853" d="M138.995,178.978a5.992,5.992,0,0,0,.563,1.9c.141.219.5,0,.354-.208a5.845,5.845,0,0,1-.518-1.806C139.333,178.607,138.933,178.72,138.995,178.978Z" transform="translate(-91.734 -92.886)" fill="#594656"/>
        <path id="Path_1854-2" data-name="Path 1854" d="M140.259,181.537c.208-.371.433-.737.675-1.092.146-.219-.208-.428-.354-.208-.242.354-.467.72-.681,1.092C139.769,181.565,140.129,181.773,140.259,181.537Z" transform="translate(-92.12 -93.509)" fill="#594656"/>
        <path id="Path_1855-2" data-name="Path 1855" d="M142,197.925a9.931,9.931,0,0,0,.056,1.418c.028.242,0,.675.169.855s.3.1.422.118c.45.073.906.124,1.362.186,0-.062-.051-.118-.073-.18a4.327,4.327,0,0,1-1.288.844c-.124.051,0,.231.1.18a4.394,4.394,0,0,0,1.333-.878.107.107,0,0,0-.073-.174c-.473-.062-1.435,0-1.688-.506a4.71,4.71,0,0,1-.118-1.862.1.1,0,0,0-.208,0Z" transform="translate(-93.047 -101.243)" fill="#f49e78"/>
        <path id="Path_1856-2" data-name="Path 1856" d="M145.563,198.949c.056-.467-.242-1.57.349-1.795s.861.236.945.681l.152.833c0,.135.219.079.2-.051-.124-.686-.152-1.857-1.17-1.716s-.6,1.446-.681,2.048A.1.1,0,0,0,145.563,198.949Z" transform="translate(-94.51 -100.833)" fill="#514540"/>
        <path id="Path_1857-2" data-name="Path 1857" d="M136.1,199.449c.062-.467-.242-1.57.354-1.795s.861.236.94.681l.152.833c0,.135.225.079.2-.051-.124-.686-.158-1.857-1.176-1.716s-.6,1.446-.681,2.048A.1.1,0,0,0,136.1,199.449Z" transform="translate(-90.372 -101.052)" fill="#514540"/>
        <path id="Path_1858-2" data-name="Path 1858" d="M138.779,203.1c.219,1.688,3.123,2.059,4.192,1.018.1-.1-.051-.236-.146-.146-.889.872-3.64.664-3.843-.872C138.982,202.975,138.762,202.975,138.779,203.1Z" transform="translate(-91.642 -103.509)" fill="#f49e78"/>
        <path id="Path_1859-2" data-name="Path 1859" d="M138.549,203.319a.388.388,0,0,1,.433-.264c.129,0,.186-.18.051-.2a.608.608,0,0,0-.686.411C138.307,203.393,138.5,203.449,138.549,203.319Z" transform="translate(-91.451 -103.437)" fill="#f49e78"/>
        <g id="Group_1233-2" data-name="Group 1233" transform="translate(44.732 98.71)" opacity="0.28">
          <path id="Path_1860-2" data-name="Path 1860" d="M136.612,201.827c.09.231-.315.608-.934.743a1.688,1.688,0,0,1-.793,0,.619.619,0,0,1-.354-.225.208.208,0,0,1,0-.2.7.7,0,0,1,.231-.208,2.621,2.621,0,0,1,.709-.253C136.027,201.551,136.517,201.574,136.612,201.827Z" transform="translate(-134.506 -201.605)" fill="#f28279"/>
        </g>
        <g id="Group_1234-2" data-name="Group 1234" transform="translate(51.499 98.231)" opacity="0.28">
          <path id="Path_1861-2" data-name="Path 1861" d="M148.636,200.965c.09.231-.315.6-.934.737a1.688,1.688,0,0,1-.788,0,.562.562,0,0,1-.354-.225.2.2,0,0,1,0-.2.625.625,0,0,1,.225-.208,2.622,2.622,0,0,1,.709-.253C148.05,200.707,148.546,200.729,148.636,200.965Z" transform="translate(-146.533 -200.754)" fill="#f28279"/>
        </g>
        <path id="Path_1862-2" data-name="Path 1862" d="M129.764,198.85a.653.653,0,0,0-.563.771.748.748,0,0,0,.7.7c.129,0,.129-.2,0-.208-.563-.039-.72-1.041-.113-1.063a.1.1,0,1,0,0-.2Z" transform="translate(-87.448 -101.69)" fill="#f49e78"/>
        <path id="Path_1863-2" data-name="Path 1863" d="M129.212,199.707a.968.968,0,0,0,.81.354c.129,0,.129-.214,0-.208a.765.765,0,0,1-.664-.293c-.079-.107-.225.039-.146.146Z" transform="translate(-87.448 -101.985)" fill="#f49e78"/>
        <path id="Path_1864-2" data-name="Path 1864" d="M151.613,198.26c.444.107.692-.3.748-.686a.748.748,0,0,0-.653-.883c-.135,0-.129.2,0,.208a.563.563,0,0,1,.456.563c0,.259-.152.658-.5.563-.129-.028-.186.169-.056.2Z" transform="translate(-97.224 -100.746)" fill="#f49e78"/>
        <path id="Path_1865-2" data-name="Path 1865" d="M151.752,197.783a1.074,1.074,0,0,0,.354-.664c0-.129-.18-.186-.2-.056a.917.917,0,0,1-.3.563c-.1.084.051.231.146.146Z" transform="translate(-97.239 -100.877)" fill="#f49e78"/>
      </g>
    </g>
    <text id="Sign_in_Google" data-name="Sign in Google" transform="translate(56 506)" font-size="15" font-family="Helvetica"><tspan x="0" y="0">Sign in Google</tspan></text>
    <g id="google" transform="translate(289.646 493)">
      <path id="Path_3415" data-name="Path 3415" d="M3.26,143.184,2.748,145.1l-1.871.04a7.367,7.367,0,0,1-.054-6.867h0l1.666.305.73,1.656a4.389,4.389,0,0,0,.041,2.955Z" transform="translate(0 -134.296)" fill="#fbbb00"/>
      <path id="Path_3416" data-name="Path 3416" d="M268.692,208.176a7.351,7.351,0,0,1-2.622,7.109h0l-2.1-.107-.3-1.854a4.383,4.383,0,0,0,1.886-2.238h-3.932v-2.909h7.064Z" transform="translate(-254.112 -202.196)" fill="#518ef8"/>
      <path id="Path_3417" data-name="Path 3417" d="M41.59,313.609h0a7.357,7.357,0,0,1-11.082-2.25l2.383-1.951a4.374,4.374,0,0,0,6.3,2.239Z" transform="translate(-29.633 -300.521)" fill="#28b446"/>
      <path id="Path_3418" data-name="Path 3418" d="M39.85,1.693l-2.382,1.95a4.373,4.373,0,0,0-6.447,2.29l-2.4-1.961h0A7.356,7.356,0,0,1,39.85,1.693Z" transform="translate(-27.802)" fill="#f14336"/>
    </g>
  </g>
</svg>
