<svg xmlns="http://www.w3.org/2000/svg" xmlns:xlink="http://www.w3.org/1999/xlink" width="203.539" height="229.932" viewBox="0 0 203.539 229.932">
  <defs>
    <linearGradient id="linear-gradient" x1="0.5" y1="1" x2="0.5" gradientUnits="objectBoundingBox">
      <stop offset="0" stop-color="gray" stop-opacity="0.251"/>
      <stop offset="0.54" stop-color="gray" stop-opacity="0.122"/>
      <stop offset="1" stop-color="gray" stop-opacity="0.102"/>
    </linearGradient>
    <linearGradient id="linear-gradient-2" x1="0.5" y1="1" x2="0.5" y2="0" xlink:href="#linear-gradient"/>
    <linearGradient id="linear-gradient-3" x1="-0.001" y1="0.5" x2="1" y2="0.5" xlink:href="#linear-gradient"/>
  </defs>
  <g id="Group_1202" data-name="Group 1202" transform="translate(-81 -135.128)">
    <g id="Group_1194" data-name="Group 1194" transform="translate(225.153 254.584)" opacity="0.2">
      <path id="Path_1650" data-name="Path 1650" d="M748.652,751.354a6.967,6.967,0,0,1-.632.973q-3.146-2.212-6.4-4.344l.141-.278a6.146,6.146,0,0,1,2.176-2.371,3.636,3.636,0,0,1,3.658-.3,3.677,3.677,0,0,1,1.8,3.194,6.167,6.167,0,0,1-.739,3.125Z" transform="translate(-741.62 -660.953)" fill="#3f3d56"/>
      <ellipse id="Ellipse_366" data-name="Ellipse 366" cx="5.104" cy="3.898" rx="5.104" ry="3.898" transform="translate(0.674 85.781) rotate(-62.09)" fill="#3f3d56"/>
      <ellipse id="Ellipse_367" data-name="Ellipse 367" cx="5.104" cy="3.898" rx="5.104" ry="3.898" transform="translate(3.594 80.268) rotate(-62.09)" fill="#3f3d56"/>
      <ellipse id="Ellipse_368" data-name="Ellipse 368" cx="5.104" cy="3.898" rx="5.104" ry="3.898" transform="translate(6.515 74.756) rotate(-62.09)" fill="#3f3d56"/>
      <ellipse id="Ellipse_369" data-name="Ellipse 369" cx="5.104" cy="3.898" rx="5.104" ry="3.898" transform="translate(9.432 69.247) rotate(-62.09)" fill="#3f3d56"/>
      <path id="Path_1651" data-name="Path 1651" d="M765.018,487.024a18.474,18.474,0,0,1-.3-2.569l9.855,3.317-9.828-5.113a18.7,18.7,0,0,1,6.61-13.241l9.523,13.771-7.394-15.316a18.672,18.672,0,1,1,17.471,32.9,18.682,18.682,0,0,1,.3,4.009l-14.968-.12,14.753,2.431a18.671,18.671,0,0,1-10.864,14.07,18.672,18.672,0,1,1-25.94-13.738,18.678,18.678,0,0,1,10.807-20.4Z" transform="translate(-742.677 -465.029)" fill="#38d39f"/>
      <path id="Path_1652" data-name="Path 1652" d="M789.029,609.38a18.6,18.6,0,0,1-8.933,8.331,18.672,18.672,0,1,1-25.94-13.738C753.431,599.995,790.01,607.527,789.029,609.38Z" transform="translate(-742.621 -561.576)" opacity="0.1"/>
    </g>
    <g id="Group_1195" data-name="Group 1195" transform="translate(81 135.494)" opacity="0.2">
      <path id="Path_1653" data-name="Path 1653" d="M476.137,660.733a12.96,12.96,0,0,0,.716,2.111q6.918-2.65,14-5.089c-.042-.192-.084-.389-.132-.6a11.833,11.833,0,0,0-2.943-5.454,6.521,6.521,0,0,0-11.538,2.805A11.84,11.84,0,0,0,476.137,660.733Z" transform="translate(-411.202 -474.991)" fill="#3f3d56"/>
      <ellipse id="Ellipse_370" data-name="Ellipse 370" cx="7.505" cy="9.822" rx="7.505" ry="9.822" transform="translate(59.767 164.518) rotate(-13.72)" fill="#3f3d56"/>
      <ellipse id="Ellipse_371" data-name="Ellipse 371" cx="7.505" cy="9.822" rx="7.505" ry="9.822" transform="translate(56.917 152.853) rotate(-13.72)" fill="#3f3d56"/>
      <ellipse id="Ellipse_372" data-name="Ellipse 372" cx="7.505" cy="9.822" rx="7.505" ry="9.822" transform="translate(54.07 141.189) rotate(-13.72)" fill="#3f3d56"/>
      <ellipse id="Ellipse_373" data-name="Ellipse 373" cx="7.505" cy="9.822" rx="7.505" ry="9.822" transform="translate(51.223 129.528) rotate(-13.72)" fill="#3f3d56"/>
      <path id="Path_1654" data-name="Path 1654" d="M328.734,118.048a35.52,35.52,0,0,0,1.739-4.658l-19.923,1.53,20.764-4.913a36.02,36.02,0,0,0-6.086-27.841l-24.285,21.213,21.034-25.1a35.945,35.945,0,1,0-48.141,53.153,35.725,35.725,0,0,0-2.428,7.34l28.018,6.85-28.679-2.431a35.966,35.966,0,0,0,13.633,31.434,35.945,35.945,0,1,0,54.895-13.4,35.948,35.948,0,0,0-10.541-43.184Z" transform="translate(-260.093 -67.221)" fill="#38d39f"/>
      <path id="Path_1655" data-name="Path 1655" d="M298.638,355.98a35.778,35.778,0,0,0,12.741,19.758,35.945,35.945,0,1,0,54.9-13.4C369.5,355.264,297.68,352.061,298.638,355.98Z" transform="translate(-287.092 -268.35)" opacity="0.1"/>
    </g>
    <path id="Path_1656" data-name="Path 1656" d="M556.163,116.372H555.5v-36A14.483,14.483,0,0,0,540.9,66H459.132a14.486,14.486,0,0,0-14.6,14.37V95.293h-.195a.853.853,0,0,0-.859.844v7.185a.853.853,0,0,0,.859.844h.21V111.5h-.263a.85.85,0,0,0-.856.844v13.738a.853.853,0,0,0,.856.847h.263v5.389h-.228a.85.85,0,0,0-.859.844v13.873a.85.85,0,0,0,.859.844h.228V273.731a14.483,14.483,0,0,0,14.6,14.37H540.9a14.487,14.487,0,0,0,14.6-14.37V143.3h.671a.853.853,0,0,0,.859-.844V117.216a.853.853,0,0,0-.859-.844Z" transform="translate(-307.545 69.128)" fill="url(#linear-gradient)"/>
    <rect id="Rectangle_268" data-name="Rectangle 268" width="3.224" height="26.59" rx="1.612" transform="translate(244.78 186.383)" fill="#e5e7eb"/>
    <rect id="Rectangle_269" data-name="Rectangle 269" width="1.811" height="8.753" rx="0.906" transform="translate(137.568 165.553)" fill="#e5e7eb"/>
    <rect id="Rectangle_270" data-name="Rectangle 270" width="2.042" height="15.235" rx="1.021" transform="translate(137.502 181.578)" fill="#e5e7eb"/>
    <rect id="Rectangle_271" data-name="Rectangle 271" width="1.943" height="15.367" rx="0.971" transform="translate(137.535 202.144)" fill="#e5e7eb"/>
    <rect id="Rectangle_272" data-name="Rectangle 272" width="107.928" height="219.349" rx="15" transform="translate(138.591 136.625)" fill="#fff"/>
    <rect id="Rectangle_273" data-name="Rectangle 273" width="15.073" height="3.06" rx="1.53" transform="translate(182.146 143.175)" fill="#e5e7eb"/>
    <circle id="Ellipse_374" data-name="Ellipse 374" cx="1.736" cy="1.736" r="1.736" transform="translate(199.495 142.968)" fill="#e5e7eb"/>
    <path id="Path_1657" data-name="Path 1657" d="M560.766,90.09H548.411v1.5a7.059,7.059,0,0,1-7.059,7.056H501.961a7.059,7.059,0,0,1-7.059-7.056v-1.5H483.311a8.571,8.571,0,0,0-8.571,8.571V289.442a8.571,8.571,0,0,0,8.571,8.571h77.455a8.571,8.571,0,0,0,8.571-8.571V98.661A8.571,8.571,0,0,0,560.766,90.09Z" transform="translate(-329.482 52.25)" fill="#ececf3"/>
    <ellipse id="Ellipse_375" data-name="Ellipse 375" cx="17.121" cy="2.895" rx="17.121" ry="2.895" transform="translate(89.974 357.806)" fill="#38d39f"/>
    <path id="Path_1658" data-name="Path 1658" d="M333.825,785.188a5.012,5.012,0,0,0,1.632-2.464,2.195,2.195,0,0,0-1.141-2.509c-1.048-.4-2.167.323-3.015,1.057s-1.823,1.572-2.934,1.416a4.461,4.461,0,0,0,1.38-4.191,1.727,1.727,0,0,0-.383-.847c-.581-.623-1.635-.356-2.332.135-2.212,1.557-2.832,4.565-2.844,7.275a13.7,13.7,0,0,1-.042-2.994,3.086,3.086,0,0,0-1.123-2.652,3.411,3.411,0,0,0-1.718-.4,3.556,3.556,0,0,0-2.781.79,2.767,2.767,0,0,0,.108,3.419,10.753,10.753,0,0,0,2.883,2.308,6.384,6.384,0,0,1,2.057,1.964,1.768,1.768,0,0,1,.153.35h6.236A17.484,17.484,0,0,0,333.825,785.188Z" transform="translate(-219.65 -429.222)" fill="#38d39f"/>
    <g id="Group_1197" data-name="Group 1197" transform="translate(256.814 337.556)" opacity="0.4">
      <ellipse id="Ellipse_376" data-name="Ellipse 376" cx="9.771" cy="1.653" rx="9.771" ry="1.653" transform="translate(0 5.567)" fill="#38d39f"/>
      <path id="Path_1659" data-name="Path 1659" d="M872.347,746.7a2.856,2.856,0,0,0,.934-1.4,1.254,1.254,0,0,0-.653-1.434,1.841,1.841,0,0,0-1.721.6c-.485.413-1.039.9-1.673.808a2.542,2.542,0,0,0,.787-2.4.975.975,0,0,0-.219-.482c-.332-.356-.934-.2-1.329.075-1.263.9-1.617,2.608-1.626,4.152a7.952,7.952,0,0,1-.021-1.709,1.772,1.772,0,0,0-.644-1.515,1.951,1.951,0,0,0-.979-.228,2.039,2.039,0,0,0-1.59.449,1.582,1.582,0,0,0,.063,1.952,6.106,6.106,0,0,0,1.646,1.317,3.68,3.68,0,0,1,1.173,1.12,1.01,1.01,0,0,1,.087.2h3.563A9.879,9.879,0,0,0,872.347,746.7Z" transform="translate(-858.537 -742.185)" fill="#38d39f"/>
    </g>
    <g id="Group_1198" data-name="Group 1198" transform="translate(107.155 318.985)" opacity="0.4">
      <ellipse id="Ellipse_377" data-name="Ellipse 377" cx="9.771" cy="1.653" rx="9.771" ry="1.653" transform="translate(0 5.567)" fill="#38d39f"/>
      <path id="Path_1660" data-name="Path 1660" d="M372.437,684.67a2.823,2.823,0,0,0,.931-1.407,1.248,1.248,0,0,0-.653-1.431,1.834,1.834,0,0,0-1.718.6,2.317,2.317,0,0,1-1.673.808,2.556,2.556,0,0,0,.787-2.395,1.012,1.012,0,0,0-.219-.485c-.332-.353-.934-.2-1.332.078-1.263.9-1.617,2.6-1.623,4.149a7.757,7.757,0,0,1-.024-1.709,1.715,1.715,0,0,0-.641-1.5,1.935,1.935,0,0,0-.982-.231,2.022,2.022,0,0,0-1.587.452,1.582,1.582,0,0,0,.063,1.952,6.2,6.2,0,0,0,1.643,1.317,3.619,3.619,0,0,1,1.174,1.12,1.233,1.233,0,0,1,.09.2h3.559A9.968,9.968,0,0,0,372.437,684.67Z" transform="translate(-358.624 -680.153)" fill="#38d39f"/>
    </g>
    <rect id="Rectangle_274" data-name="Rectangle 274" width="15.295" height="15.295" transform="translate(152.515 158.179)" fill="#d6d8e0"/>
    <rect id="Rectangle_275" data-name="Rectangle 275" width="32.044" height="2.913" transform="translate(179.096 159.272)" fill="#d6d8e0"/>
    <rect id="Rectangle_276" data-name="Rectangle 276" width="52.799" height="2.913" transform="translate(179.096 164.37)" fill="#d6d8e0"/>
    <rect id="Rectangle_277" data-name="Rectangle 277" width="52.799" height="2.913" transform="translate(179.096 169.468)" fill="#d6d8e0"/>
    <rect id="Rectangle_278" data-name="Rectangle 278" width="15.295" height="15.295" transform="translate(152.632 186.218)" fill="#d6d8e0"/>
    <rect id="Rectangle_279" data-name="Rectangle 279" width="32.044" height="2.913" transform="translate(179.212 187.311)" fill="#d6d8e0"/>
    <rect id="Rectangle_280" data-name="Rectangle 280" width="52.799" height="2.913" transform="translate(179.212 192.409)" fill="#d6d8e0"/>
    <rect id="Rectangle_281" data-name="Rectangle 281" width="52.799" height="2.913" transform="translate(179.212 197.504)" fill="#d6d8e0"/>
    <rect id="Rectangle_282" data-name="Rectangle 282" width="15.295" height="15.295" transform="translate(152.748 214.257)" fill="#d6d8e0"/>
    <rect id="Rectangle_283" data-name="Rectangle 283" width="32.044" height="2.913" transform="translate(179.332 215.346)" fill="#d6d8e0"/>
    <rect id="Rectangle_284" data-name="Rectangle 284" width="52.799" height="2.913" transform="translate(179.332 220.445)" fill="#d6d8e0"/>
    <rect id="Rectangle_285" data-name="Rectangle 285" width="52.799" height="2.913" transform="translate(179.332 225.543)" fill="#d6d8e0"/>
    <rect id="Rectangle_286" data-name="Rectangle 286" width="15.295" height="15.295" transform="translate(152.865 242.293)" fill="#d6d8e0"/>
    <rect id="Rectangle_287" data-name="Rectangle 287" width="32.044" height="2.913" transform="translate(179.449 243.385)" fill="#d6d8e0"/>
    <rect id="Rectangle_288" data-name="Rectangle 288" width="52.799" height="2.913" transform="translate(179.449 248.483)" fill="#d6d8e0"/>
    <rect id="Rectangle_289" data-name="Rectangle 289" width="52.799" height="2.913" transform="translate(179.449 253.582)" fill="#d6d8e0"/>
    <rect id="Rectangle_290" data-name="Rectangle 290" width="15.295" height="15.295" transform="translate(152.985 270.331)" fill="#d6d8e0"/>
    <rect id="Rectangle_291" data-name="Rectangle 291" width="32.044" height="2.913" transform="translate(179.566 271.424)" fill="#d6d8e0"/>
    <rect id="Rectangle_292" data-name="Rectangle 292" width="52.799" height="2.913" transform="translate(179.566 276.522)" fill="#d6d8e0"/>
    <rect id="Rectangle_293" data-name="Rectangle 293" width="52.799" height="2.913" transform="translate(179.566 281.62)" fill="#d6d8e0"/>
    <rect id="Rectangle_294" data-name="Rectangle 294" width="15.295" height="15.295" transform="translate(153.102 298.37)" fill="#d6d8e0"/>
    <rect id="Rectangle_295" data-name="Rectangle 295" width="32.044" height="2.913" transform="translate(179.683 299.463)" fill="#d6d8e0"/>
    <rect id="Rectangle_296" data-name="Rectangle 296" width="52.799" height="2.913" transform="translate(179.683 304.561)" fill="#d6d8e0"/>
    <rect id="Rectangle_297" data-name="Rectangle 297" width="52.799" height="2.913" transform="translate(179.683 309.659)" fill="#d6d8e0"/>
    <rect id="Rectangle_298" data-name="Rectangle 298" width="15.295" height="15.295" transform="translate(153.218 326.409)" fill="#d6d8e0"/>
    <rect id="Rectangle_299" data-name="Rectangle 299" width="32.044" height="2.913" transform="translate(179.799 327.501)" fill="#d6d8e0"/>
    <rect id="Rectangle_300" data-name="Rectangle 300" width="52.799" height="2.913" transform="translate(179.799 332.6)" fill="#d6d8e0"/>
    <rect id="Rectangle_301" data-name="Rectangle 301" width="52.799" height="2.913" transform="translate(179.799 337.698)" fill="#d6d8e0"/>
    <rect id="Rectangle_302" data-name="Rectangle 302" width="130.359" height="32.407" transform="translate(127.377 204.297)" fill="url(#linear-gradient-2)"/>
    <rect id="Rectangle_303" data-name="Rectangle 303" width="129.267" height="30.952" transform="translate(128.105 205.027)" fill="#fff"/>
    <rect id="Rectangle_304" data-name="Rectangle 304" width="15.295" height="15.295" transform="translate(153.048 212.856)" fill="#38d39f"/>
    <g id="Group_1199" data-name="Group 1199" transform="translate(179.632 213.948)" opacity="0.5">
      <rect id="Rectangle_305" data-name="Rectangle 305" width="32.044" height="2.913" fill="#38d39f"/>
      <rect id="Rectangle_306" data-name="Rectangle 306" width="52.799" height="2.913" transform="translate(0 5.098)" fill="#38d39f"/>
      <rect id="Rectangle_307" data-name="Rectangle 307" width="52.799" height="2.913" transform="translate(0 10.196)" fill="#38d39f"/>
    </g>
    <path id="Path_1661" data-name="Path 1661" d="M462.9,386.72a2.663,2.663,0,0,0-3.146-.479,4.621,4.621,0,0,0-1.563,2.117,16.387,16.387,0,0,0-1.632,3.61c-.692,3.565-3.53,6.335-4.667,9.78a19.437,19.437,0,0,1-1.242,3.673,11.694,11.694,0,0,1-1.018,1.4,39.455,39.455,0,0,0-3.892,5.936,4.777,4.777,0,0,0-1.772,1.1,6.116,6.116,0,0,1-2.395,1.135,2.26,2.26,0,0,0-.982.359c-.413.344-.47.964-.805,1.38a2.149,2.149,0,0,1-.9.6c0-.1-.015-.21-.018-.317-.015-.554-.024-1.111-.024-1.667a6.269,6.269,0,0,0-.018-8.137,12.275,12.275,0,0,1,.344-2.572,1.142,1.142,0,0,0-.242-1.18c-.165-.129-.377-.177-.554-.3a2.411,2.411,0,0,1-.6-.76,3.233,3.233,0,0,0-4.065-1.039c-1.081.569-1.736,1.706-2.694,2.479-.491.4-1.057.692-1.548,1.09a6.427,6.427,0,0,0-2,3.257,18.658,18.658,0,0,0-.545,3.844,3.472,3.472,0,0,0,.045,1.168,3.085,3.085,0,0,0,.44.9,10.066,10.066,0,0,0,3.721,3.548,1.453,1.453,0,0,1,0,.23,1.654,1.654,0,0,1-.066.356l-.174-.048a6.871,6.871,0,0,1-1.907-.446c-.982-.551-1.278-1.895-2.218-2.512a1.7,1.7,0,0,0-.251-.135,16.8,16.8,0,0,0-.964-4.99,6.219,6.219,0,0,1-.572-2.365,5.814,5.814,0,0,1,.721-2.141,54.406,54.406,0,0,0,2.694-7.373q.746-2.356,1.5-4.715a7.432,7.432,0,0,0,1.314-1.251,6.674,6.674,0,0,0,1.524-3.272,4.634,4.634,0,0,0-.841-3.461,2,2,0,0,0-1.407-.862,1.829,1.829,0,0,0-1.314.6,5.842,5.842,0,0,0-1.126,1.934,8.634,8.634,0,0,0-.94,3.619c.039,1.042.428,2.206-.18,3.054a73.045,73.045,0,0,0-5.071,9,16.1,16.1,0,0,0-1.024,2.257,12.573,12.573,0,0,0-.536,3.892,52.186,52.186,0,0,0,.659,7.376,9.478,9.478,0,0,0,.871,3.233,13.557,13.557,0,0,0-.536,3.64,2.074,2.074,0,0,0,.132.835,3.449,3.449,0,0,0,.662.832,3.727,3.727,0,0,1,.9,2.946,8.355,8.355,0,0,0,.266,2.952c.6,2.658,1.2,5.314,1.676,7.993a5.114,5.114,0,0,1,.114,1.521,8.969,8.969,0,0,0-.407,2.141,8.107,8.107,0,0,1,.192,1.024,2.529,2.529,0,0,1-.18.766c-.682,1.985-2.518,6.535-2.5,8.637l.479-.114c-.482,2.727-1.611,5.335-2.2,8.053a26.938,26.938,0,0,0-.557,6.023,22.355,22.355,0,0,1-.048,2.724c-.093.805-.3,1.593-.413,2.395a21.7,21.7,0,0,0-.144,3.242,33.109,33.109,0,0,0,.3,5.089c.458,2.874-.344,5.73-.563,8.631a51.887,51.887,0,0,1-.688,6.053c-.165.844-.371,1.682-.485,2.536-.335,2.533.153,5.143-.374,7.643-.248,1.17-.692,2.485-.039,3.485.207.314.5.56.727.862a1.1,1.1,0,0,1,.21,1.057c-.129.275-.428.455-.5.748-.12.461.362.838.793,1.036l.123.048a1.111,1.111,0,0,0,.233.9,1.9,1.9,0,0,0,.919.479l5.652,1.712a7.542,7.542,0,0,0,3.892.449.978.978,0,0,0,.224.485,1.9,1.9,0,0,0,.919.479l5.61,1.7c1.443.437,3.027.868,4.413.275a2.506,2.506,0,0,0,1.012-.763,2.67,2.67,0,0,0,.359-2.236,1.823,1.823,0,0,0-.545-1,2.4,2.4,0,0,0-1.305-.428,2.637,2.637,0,0,1-1.144-.3.823.823,0,0,1-.26-.272q.485-.479.94-.994c-.245-.084-.332-.437-.356-.695-.356-3.814,1.081-7.541,1.626-11.331a24.248,24.248,0,0,0,.144-5.742c-.066-.721-.165-1.44-.195-2.164-.141-3.772,1.661-7.4,1.6-11.175-.03-1.766.9-3.509,1.35-5.218a18.892,18.892,0,0,0,.416-4.67l.072-12.352a15.454,15.454,0,0,0-.533-4.958,6.286,6.286,0,0,1-.216-2.712c1.524-.674,2.967-1.67,4.6-1.5.434-1.153-.081-4.993-.488-6.158a26.483,26.483,0,0,1-.9-14.262c.368-1.7-.138-3.515.272-5.212a3.151,3.151,0,0,1,.446-1.12,1.2,1.2,0,0,1,1.027-.542c0-1.039-.021-2.1-.09-3.149a7.484,7.484,0,0,0,1.667-1.919,29.593,29.593,0,0,0,2.03-4.811c1.1-2.874,2.6-5.571,3.859-8.382s1.383-5.886,2.395-8.8a6.61,6.61,0,0,1,3.218-3.706,5.133,5.133,0,0,0,1.67-1.006,2.7,2.7,0,0,0,.581-1.428,3.775,3.775,0,0,0-.964-3.185ZM427.876,510.4c.123-.135.242-.269.356-.416-.377-.06-.838-.335-.847-.719a3.973,3.973,0,0,1,.245-1.123,4.49,4.49,0,0,0,.084-1.994c-.084-.464-.24-.9-.335-1.371a12.806,12.806,0,0,1-.18-1.551,25.654,25.654,0,0,0-1.09-5.5c-.542-1.733.2-3.488.392-5.293a10.435,10.435,0,0,1,.35-2.545c.177-.479.467-.9.644-1.383a6.33,6.33,0,0,0-.084-3.506c1.772-3.212,2.359-7.044,3.027-10.66q.563-3.044,1.126-6.086a5.928,5.928,0,0,1,.9-2.569,31.561,31.561,0,0,1,.683,8.185,12.153,12.153,0,0,0,.03,2.395c.138.871.5,1.694.71,2.551.467,1.889.195,3.874.3,5.817.039.784.141,1.569.174,2.353.147,3.47-1.015,6.844-2.161,10.122a37.562,37.562,0,0,0-1.2,6.4c-.317,2.015-.632,4.032-.793,6.065-.048.62-.087,1.257-.162,1.886a4.925,4.925,0,0,0-.584-.093,2.638,2.638,0,0,1-1.144-.3A1.332,1.332,0,0,1,427.876,510.4Z" transform="translate(-289.072 -154.136)" fill="url(#linear-gradient-3)"/>
    <path id="Path_1662" data-name="Path 1662" d="M469,814.694a2.428,2.428,0,0,1,1.305.425,1.818,1.818,0,0,1,.545.994,2.646,2.646,0,0,1-.359,2.224,2.485,2.485,0,0,1-1.012.755c-1.386.6-2.97.165-4.413-.27l-5.652-1.7a1.9,1.9,0,0,1-.919-.476,1.245,1.245,0,0,1-.024-1.452,2.834,2.834,0,0,1,1.2-.955,13.458,13.458,0,0,1,5.688-1.09c.718-.015,1.425-.171,1.913.383.257.3.213.617.6.871A2.593,2.593,0,0,0,469,814.694Z" transform="translate(-317.928 -454.325)" fill="#3f3d56"/>
    <path id="Path_1663" data-name="Path 1663" d="M433.33,804.313a2.4,2.4,0,0,1,1.305.422,1.847,1.847,0,0,1,.545.994,2.643,2.643,0,0,1-.359,2.224,2.491,2.491,0,0,1-1.012.757c-1.386.6-2.97.162-4.413-.272l-5.652-1.7a1.875,1.875,0,0,1-.919-.476,1.245,1.245,0,0,1-.024-1.452,2.817,2.817,0,0,1,1.2-.955,13.427,13.427,0,0,1,5.673-1.09c.716,0,1.425-.171,1.913.383.257.3.213.62.6.871A2.637,2.637,0,0,0,433.33,804.313Z" transform="translate(-292.936 -447.054)" fill="#3f3d56"/>
    <path id="Path_1664" data-name="Path 1664" d="M434.3,600.616a69.608,69.608,0,0,0-10.023-.281,1.97,1.97,0,0,0-.65.1c-.736.3-.85,1.263-.922,2.054-.281,3.194-1.691,6.173-2.395,9.307a26.574,26.574,0,0,0-.557,5.987,22,22,0,0,1-.048,2.694c-.093.8-.3,1.584-.413,2.395a21.42,21.42,0,0,0-.144,3.221,32.674,32.674,0,0,0,.3,5.05c.458,2.856-.344,5.688-.563,8.574a51.292,51.292,0,0,1-.689,6.014c-.165.838-.371,1.671-.485,2.518-.335,2.518.153,5.113-.374,7.595-.248,1.162-.692,2.467-.039,3.461.207.314.5.557.727.856a1.087,1.087,0,0,1,.21,1.051c-.129.272-.428.452-.5.742-.12.458.362.835.793,1.03a8.271,8.271,0,0,0,9.628-2.38c-.377-.06-.838-.332-.847-.713a3.929,3.929,0,0,1,.245-1.117,4.431,4.431,0,0,0,.084-1.982c-.084-.458-.24-.9-.335-1.362a12.6,12.6,0,0,1-.18-1.539,25.332,25.332,0,0,0-1.09-5.46c-.542-1.721.2-3.464.392-5.26a10.307,10.307,0,0,1,.35-2.527c.177-.476.467-.9.644-1.374a6.246,6.246,0,0,0-.084-3.482c1.772-3.194,2.359-7,3.027-10.592l1.126-6.047a5.842,5.842,0,0,1,.9-2.551,31.161,31.161,0,0,1,.683,8.134,11.975,11.975,0,0,0,.03,2.362c.138.865.5,1.682.709,2.536.467,1.874.195,3.847.3,5.778.039.778.141,1.557.174,2.338.147,3.446-1.015,6.8-2.161,10.053a37.139,37.139,0,0,0-1.2,6.356c-.317,2-.632,4.006-.793,6.026-.147,1.856-.21,3.865-1.365,5.323a9.793,9.793,0,0,0,3.38,1.62,6.268,6.268,0,0,0,4.17-.805,13.172,13.172,0,0,0,3.293-2.8c-.245-.084-.332-.437-.356-.691-.356-3.787,1.081-7.484,1.626-11.256a23.953,23.953,0,0,0,.144-5.706c-.066-.716-.165-1.428-.195-2.146-.141-3.748,1.661-7.355,1.6-11.1-.03-1.754.9-3.488,1.35-5.185a18.6,18.6,0,0,0,.416-4.637l.072-12.274a15.27,15.27,0,0,0-.533-4.928c-.659-1.883.093-4.05.207-6.041A24.912,24.912,0,0,1,434.3,600.616Z" transform="translate(-289.002 -304.695)" fill="#3f3d56"/>
    <path id="Path_1665" data-name="Path 1665" d="M510.073,419.778a39.14,39.14,0,0,1,4.583-7.239,11.8,11.8,0,0,0,1.018-1.389,19.2,19.2,0,0,0,1.242-3.649c1.138-3.425,3.976-6.176,4.667-9.717a16.447,16.447,0,0,1,1.632-3.592,4.53,4.53,0,0,1,1.563-2.1,2.663,2.663,0,0,1,3.146.479,3.73,3.73,0,0,1,.961,3.158,2.637,2.637,0,0,1-.581,1.419,5.2,5.2,0,0,1-1.671,1,6.557,6.557,0,0,0-3.218,3.679c-1,2.892-1.126,5.951-2.395,8.739s-2.76,5.466-3.859,8.319a28.674,28.674,0,0,1-2.03,4.79,5.9,5.9,0,0,1-4.059,2.976,10.2,10.2,0,0,0-.5-3.185C510.208,422.284,509.528,420.88,510.073,419.778Z" transform="translate(-354.094 -159.119)" fill="#a0616a"/>
    <path id="Path_1666" data-name="Path 1666" d="M434.044,419.073a16.6,16.6,0,0,0-.97-6.221,6.159,6.159,0,0,1-.572-2.35,5.744,5.744,0,0,1,.721-2.125,53.823,53.823,0,0,0,2.694-7.328l1.5-4.682a7.483,7.483,0,0,0,1.314-1.242,6.629,6.629,0,0,0,1.524-3.251,4.587,4.587,0,0,0-.841-3.44A1.988,1.988,0,0,0,438,387.58a1.811,1.811,0,0,0-1.314.6,5.79,5.79,0,0,0-1.126,1.922,8.526,8.526,0,0,0-.94,3.592c.039,1.036.428,2.191-.18,3.033a72.512,72.512,0,0,0-5.071,8.942,15.919,15.919,0,0,0-1.024,2.242,12.43,12.43,0,0,0-.536,3.874,51.518,51.518,0,0,0,.659,7.328c.21,1.521.491,3.179,1.644,4.191A24.5,24.5,0,0,1,434.044,419.073Z" transform="translate(-296.602 -156.181)" fill="#a0616a"/>
    <circle id="Ellipse_378" data-name="Ellipse 378" cx="6.212" cy="6.212" r="6.212" transform="translate(138.849 251.639)" fill="#a0616a"/>
    <path id="Path_1667" data-name="Path 1667" d="M457.365,488.447a8.287,8.287,0,0,1-1.338,3.1c-.356.6-.805,1.236-1.5,1.3a29.935,29.935,0,0,0,5.64,2.269,6.414,6.414,0,0,0,2.063.332,5.039,5.039,0,0,0,1.715-.44,8.517,8.517,0,0,0,4.832-5.688,11.21,11.21,0,0,1-2.305-.177,1.7,1.7,0,0,1-1.132-.554,1.823,1.823,0,0,1-.233-1q-.045-1.554,0-3.107a12.275,12.275,0,0,0-4.514.554c-.6.195-1.2.431-1.811.584-.377.093-1.416,0-1.694.219C456.667,486.169,457.476,487.684,457.365,488.447Z" transform="translate(-315.322 -224.055)" fill="#a0616a"/>
    <path id="Path_1668" data-name="Path 1668" d="M443.718,489.583a3.907,3.907,0,0,0-2.97-3.467,6.865,6.865,0,0,1-1.907-.443c-.982-.548-1.278-1.883-2.218-2.5a2.623,2.623,0,0,0-3.1.506,6.682,6.682,0,0,0-1.572,2.958,14.892,14.892,0,0,0-.805,4.535,2.06,2.06,0,0,0,.132.832,3.494,3.494,0,0,0,.662.829,3.676,3.676,0,0,1,.9,2.922,8.273,8.273,0,0,0,.266,2.937c.6,2.637,1.2,5.278,1.676,7.939a5.054,5.054,0,0,1,.114,1.5,8.859,8.859,0,0,0-.407,2.123,8.051,8.051,0,0,1,.192,1.021,2.476,2.476,0,0,1-.18.757c-.683,1.976-2.518,6.5-2.5,8.583a51.923,51.923,0,0,1,11.178-1.012,23.48,23.48,0,0,1,2.715.12c2.164.231,4.38.862,6.478.278,1.946-.542,3.673-2.1,5.688-1.9.434-1.147-.081-4.964-.488-6.119a26.147,26.147,0,0,1-.9-14.169c.368-1.694-.138-3.491.272-5.176a3.1,3.1,0,0,1,.446-1.114,1.2,1.2,0,0,1,1.027-.539,38.137,38.137,0,0,0-.748-8.062c-.2-.943-.617-2.057-1.566-2.218-.856-.144-1.578.578-2.263,1.111a6.185,6.185,0,0,1-2.395,1.126,2.254,2.254,0,0,0-.982.356c-.413.341-.47.958-.805,1.374-.6.745-1.937.68-2.362,1.539a5.39,5.39,0,0,0-.227.787,2.881,2.881,0,0,1-.985,1.272A5.558,5.558,0,0,1,443.718,489.583Z" transform="translate(-298.935 -221.416)" fill="#38d39f"/>
    <path id="Path_1669" data-name="Path 1669" d="M462.187,445.48a1.136,1.136,0,0,0-.242-1.174c-.165-.129-.377-.177-.554-.3a2.4,2.4,0,0,1-.6-.757,3.251,3.251,0,0,0-4.074-1.027c-1.081.566-1.736,1.7-2.694,2.464-.491.4-1.057.689-1.548,1.081a6.389,6.389,0,0,0-2,3.239,18.433,18.433,0,0,0-.542,3.823,3.434,3.434,0,0,0,.045,1.161,3.05,3.05,0,0,0,.44.883,9.96,9.96,0,0,0,3.922,3.628,6.082,6.082,0,0,0,5.227.093.931.931,0,0,0,.4-.323,1.126,1.126,0,0,0,.06-.692,4.745,4.745,0,0,1,.524-2.646c.3-.6.745-1.114.988-1.736a6.167,6.167,0,0,0,.281-2.149A23.038,23.038,0,0,1,462.187,445.48Z" transform="translate(-312.079 -194.233)" fill="#2d293d"/>
    <rect id="Rectangle_308" data-name="Rectangle 308" width="15.295" height="15.295" transform="translate(152.985 213.038)" fill="#38d39f"/>
    <path id="Path_1670" data-name="Path 1670" d="M522.767,361.148a2.009,2.009,0,0,1-1.036.94,2.57,2.57,0,0,1-.823.156,2.323,2.323,0,0,1-.9-.111,2.063,2.063,0,0,1-.949-.757,4.791,4.791,0,0,1-.551-1.1,1.222,1.222,0,0,1-.111-.623.9.9,0,0,0,.6-.338.758.758,0,0,0,.015-.6c-.018-.06-.036-.117-.057-.171-.045-.132-.2-.38-.093-.491s.359-.108.458-.153a4.322,4.322,0,0,1,.931-.416,2.263,2.263,0,0,1,.883.057.3.3,0,0,1,.111.042.257.257,0,0,1,.081.12c.084.2.132.428.2.638a1.314,1.314,0,0,0,.329.584,1.653,1.653,0,0,0,.458.275l.4.183a.572.572,0,0,1,.189.123.5.5,0,0,1,.09.246A2.3,2.3,0,0,1,522.767,361.148Z" transform="translate(-360.068 -135.081)" fill="#a0616a"/>
    <path id="Path_1671" data-name="Path 1671" d="M522.524,358.37a2.081,2.081,0,0,1-2.512.374c-.018-.06-.036-.117-.057-.171-.045-.132-.2-.38-.093-.491s.359-.108.458-.153a4.321,4.321,0,0,1,.931-.416,2.264,2.264,0,0,1,.883.057.3.3,0,0,1,.111.042.258.258,0,0,1,.081.12C522.41,357.945,522.458,358.16,522.524,358.37Z" transform="translate(-361.07 -135.102)" opacity="0.1"/>
    <circle id="Ellipse_379" data-name="Ellipse 379" cx="2.078" cy="2.078" r="2.078" transform="translate(157.88 219.66)" fill="#a0616a"/>
    <path id="Path_1672" data-name="Path 1672" d="M519.969,367.483h-9.777c-.3-.668-.569-1.338-.871-2.006h0a1.392,1.392,0,0,1,.177-.449.488.488,0,0,1,.4-.225c.087,0,.186.033.248-.03s.042-.114.087-.156a.366.366,0,0,1,.237-.036.542.542,0,0,0,.461-.231.738.738,0,0,1,.117-.153.668.668,0,0,1,.251-.066c.242-.054.386-.3.569-.452a.341.341,0,0,1,.359-.1.221.221,0,0,1,.075.063.677.677,0,0,1,.1.248,2.221,2.221,0,0,0,.781,1.26,1.772,1.772,0,0,0,2.676-.668,3.486,3.486,0,0,0,.245-1.135V363.3a.856.856,0,0,1,.713.141,4.02,4.02,0,0,0,.635.4c.266.1.6.1.781.3.078.078.132.186.231.233a.688.688,0,0,0,.192.045,1.135,1.135,0,0,1,.751.659,5.127,5.127,0,0,1,.419,1.515Z" transform="translate(-353.71 -139.153)" fill="#f86d70"/>
    <path id="Path_1673" data-name="Path 1673" d="M515.3,343.147a1.57,1.57,0,0,0-.362.419,2.062,2.062,0,0,1-.725.712.9.9,0,0,0-.332.207.555.555,0,0,0-.087.234,4.381,4.381,0,0,0-.093.883.943.943,0,0,0,.072.437c.06.126.174.233.195.371a1.084,1.084,0,0,1-.036.323.281.281,0,0,0,.111.3.759.759,0,0,0,.168.039c.3.066.4.419.446.709.1,0,.147-.123.171-.219l.3-1.392c.036-.15.09-.326.243-.377a.758.758,0,0,1,.317,0c.413.036.76-.284,1.164-.374a1.589,1.589,0,0,1,.4-.024c.317,0,.689.147.757.443a.149.149,0,0,0,.063.132.252.252,0,0,0,.141,0c.2-.021.32.207.38.392l.21.68c.033.1.087.224.2.236a.21.21,0,0,0,.207-.183.828.828,0,0,0-.042-.3,3.241,3.241,0,0,1,.147-1.344,1.473,1.473,0,0,0-.2-1.3c-.114-.123-.264-.216-.368-.347s-.153-.272-.254-.4a2.613,2.613,0,0,0-1.452-.635A2.976,2.976,0,0,0,515.3,343.147Z" transform="translate(-356.779 -124.78)" fill="#3f3d56"/>
    <g id="Group_1200" data-name="Group 1200" transform="translate(156.925 220.005)" opacity="0.1">
      <path id="Path_1674" data-name="Path 1674" d="M519.562,352.348c-.111,0-.165-.135-.2-.236l-.21-.68c-.06-.186-.18-.413-.38-.4a.251.251,0,0,1-.141,0c-.045-.024-.051-.081-.063-.132-.069-.3-.44-.428-.757-.443a1.458,1.458,0,0,0-.4.027c-.4.087-.751.407-1.165.371a.874.874,0,0,0-.317,0c-.153.054-.207.228-.242.38-.1.464-.207.928-.3,1.389-.024.1-.069.213-.171.219-.045-.3-.147-.644-.446-.71a.622.622,0,0,1-.168-.039.188.188,0,0,1-.087-.1.963.963,0,0,1-.024.129.281.281,0,0,0,.111.3.761.761,0,0,0,.168.039c.3.066.4.419.446.71.1,0,.147-.123.171-.219.1-.464.207-.928.3-1.392.036-.15.09-.326.242-.377a.757.757,0,0,1,.317,0c.413.036.76-.284,1.165-.374a1.587,1.587,0,0,1,.4-.024c.317,0,.689.147.757.443a.149.149,0,0,0,.063.132.252.252,0,0,0,.141,0c.2-.021.32.207.38.392l.21.68c.033.1.087.225.2.236a.21.21,0,0,0,.207-.183.6.6,0,0,0-.03-.24A.186.186,0,0,1,519.562,352.348Z" transform="translate(-514.258 -350.178)"/>
      <path id="Path_1675" data-name="Path 1675" d="M513.977,352.391c-.021-.138-.135-.245-.195-.371a.763.763,0,0,1-.069-.269v.15a.943.943,0,0,0,.072.437c.048.1.132.192.174.3A.667.667,0,0,0,513.977,352.391Z" transform="translate(-513.711 -351.082)"/>
      <path id="Path_1676" data-name="Path 1676" d="M532.07,349.867a3.892,3.892,0,0,0-.171,1.2,7.276,7.276,0,0,1,.171-.874,2.293,2.293,0,0,0,.051-.671A2.719,2.719,0,0,1,532.07,349.867Z" transform="translate(-526.454 -349.52)"/>
    </g>
    <path id="Path_1677" data-name="Path 1677" d="M509.382,372.046H507.05a7.332,7.332,0,0,1,.548-1.82.415.415,0,0,1,.1-.159.144.144,0,0,1,.033-.027c.069-.054.165-.075.239-.126s.084-.1.153-.126a2.068,2.068,0,0,1,.76.126.761.761,0,0,1,.2.051.677.677,0,0,1,.317.389A3.674,3.674,0,0,1,509.382,372.046Z" transform="translate(-352.119 -143.716)" fill="#f86d70"/>
  </g>
</svg>
